<svg width="732" height="299" viewBox="0 0 732 299" fill="none" xmlns="http://www.w3.org/2000/svg">
    <path
        d="M219.013 194.719V194.219H218.513H186.789V121.267V120.767H186.289H139.564H139.064V121.267V194.219H52.1702L148.87 6.47551L149.246 5.74656H148.426H98.0753H97.7704L97.6308 6.01761L0.555497 194.49L0.5 194.598V194.719V237.902V238.402H1H139.064V288.753V289.253H139.564H186.289H186.789V288.753V238.402H218.513H219.013V237.902V194.719ZM278.157 254.339L278.159 254.342C297.863 281.114 325.273 294.5 360.331 294.5C395.388 294.5 422.665 281.115 442.1 254.342C461.784 227.594 471.601 191.964 471.601 147.5C471.601 103.036 461.784 67.4055 442.1 40.6582C422.665 13.885 395.388 0.5 360.331 0.5C325.273 0.5 297.863 13.8857 278.159 40.6582L278.157 40.6608C258.743 67.4079 249.06 103.037 249.06 147.5C249.06 191.963 258.743 227.592 278.157 254.339ZM722.5 194.719V194.219H722H690.276V121.267V120.767H689.776H643.051H642.551V121.267V194.219H555.657L652.357 6.47551L652.732 5.74656H651.912H601.562H601.257L601.118 6.01761L504.042 194.49L503.987 194.598V194.719V237.902V238.402H504.487H642.551V288.753V289.253H643.051H689.776H690.276V288.753V238.402H722H722.5V237.902V194.719ZM407.841 222.3C396.924 239.64 381.108 248.299 360.331 248.299C339.826 248.299 324.006 239.643 312.819 222.298C301.882 204.922 296.383 180.01 296.383 147.5C296.383 114.991 301.881 90.078 312.819 72.703C324.006 55.3574 339.826 46.7011 360.331 46.7011C381.108 46.7011 396.924 55.3595 407.841 72.7003C418.78 90.0755 424.279 114.989 424.279 147.5C424.279 180.011 418.78 204.925 407.841 222.3Z"
        stroke="#E0E1E5"/>
    <path
        d="M228.711 204.467V203.967H228.211H196.532V131.407V130.907H196.032H149.372H148.872V131.407V203.967H62.1019L158.665 17.2297L159.043 16.5H158.221H107.941H107.636L107.497 16.7703L10.5559 204.237L10.5 204.346V204.467V247.42V247.92H11H148.872V298V298.5H149.372H196.032H196.532V298V247.92H228.211H228.711V247.42V204.467ZM731.5 204.467V203.967H731H699.32V131.407V130.907H698.82H652.16H651.66V131.407V203.967H564.89L661.454 17.2297L661.831 16.5H661.01H610.729H610.425L610.285 16.7703L513.344 204.237L513.289 204.346V204.467V247.42V247.92H513.789H651.66V298V298.5H652.16H698.82H699.32V298V247.92H731H731.5V247.42V204.467Z"
        stroke="#53D6F1"/>
</svg>
