<svg width="584" height="232" viewBox="0 0 584 232" fill="none" xmlns="http://www.w3.org/2000/svg">
    <path fill-rule="evenodd" clip-rule="evenodd"
          d="M46.6859 77V2.20002H76.1819C82.9107 2.20002 88.5965 4.21032 93.168 8.27106C97.8356 12.2852 100.166 17.559 100.166 24C100.166 29.6505 98.2523 34.3821 94.4278 38.127C99.9724 42.0897 102.766 47.6395 102.766 54.68C102.766 61.2601 100.401 66.6709 95.6652 70.8239C90.9556 74.9538 85.1317 77 78.2619 77H46.6859ZM93.6814 38.8237C93.4022 38.6278 93.1156 38.4359 92.8219 38.248C93.0845 38.0198 93.3391 37.7875 93.5854 37.5509C97.3057 33.9793 99.1659 29.4623 99.1659 24C99.1659 17.8294 96.9472 12.8374 92.5099 9.02402C88.1419 5.14135 82.6992 3.20002 76.1819 3.20002H47.6859V76H78.2619C84.9179 76 90.4992 74.024 95.0059 70.072C99.5126 66.12 101.766 60.9894 101.766 54.68C101.766 47.8905 99.0711 42.6051 93.6814 38.8237ZM80.0407 21.369L80.0309 21.3586C79.0593 20.3299 77.8064 19.8 76.1819 19.8H65.3259V30.696H76.1819C77.8186 30.696 79.0747 30.1918 80.0407 29.231C81.021 28.1879 81.5259 26.8845 81.5259 25.248C81.5259 23.6056 81.0181 22.3465 80.0508 21.3791L80.0407 21.369ZM80.7579 29.928C79.5792 31.1067 78.0539 31.696 76.1819 31.696H64.3259V18.8H76.1819C78.0539 18.8 79.5792 19.424 80.7579 20.672C81.9366 21.8507 82.5259 23.376 82.5259 25.248C82.5259 27.12 81.9366 28.68 80.7579 29.928ZM82.5372 49.1376L82.5279 49.1278C81.497 48.0396 80.1113 47.464 78.2619 47.464H65.3259V59.4H78.2619C80.1219 59.4 81.5109 58.8516 82.5373 57.8304C83.5774 56.7274 84.1259 55.2909 84.1259 53.432C84.1259 51.5663 83.574 50.1744 82.5468 49.1471L82.5372 49.1376ZM83.2539 58.528C82.0059 59.776 80.3419 60.4 78.2619 60.4H64.3259V46.464H78.2619C80.3419 46.464 82.0059 47.1227 83.2539 48.44C84.5019 49.688 85.1259 51.352 85.1259 53.432C85.1259 55.512 84.5019 57.2107 83.2539 58.528ZM114.257 2.20002H132.897V51.04C132.897 54.2514 133.793 56.4857 135.423 57.9374C137.074 59.4086 139.652 60.232 143.337 60.232C147.023 60.232 149.601 59.4086 151.252 57.9374C152.882 56.4857 153.777 54.2514 153.777 51.04V2.20002H172.417V52.496C172.417 60.3821 169.679 66.7389 164.163 71.456C158.681 76.1446 151.712 78.456 143.337 78.456C134.963 78.456 127.993 76.1446 122.511 71.456C116.996 66.7389 114.257 60.3821 114.257 52.496V2.20002ZM195.977 73.5104L195.97 73.5059C190.871 70.1304 187.235 65.5585 185.082 59.8151L184.785 59.0231L200.841 49.7151L201.288 50.7467C202.682 53.9672 204.571 56.3209 206.927 57.8754C209.282 59.4295 212.176 60.232 215.658 60.232C218.884 60.232 221.137 59.7423 222.554 58.8925C223.888 58.0916 224.538 56.9412 224.538 55.304C224.538 53.578 223.717 52.2218 221.833 51.1888L221.816 51.1795L221.8 51.1695C219.851 50.0003 216.022 48.6084 210.194 47.0125C207.105 46.1699 204.383 45.2172 202.036 44.1504C199.676 43.0775 197.361 41.687 195.09 39.984L195.076 39.9735L195.062 39.9624C192.79 38.1299 191.031 35.856 189.789 33.1535L189.785 33.1433L189.78 33.1329C188.607 30.4208 188.034 27.3349 188.034 23.896C188.034 16.901 190.538 11.2377 195.567 7.01053L195.572 7.00598C200.615 2.82726 206.599 0.744019 213.474 0.744019C219.6 0.744019 225.055 2.20612 229.805 5.15536C234.559 8.03822 238.286 12.2455 240.995 17.7335L241.407 18.5687L225.622 27.8056L225.155 26.8211C223.89 24.1583 222.358 22.2293 220.589 20.9658L220.579 20.959L220.57 20.952C218.849 19.6614 216.515 18.968 213.474 18.968C211.115 18.968 209.424 19.4931 208.275 20.4129L208.27 20.4169C207.165 21.289 206.674 22.2942 206.674 23.48C206.674 24.9187 207.317 26.2061 208.783 27.3699C210.357 28.5623 213.724 29.9748 219.064 31.5699L219.074 31.5727C221.99 32.4752 224.256 33.2072 225.867 33.7675C227.531 34.3464 229.59 35.3081 232.032 36.6331C234.58 37.9087 236.567 39.3245 237.929 40.9058C239.343 42.4007 240.539 44.3766 241.536 46.7948C242.64 49.2307 243.178 52.0052 243.178 55.096C243.178 62.3037 240.566 68.0786 235.317 72.3068L235.311 72.3121C230.1 76.4373 223.346 78.456 215.138 78.456C207.577 78.456 201.173 76.8299 195.984 73.5147L195.977 73.5104ZM240.618 47.192C239.647 44.8347 238.503 42.9627 237.186 41.576C235.938 40.12 234.066 38.768 231.57 37.52C229.143 36.2027 227.133 35.2667 225.538 34.712C223.943 34.1574 221.69 33.4294 218.778 32.528C213.439 30.9334 209.903 29.4774 208.17 28.16C206.506 26.8427 205.674 25.2827 205.674 23.48C205.674 21.9547 206.333 20.672 207.65 19.632C209.037 18.5227 210.978 17.968 213.474 17.968C216.663 17.968 219.229 18.696 221.17 20.152C222.896 21.3851 224.376 23.1665 225.609 25.4962C225.762 25.7863 225.912 26.0849 226.058 26.392L240.098 18.176C237.463 12.8374 233.858 8.78135 229.282 6.00802C224.706 3.16535 219.437 1.74402 213.474 1.74402C206.818 1.74402 201.063 3.75469 196.21 7.77602C191.426 11.7974 189.034 17.1707 189.034 23.896C189.034 27.224 189.589 30.1707 190.698 32.736C191.877 35.3014 193.541 37.4507 195.69 39.184C197.909 40.848 200.162 42.2 202.45 43.24C204.738 44.28 207.407 45.216 210.458 46.048C216.282 47.6427 220.234 49.064 222.314 50.312C224.463 51.4907 225.538 53.1547 225.538 55.304C225.538 59.256 222.245 61.232 215.658 61.232C208.715 61.232 203.759 58.1737 200.789 52.0571C200.645 51.76 200.505 51.4556 200.37 51.144L186.018 59.464C188.098 65.0107 191.599 69.4134 196.522 72.672C201.514 75.8614 207.719 77.456 215.138 77.456C223.181 77.456 229.698 75.48 234.69 71.528C239.682 67.5067 242.178 62.0294 242.178 55.096C242.178 52.1147 241.658 49.48 240.618 47.192ZM255.226 2.20002H273.866V77H255.226V2.20002ZM331.175 2.20002H349.815V77H335.818L309.255 39.6139V77H290.615V2.20002H304.611L331.175 39.5861V2.20002ZM332.175 42.72L304.095 3.20002H291.615V76H308.255V36.48L336.335 76H348.815V3.20002H332.175V42.72ZM414.287 58.984V77H366.527V2.20002H413.767V20.216H385.167V30.28H411.167V48.088H385.167V58.984H414.287ZM384.167 59.984V47.088H410.167V31.28H384.167V19.216H412.767V3.20002H367.527V76H413.287V59.984H384.167ZM435.234 73.5104L435.227 73.5059C430.128 70.1304 426.492 65.5585 424.339 59.8151L424.042 59.0231L440.098 49.7151L440.545 50.7467C441.939 53.9672 443.828 56.3209 446.184 57.8754C448.539 59.4295 451.432 60.232 454.915 60.232C458.141 60.232 460.394 59.7423 461.81 58.8925C463.145 58.0916 463.795 56.9412 463.795 55.304C463.795 53.578 462.974 52.2218 461.09 51.1888L461.073 51.1795L461.056 51.1695C459.108 50.0003 455.279 48.6084 449.451 47.0125C446.362 46.1699 443.64 45.2172 441.293 44.1504C438.933 43.0775 436.618 41.687 434.347 39.984L434.333 39.9735L434.319 39.9624C432.047 38.1299 430.288 35.856 429.046 33.1535L429.042 33.1433L429.037 33.1329C427.864 30.4208 427.291 27.3349 427.291 23.896C427.291 16.901 429.795 11.2377 434.824 7.01053L434.829 7.00598C439.872 2.82726 445.856 0.744019 452.731 0.744019C458.858 0.744019 464.313 2.2064 469.063 5.1562C473.817 8.03905 477.544 12.246 480.252 17.7335L480.664 18.5687L464.879 27.8056L464.412 26.8211C463.147 24.1583 461.615 22.2293 459.846 20.9658L459.836 20.959L459.827 20.952C458.106 19.6614 455.772 18.968 452.731 18.968C450.372 18.968 448.681 19.4931 447.532 20.4129L447.527 20.4169C446.422 21.289 445.931 22.2942 445.931 23.48C445.931 24.9187 446.573 26.2061 448.04 27.3699C449.614 28.5623 452.981 29.9748 458.321 31.5699L458.331 31.5727C461.246 32.4752 463.513 33.2072 465.123 33.7675C466.788 34.3464 468.847 35.3081 471.289 36.6331C473.837 37.9086 475.824 39.3244 477.185 40.9056C478.6 42.4004 479.795 44.3761 480.793 46.794C481.897 49.2301 482.435 52.0049 482.435 55.096C482.435 62.3037 479.823 68.0786 474.574 72.3068L474.568 72.3121C469.357 76.4373 462.603 78.456 454.395 78.456C446.833 78.456 440.43 76.8299 435.241 73.5147L435.234 73.5104ZM479.875 47.192C478.904 44.8347 477.76 42.9627 476.443 41.576C475.195 40.12 473.323 38.768 470.827 37.52C468.4 36.2027 466.39 35.2667 464.795 34.712C463.2 34.1574 460.947 33.4294 458.035 32.528C452.696 30.9334 449.16 29.4774 447.427 28.16C445.763 26.8427 444.931 25.2827 444.931 23.48C444.931 21.9547 445.59 20.672 446.907 19.632C448.294 18.5227 450.235 17.968 452.731 17.968C455.92 17.968 458.486 18.696 460.427 20.152C462.153 21.3851 463.633 23.1665 464.866 25.4962C465.019 25.7863 465.169 26.0849 465.315 26.392L479.355 18.176C476.72 12.8374 473.115 8.78135 468.539 6.00802C463.963 3.16535 458.694 1.74402 452.731 1.74402C446.075 1.74402 440.32 3.75469 435.467 7.77602C430.683 11.7974 428.291 17.1707 428.291 23.896C428.291 27.224 428.846 30.1707 429.955 32.736C431.134 35.3014 432.798 37.4507 434.947 39.184C437.166 40.848 439.419 42.2 441.707 43.24C443.995 44.28 446.664 45.216 449.715 46.048C455.539 47.6427 459.491 49.064 461.571 50.312C463.72 51.4907 464.795 53.1547 464.795 55.304C464.795 59.256 461.502 61.232 454.915 61.232C447.972 61.232 443.016 58.1737 440.046 52.0571C439.901 51.76 439.762 51.4556 439.627 51.144L425.275 59.464C427.355 65.0107 430.856 69.4134 435.779 72.672C440.771 75.8614 446.976 77.456 454.395 77.456C462.438 77.456 468.955 75.48 473.947 71.528C478.939 67.5067 481.435 62.0294 481.435 55.096C481.435 52.1147 480.915 49.48 479.875 47.192ZM500.278 73.5104L500.272 73.5059C495.173 70.1304 491.537 65.5585 489.383 59.8151L489.086 59.0231L505.143 49.7151L505.589 50.7467C506.984 53.9672 508.873 56.3209 511.228 57.8754C513.584 59.4295 516.477 60.232 519.96 60.232C523.186 60.232 525.439 59.7423 526.855 58.8925C528.19 58.0916 528.84 56.9412 528.84 55.304C528.84 53.578 528.018 52.2218 526.135 51.1888L526.118 51.1795L526.101 51.1695C524.153 50.0003 520.324 48.6084 514.496 47.0125C511.406 46.1699 508.685 45.2172 506.338 44.1504C503.978 43.0775 501.662 41.687 499.392 39.984L499.378 39.9735L499.364 39.9624C497.092 38.1299 495.333 35.856 494.091 33.1535L494.086 33.1433L494.082 33.1329C492.909 30.4208 492.336 27.3349 492.336 23.896C492.336 16.901 494.839 11.2377 499.868 7.01053L499.874 7.00598C504.917 2.82726 510.901 0.744019 517.776 0.744019C523.903 0.744019 529.357 2.2064 534.108 5.1562C538.862 8.03905 542.588 12.246 545.296 17.7335L545.709 18.5687L529.924 27.8056L529.456 26.8211C528.192 24.1583 526.659 22.2293 524.89 20.9658L524.881 20.959L524.872 20.952C523.151 19.6614 520.816 18.968 517.776 18.968C515.416 18.968 513.726 19.4931 512.576 20.4129L512.571 20.4169C511.467 21.289 510.976 22.2942 510.976 23.48C510.976 24.9187 511.618 26.2061 513.085 27.3699C514.659 28.5623 518.026 29.9748 523.366 31.5699L523.375 31.5727C526.291 32.4752 528.557 33.2072 530.168 33.7675C531.833 34.3464 533.892 35.3081 536.334 36.6331C538.882 37.9086 540.868 39.3244 542.23 40.9056C543.645 42.4004 544.84 44.3761 545.837 46.794C546.941 49.2301 547.48 52.0049 547.48 55.096C547.48 62.3037 544.868 68.0786 539.619 72.3068L539.612 72.3121C534.401 76.4373 527.647 78.456 519.44 78.456C511.878 78.456 505.474 76.8299 500.285 73.5147L500.278 73.5104ZM544.92 47.192C543.949 44.8347 542.805 42.9627 541.488 41.576C540.24 40.12 538.368 38.768 535.872 37.52C533.445 36.2027 531.434 35.2667 529.84 34.712C528.245 34.1574 525.992 33.4294 523.08 32.528C517.741 30.9334 514.205 29.4774 512.472 28.16C510.808 26.8427 509.976 25.2827 509.976 23.48C509.976 21.9547 510.634 20.672 511.952 19.632C513.338 18.5227 515.28 17.968 517.776 17.968C520.965 17.968 523.53 18.696 525.472 20.152C527.198 21.3851 528.678 23.1665 529.911 25.4962C530.064 25.7863 530.214 26.0849 530.36 26.392L544.4 18.176C541.765 12.8374 538.16 8.78135 533.584 6.00802C529.008 3.16535 523.738 1.74402 517.776 1.74402C511.12 1.74402 505.365 3.75469 500.512 7.77602C495.728 11.7974 493.336 17.1707 493.336 23.896C493.336 27.224 493.89 30.1707 495 32.736C496.178 35.3014 497.842 37.4507 499.992 39.184C502.21 40.848 504.464 42.2 506.752 43.24C509.04 44.28 511.709 45.216 514.76 46.048C520.584 47.6427 524.536 49.064 526.616 50.312C528.765 51.4907 529.84 53.1547 529.84 55.304C529.84 59.256 526.546 61.232 519.96 61.232C513.017 61.232 508.061 58.1737 505.09 52.0571C504.946 51.76 504.807 51.4556 504.672 51.144L490.32 59.464C492.4 65.0107 495.901 69.4134 500.824 72.672C505.816 75.8614 512.021 77.456 519.44 77.456C527.482 77.456 534 75.48 538.992 71.528C543.984 67.5067 546.48 62.0294 546.48 55.096C546.48 52.1147 545.96 49.48 544.92 47.192ZM143.337 77.456C151.519 77.456 158.244 75.2027 163.513 70.696C168.783 66.1894 171.417 60.1227 171.417 52.496V3.20002H154.777V51.04C154.777 57.8347 150.964 61.232 143.337 61.232C135.711 61.232 131.897 57.8347 131.897 51.04V3.20002H115.257V52.496C115.257 60.1227 117.892 66.1894 123.161 70.696C128.431 75.2027 135.156 77.456 143.337 77.456ZM256.226 3.20002V76H272.866V3.20002H256.226Z"
          fill="#E0E1E5"/>
    <path fill-rule="evenodd" clip-rule="evenodd"
          d="M100.535 228.79L100.528 228.786C97.322 226.664 95.0331 223.785 93.6794 220.175L93.3824 219.383L103.919 213.275L104.365 214.307C105.2 216.234 106.319 217.617 107.694 218.525C109.07 219.433 110.773 219.912 112.856 219.912C114.815 219.912 116.118 219.612 116.901 219.142C117.603 218.722 117.936 218.141 117.936 217.264C117.936 216.365 117.528 215.648 116.471 215.069L116.454 215.059L116.437 215.049C115.289 214.36 112.98 213.515 109.393 212.533C107.476 212.01 105.781 211.417 104.314 210.75C102.834 210.077 101.385 209.207 99.9677 208.144L99.9537 208.133L99.94 208.122C98.4943 206.956 97.3754 205.509 96.5871 203.793L96.5823 203.783L96.5779 203.773C95.8317 202.047 95.4717 200.095 95.4717 197.936C95.4717 193.528 97.0554 189.931 100.244 187.25L100.25 187.246C103.426 184.614 107.197 183.304 111.512 183.304C115.345 183.304 118.773 184.22 121.763 186.076C124.757 187.892 127.098 190.539 128.792 193.973L129.205 194.809L118.82 200.886L118.352 199.901C117.594 198.305 116.689 197.176 115.666 196.446L115.657 196.439L115.648 196.432C114.674 195.701 113.326 195.288 111.512 195.288C110.112 195.288 109.169 195.6 108.552 196.093L108.547 196.097C107.949 196.569 107.712 197.081 107.712 197.68C107.712 198.425 108.034 199.113 108.861 199.77C109.768 200.456 111.776 201.308 115.062 202.29L115.071 202.293C116.867 202.848 118.267 203.3 119.264 203.647C120.315 204.013 121.601 204.615 123.11 205.433C124.698 206.229 125.965 207.125 126.846 208.146C127.754 209.107 128.509 210.363 129.134 211.875C129.838 213.431 130.176 215.192 130.176 217.136C130.176 221.677 128.524 225.345 125.195 228.027L125.188 228.032C121.898 230.637 117.65 231.896 112.536 231.896C107.828 231.896 103.81 230.883 100.541 228.795L100.535 228.79ZM128.216 212.272C127.618 210.821 126.914 209.669 126.104 208.816C125.336 207.92 124.184 207.088 122.648 206.32C121.154 205.509 119.917 204.933 118.936 204.592C117.954 204.251 116.568 203.803 114.776 203.248C111.49 202.267 109.314 201.371 108.248 200.56C107.224 199.749 106.712 198.789 106.712 197.68C106.712 196.741 107.117 195.952 107.928 195.312C108.781 194.629 109.976 194.288 111.512 194.288C113.474 194.288 115.053 194.736 116.248 195.632C117.225 196.33 118.074 197.314 118.794 198.583C118.955 198.865 119.108 199.162 119.256 199.472L127.896 194.416C126.274 191.131 124.056 188.635 121.24 186.928C118.424 185.179 115.181 184.304 111.512 184.304C107.416 184.304 103.874 185.541 100.888 188.016C97.9437 190.491 96.4717 193.797 96.4717 197.936C96.4717 199.984 96.8131 201.797 97.4957 203.376C98.2211 204.955 99.2451 206.277 100.568 207.344C101.933 208.368 103.32 209.2 104.728 209.84C106.136 210.48 107.778 211.056 109.656 211.568C113.24 212.549 115.672 213.424 116.952 214.192C118.274 214.917 118.936 215.941 118.936 217.264C118.936 219.696 116.909 220.912 112.856 220.912C108.716 220.912 105.723 219.145 103.879 215.61C103.727 215.32 103.584 215.018 103.448 214.704L94.6157 219.824C95.8957 223.237 98.0504 225.947 101.08 227.952C104.152 229.915 107.97 230.896 112.536 230.896C117.485 230.896 121.496 229.68 124.568 227.248C127.64 224.773 129.176 221.403 129.176 217.136C129.176 215.301 128.856 213.68 128.216 212.272ZM167.77 216.493L167.776 216.487C170.079 214.222 171.253 211.29 171.253 207.6C171.253 203.91 170.079 200.978 167.776 198.713L167.77 198.707C165.495 196.432 162.661 195.288 159.197 195.288C155.734 195.288 152.876 196.431 150.557 198.71C148.295 200.973 147.141 203.906 147.141 207.6C147.141 211.294 148.295 214.227 150.557 216.49C152.876 218.768 155.733 219.912 159.197 219.912C162.661 219.912 165.495 218.768 167.77 216.493ZM149.853 217.2C147.378 214.725 146.141 211.525 146.141 207.6C146.141 203.675 147.378 200.475 149.853 198C152.37 195.525 155.485 194.288 159.197 194.288C162.909 194.288 166.002 195.525 168.477 198C170.994 200.475 172.253 203.675 172.253 207.6C172.253 211.525 170.994 214.725 168.477 217.2C166.002 219.675 162.909 220.912 159.197 220.912C155.485 220.912 152.37 219.675 149.853 217.2ZM176.412 224.886C171.699 229.556 165.94 231.896 159.197 231.896C152.453 231.896 146.695 229.556 141.981 224.886C137.262 220.212 134.901 214.428 134.901 207.6C134.901 200.772 137.262 194.988 141.981 190.314C146.695 185.644 152.453 183.304 159.197 183.304C165.94 183.304 171.699 185.644 176.412 190.314C181.131 194.988 183.493 200.772 183.493 207.6C183.493 214.428 181.131 220.212 176.412 224.886ZM220.298 196.056H203.338V202.696H219.978V214.552H203.338V231H191.098V184.2H220.298V196.056ZM202.338 213.552H218.978V203.696H202.338V195.056H219.298V185.2H192.098V230H202.338V213.552ZM260.268 184.2V196.056H248.748V231H236.508V196.056H224.988V184.2H260.268ZM237.508 195.056V230H247.748V195.056H259.268V185.2H225.988V195.056H237.508ZM292.152 231L289.912 223.96H274.734L272.494 231H259.167L275.079 184.2H289.567L305.479 231H292.152ZM274.003 222.96H290.643L292.883 230H304.083L288.851 185.2H275.795L260.563 230H271.763L274.003 222.96ZM287.571 213.36L282.323 196.912L277.075 213.36H287.571ZM278.444 212.36H286.203L282.323 200.202L278.444 212.36ZM317.571 231L304.668 184.2H317.516L324.53 212.603L332.355 184.2H342.198L350.024 212.603L357.038 184.2H369.886L356.982 231H343.811L337.277 207.326L330.742 231H317.571ZM337.277 203.568L344.573 230H356.221L368.573 185.2H357.821L350.077 216.56L341.437 185.2H333.117L324.477 216.56L316.733 185.2H305.981L318.333 230H329.981L337.277 203.568ZM402.082 231L399.842 223.96H384.664L382.424 231H369.097L385.009 184.2H399.497L415.409 231H402.082ZM383.933 222.96H400.573L402.813 230H414.013L398.781 185.2H385.725L370.493 230H381.693L383.933 222.96ZM397.501 213.36L392.253 196.912L387.005 213.36H397.501ZM388.374 212.36H396.133L392.253 200.202L388.374 212.36ZM444.646 231L436.198 216.28H432.913V231H420.673V184.2H439.593C444.122 184.2 448.004 185.797 451.18 188.973C454.357 192.149 455.953 196.031 455.953 200.56C455.953 203.491 455.125 206.219 453.486 208.724C452.086 210.882 450.278 212.62 448.073 213.931L457.969 231H444.646ZM446.697 213.552C446.996 213.398 447.287 213.236 447.572 213.066C449.644 211.832 451.336 210.202 452.649 208.176C454.185 205.829 454.953 203.291 454.953 200.56C454.953 196.293 453.46 192.667 450.473 189.68C447.487 186.693 443.86 185.2 439.593 185.2H421.673V230H431.913V215.28H436.777L445.225 230H456.233L446.697 213.552ZM442.435 203.985L442.442 203.978C443.283 203.067 443.713 201.95 443.713 200.56C443.713 199.17 443.283 198.052 442.442 197.142L442.435 197.134L442.428 197.127C441.626 196.219 440.698 195.8 439.593 195.8H432.913V205.32H439.593C440.698 205.32 441.626 204.901 442.428 203.993L442.435 203.985ZM431.913 206.32V194.8H439.593C441.001 194.8 442.196 195.355 443.177 196.464C444.201 197.573 444.713 198.939 444.713 200.56C444.713 202.181 444.201 203.547 443.177 204.656C442.196 205.765 441.001 206.32 439.593 206.32H431.913ZM494.048 219.144V231H463.888V184.2H493.728V196.056H476.128V201.48H492.128V213.208H476.128V219.144H494.048ZM475.128 220.144V212.208H491.128V202.48H475.128V195.056H492.728V185.2H464.888V230H493.048V220.144H475.128ZM159.197 230.896C165.682 230.896 171.186 228.656 175.709 224.176C180.231 219.696 182.493 214.171 182.493 207.6C182.493 201.029 180.231 195.504 175.709 191.024C171.186 186.544 165.682 184.304 159.197 184.304C152.711 184.304 147.207 186.544 142.685 191.024C138.162 195.504 135.901 201.029 135.901 207.6C135.901 214.171 138.162 219.696 142.685 224.176C147.207 228.656 152.711 230.896 159.197 230.896Z"
          fill="#E0E1E5"/>
    <path fill-rule="evenodd" clip-rule="evenodd"
          d="M33.6608 155L31.4208 147.96H16.2432L14.0032 155H0.675781L16.5878 108.2H31.0762L46.9882 155H33.6608ZM15.512 146.96H32.152L34.392 154H45.592L30.36 109.2H17.304L2.072 154H13.272L15.512 146.96ZM29.08 137.36L23.832 120.912L18.584 137.36H29.08ZM19.9527 136.36H27.7113L23.832 124.202L19.9527 136.36ZM50.682 108.2H62.922V138.64C62.922 140.545 63.4512 141.799 64.3472 142.597C65.2652 143.415 66.7428 143.912 68.962 143.912C71.1812 143.912 72.6588 143.415 73.5768 142.597C74.4728 141.799 75.002 140.545 75.002 138.64V108.2H87.242V139.536C87.242 144.489 85.5166 148.512 82.028 151.496C78.5726 154.451 74.1899 155.896 68.962 155.896C63.7341 155.896 59.3514 154.451 55.896 151.496C52.4074 148.512 50.682 144.489 50.682 139.536V108.2ZM128.547 108.2V120.056H117.027V155H104.787V120.056H93.267V108.2H128.547ZM105.787 119.056V154H116.027V119.056H127.547V109.2H94.267V119.056H105.787ZM163.256 140.493L163.262 140.487C165.566 138.222 166.739 135.29 166.739 131.6C166.739 127.91 165.566 124.978 163.262 122.713L163.256 122.707C160.981 120.432 158.148 119.288 154.683 119.288C151.22 119.288 148.363 120.431 146.043 122.71C143.782 124.973 142.627 127.906 142.627 131.6C142.627 135.294 143.782 138.227 146.043 140.49C148.363 142.768 151.22 143.912 154.683 143.912C158.148 143.912 160.981 142.768 163.256 140.493ZM145.339 141.2C142.864 138.725 141.627 135.525 141.627 131.6C141.627 127.675 142.864 124.475 145.339 122C147.856 119.525 150.971 118.288 154.683 118.288C158.395 118.288 161.488 119.525 163.963 122C166.48 124.475 167.739 127.675 167.739 131.6C167.739 135.525 166.48 138.725 163.963 141.2C161.488 143.675 158.395 144.912 154.683 144.912C150.971 144.912 147.856 143.675 145.339 141.2ZM171.899 148.886C167.185 153.556 161.426 155.896 154.683 155.896C147.94 155.896 142.181 153.556 137.467 148.886C132.748 144.212 130.387 138.428 130.387 131.6C130.387 124.772 132.748 118.988 137.467 114.314C142.181 109.644 147.94 107.304 154.683 107.304C161.426 107.304 167.185 109.644 171.899 114.314C176.618 118.988 178.979 124.772 178.979 131.6C178.979 138.428 176.618 144.212 171.899 148.886ZM233.385 108.2V155H221.145V131.514L211.122 147.96H208.847L198.825 131.514V155H186.585V108.2H198.385L209.985 127.186L221.584 108.2H233.385ZM209.985 129.104L197.825 109.2H187.585V154H197.825V127.952L209.409 146.96H210.561L222.145 127.952V154H232.385V109.2H222.145L209.985 129.104ZM271.673 155L269.433 147.96H254.256L252.016 155H238.688L254.6 108.2H269.089L285.001 155H271.673ZM253.525 146.96H270.164L272.404 154H283.604L268.372 109.2H255.316L240.085 154H251.285L253.525 146.96ZM267.092 137.36L261.844 120.912L256.597 137.36H267.092ZM257.965 136.36H265.724L261.844 124.202L257.965 136.36ZM319.157 108.2V120.056H307.637V155H295.397V120.056H283.877V108.2H319.157ZM296.397 119.056V154H306.637V119.056H318.157V109.2H284.877V119.056H296.397ZM325.479 108.2H337.719V155H325.479V108.2ZM351.311 152.79L351.304 152.786C348.098 150.664 345.809 147.785 344.456 144.175L344.159 143.383L354.695 137.275L355.142 138.307C355.976 140.234 357.095 141.617 358.471 142.525C359.846 143.433 361.55 143.912 363.632 143.912C365.591 143.912 366.895 143.612 367.677 143.142C368.379 142.722 368.712 142.141 368.712 141.264C368.712 140.365 368.304 139.648 367.247 139.069L367.23 139.059L367.214 139.049C366.065 138.36 363.756 137.515 360.169 136.533C358.252 136.01 356.557 135.417 355.09 134.75C353.61 134.077 352.161 133.207 350.744 132.144L350.73 132.133L350.716 132.122C349.271 130.956 348.152 129.509 347.363 127.793L347.359 127.783L347.354 127.773C346.608 126.047 346.248 124.095 346.248 121.936C346.248 117.528 347.832 113.931 351.021 111.25L351.026 111.246C354.203 108.614 357.973 107.304 362.288 107.304C366.121 107.304 369.549 108.219 372.538 110.075C375.533 111.891 377.874 114.539 379.569 117.973L379.981 118.809L369.596 124.886L369.129 123.901C368.371 122.305 367.465 121.176 366.443 120.446L366.433 120.439L366.424 120.432C365.45 119.701 364.102 119.288 362.288 119.288C360.889 119.288 359.945 119.6 359.329 120.093L359.324 120.097C358.726 120.569 358.488 121.081 358.488 121.68C358.488 122.425 358.811 123.113 359.636 123.769C360.544 124.455 362.551 125.308 365.838 126.29L365.848 126.293C367.643 126.849 369.043 127.3 370.041 127.647C371.091 128.013 372.378 128.615 373.886 129.433C375.475 130.229 376.741 131.125 377.623 132.146C378.53 133.107 379.285 134.362 379.91 135.874C380.614 137.43 380.952 139.191 380.952 141.136C380.952 145.677 379.3 149.345 375.971 152.027L375.965 152.032C372.674 154.637 368.426 155.896 363.312 155.896C358.604 155.896 354.587 154.883 351.318 152.795L351.311 152.79ZM378.992 136.272C378.395 134.821 377.691 133.669 376.88 132.816C376.112 131.92 374.96 131.088 373.424 130.32C371.931 129.509 370.693 128.933 369.712 128.592C368.731 128.251 367.344 127.803 365.552 127.248C362.267 126.267 360.091 125.371 359.024 124.56C358 123.749 357.488 122.789 357.488 121.68C357.488 120.741 357.893 119.952 358.704 119.312C359.557 118.629 360.752 118.288 362.288 118.288C364.251 118.288 365.829 118.736 367.024 119.632C368.001 120.33 368.85 121.314 369.571 122.583C369.731 122.865 369.885 123.162 370.032 123.472L378.672 118.416C377.051 115.131 374.832 112.635 372.016 110.928C369.2 109.179 365.957 108.304 362.288 108.304C358.192 108.304 354.651 109.541 351.664 112.016C348.72 114.491 347.248 117.797 347.248 121.936C347.248 123.984 347.589 125.797 348.272 127.376C348.997 128.955 350.021 130.277 351.344 131.344C352.709 132.368 354.096 133.2 355.504 133.84C356.912 134.48 358.555 135.056 360.432 135.568C364.016 136.549 366.448 137.424 367.728 138.192C369.051 138.917 369.712 139.941 369.712 141.264C369.712 143.696 367.685 144.912 363.632 144.912C359.492 144.912 356.499 143.145 354.655 139.61C354.504 139.32 354.36 139.018 354.224 138.704L345.392 143.824C346.672 147.237 348.827 149.947 351.856 151.952C354.928 153.915 358.747 154.896 363.312 154.896C368.261 154.896 372.272 153.68 375.344 151.248C378.416 148.773 379.952 145.403 379.952 141.136C379.952 139.301 379.632 137.68 378.992 136.272ZM416.033 155L413.793 147.96H398.616L396.376 155H383.048L398.96 108.2H413.449L429.361 155H416.033ZM397.884 146.96H414.524L416.764 154H427.964L412.732 109.2H399.676L384.444 154H395.645L397.884 146.96ZM411.452 137.36L406.204 120.912L400.956 137.36H411.452ZM402.325 136.36H410.084L406.204 124.202L402.325 136.36ZM463.517 108.2V120.056H451.997V155H439.757V120.056H428.237V108.2H463.517ZM440.757 119.056V154H450.997V119.056H462.517V109.2H429.237V119.056H440.757ZM469.839 108.2H482.079V155H469.839V108.2ZM504.649 141.2C502.174 138.725 500.937 135.525 500.937 131.6C500.937 127.675 502.174 124.475 504.649 122C507.166 119.525 510.281 118.288 513.993 118.288C517.705 118.288 520.798 119.525 523.273 122C525.79 124.475 527.049 127.675 527.049 131.6C527.049 135.525 525.79 138.725 523.273 141.2M505.353 122.71C503.092 124.973 501.937 127.906 501.937 131.6C501.937 135.294 503.091 138.227 505.353 140.49C507.672 142.768 510.53 143.912 513.993 143.912C517.458 143.912 520.291 142.768 522.566 140.493L522.572 140.487C524.876 138.222 526.049 135.29 526.049 131.6C526.049 127.91 524.876 124.978 522.572 122.713L522.566 122.707C520.291 120.432 517.458 119.288 513.993 119.288C510.53 119.288 507.673 120.431 505.353 122.71ZM531.209 148.886C526.495 153.556 520.736 155.896 513.993 155.896C507.25 155.896 501.491 153.556 496.777 148.886C492.058 144.212 489.697 138.428 489.697 131.6C489.697 124.772 492.058 118.988 496.777 114.314C501.491 109.644 507.25 107.304 513.993 107.304C520.736 107.304 526.495 109.644 531.209 114.314C535.928 118.988 538.289 124.772 538.289 131.6C538.289 138.428 535.928 144.212 531.209 148.886ZM570.854 108.2H583.094V155H573.898L558.134 132.814V155H545.894V108.2H555.091L570.854 130.386V108.2ZM571.854 133.52L554.574 109.2H546.894V154H557.134V129.68L574.414 154H582.094V109.2H571.854V133.52ZM68.962 154.896C73.9967 154.896 78.1353 153.509 81.378 150.736C84.6207 147.963 86.242 144.229 86.242 139.536V109.2H76.002V138.64C76.002 142.821 73.6553 144.912 68.962 144.912C64.2687 144.912 61.922 142.821 61.922 138.64V109.2H51.682V139.536C51.682 144.229 53.3033 147.963 56.546 150.736C59.7887 153.509 63.9273 154.896 68.962 154.896ZM154.683 154.896C161.168 154.896 166.672 152.656 171.195 148.176C175.718 143.696 177.979 138.171 177.979 131.6C177.979 125.029 175.718 119.504 171.195 115.024C166.672 110.544 161.168 108.304 154.683 108.304C148.198 108.304 142.694 110.544 138.171 115.024C133.648 119.504 131.387 125.029 131.387 131.6C131.387 138.171 133.648 143.696 138.171 148.176C142.694 152.656 148.198 154.896 154.683 154.896ZM326.479 109.2V154H336.719V109.2H326.479ZM470.839 109.2V154H481.079V109.2H470.839ZM513.993 154.896C520.478 154.896 525.982 152.656 530.505 148.176C535.028 143.696 537.289 138.171 537.289 131.6C537.289 125.029 535.028 119.504 530.505 115.024C525.982 110.544 520.478 108.304 513.993 108.304C507.508 108.304 502.004 110.544 497.481 115.024C492.958 119.504 490.697 125.029 490.697 131.6C490.697 138.171 492.958 143.696 497.481 148.176C502.004 152.656 507.508 154.896 513.993 154.896Z"
          fill="#E0E1E5"/>
</svg>
