<?xml version="1.0" encoding="utf-8"?>
<!-- Generator: Adobe Illustrator 24.0.2, SVG Export Plug-In . SVG Version: 6.00 Build 0)  -->
<svg version="1.1" id="Слой_1" xmlns="http://www.w3.org/2000/svg" xmlns:xlink="http://www.w3.org/1999/xlink" x="0px" y="0px"
	 viewBox="0 0 28 28" style="enable-background:new 0 0 28 28;" xml:space="preserve">
<style type="text/css">
	.st0{clip-path:url(#SVGID_2_);}
	.st1{fill:#FFFFFF;}
</style>
<g>
	<defs>
		<rect id="SVGID_1_" y="0" width="28" height="28"/>
	</defs>
	<clipPath id="SVGID_2_">
		<use xlink:href="#SVGID_1_"  style="overflow:visible;"/>
	</clipPath>
	<g class="st0">
		<g>
			<path class="st1" d="M21,25.5H7c-0.9,0-1.7-0.3-2.4-1c-0.6-0.6-1-1.5-1-2.4v-2.3c0-0.6,0.4-1,1-1s1,0.4,1,1v2.3
				c0,0.4,0.1,0.7,0.4,0.9c0.3,0.3,0.6,0.4,0.9,0.4h14c0.4,0,0.7-0.1,0.9-0.4s0.4-0.6,0.4-0.9v-2.3c0-0.6,0.4-1,1-1s1,0.4,1,1v2.3
				c0,0.9-0.4,1.7-1,2.4C22.7,25.2,21.9,25.5,21,25.5z"/>
		</g>
		<g>
			<path class="st1" d="M14,19.7c-0.3,0-0.5-0.1-0.7-0.3l-5.8-5.8c-0.4-0.4-0.4-1,0-1.4s1-0.4,1.4,0l5.1,5.1l5.1-5.1
				c0.4-0.4,1-0.4,1.4,0s0.4,1,0,1.4l-5.8,5.8C14.5,19.6,14.3,19.7,14,19.7z"/>
		</g>
		<g>
			<path class="st1" d="M14,19.7c-0.6,0-1-0.4-1-1v-14c0-0.6,0.4-1,1-1s1,0.4,1,1v14C15,19.2,14.6,19.7,14,19.7z"/>
		</g>
	</g>
</g>
</svg>
