<svg width="154" height="28" viewBox="0 0 154 28" fill="none" xmlns="http://www.w3.org/2000/svg">
    <g clip-path="url(#clip0_150_1527)">
        <path
            d="M37.7422 16.2602V3.73711C37.7422 3.14078 38.2227 2.65625 38.8142 2.65625H51.6506C52.2421 2.65625 52.7226 3.14078 52.7226 3.73711C52.7226 4.33345 52.2421 4.81798 51.6506 4.81798H40.4962V8.48919H51.0314C51.6229 8.48919 52.1034 8.97372 52.1034 9.57006C52.1034 10.1664 51.6229 10.6509 51.0314 10.6509H40.4962V15.1607H51.6599C52.2513 15.1607 52.7319 15.6453 52.7319 16.2416C52.7319 16.8379 52.2513 17.3225 51.6599 17.3225H38.8142C38.2227 17.3504 37.7422 16.8566 37.7422 16.2602Z"
            fill="white"/>
        <path
            d="M56.733 16.2593C56.733 15.663 57.2136 15.1692 57.805 15.1692H69.4031C70.6137 15.1692 71.2237 14.7126 71.2237 13.8088V11.9545C71.2237 11.0507 70.6137 10.5941 69.4031 10.5941H60.8363C60.0045 10.5941 59.3022 10.5103 58.72 10.3332C58.1377 10.1562 57.6664 9.91392 57.306 9.60644C56.9363 9.28963 56.6776 8.91692 56.5112 8.4883C56.3449 8.05968 56.2617 7.57516 56.2617 7.04404V6.1868C56.2617 5.65569 56.3449 5.18048 56.5112 4.74254C56.6776 4.31392 56.9456 3.94121 57.306 3.62441C57.6757 3.3076 58.147 3.06534 58.72 2.89762C59.2929 2.7299 60.0045 2.63672 60.8363 2.63672H72.1016C72.6931 2.63672 73.1736 3.12124 73.1736 3.71758C73.1736 4.31392 72.6931 4.79845 72.1016 4.79845H60.8363C59.6256 4.79845 59.0157 5.25502 59.0157 6.15885V7.05336C59.0157 7.95719 59.6256 8.41376 60.8363 8.41376H69.4031C70.2348 8.41376 70.9372 8.49762 71.5194 8.67466C72.1016 8.8517 72.5729 9.09396 72.9333 9.40145C73.303 9.71825 73.5618 10.091 73.7281 10.5196C73.8945 10.9482 73.9776 11.4327 73.9776 11.9638V13.7808C73.9776 14.3119 73.8945 14.7871 73.7281 15.2251C73.5618 15.6537 73.2938 16.0264 72.9333 16.3432C72.5637 16.66 72.0924 16.9023 71.5194 17.07C70.9372 17.247 70.2348 17.3309 69.4031 17.3309H57.8143C57.2136 17.3495 56.733 16.8557 56.733 16.2593Z"
            fill="white"/>
        <path
            d="M79.9205 11.2939V16.2602C79.9205 16.8566 79.4399 17.3411 78.8485 17.3411H78.2478C77.6563 17.3411 77.1758 16.8566 77.1758 16.2602V3.73712C77.1758 3.14078 77.6563 2.65625 78.2478 2.65625H91.0842C91.6756 2.65625 92.1562 3.14078 92.1562 3.73712C92.1562 4.33345 91.6756 4.81798 91.0842 4.81798H79.9205V9.12281H90.2524C90.8439 9.12281 91.3245 9.60733 91.3245 10.2037C91.3245 10.8 90.8439 11.2845 90.2524 11.2845H79.9205V11.2939Z"
            fill="white"/>
        <path
            d="M94.3906 16.2602V3.73711C94.3906 3.14078 94.8712 2.65625 95.4626 2.65625H96.0633C96.6548 2.65625 97.1353 3.14078 97.1353 3.73711V16.2602C97.1353 16.8566 96.6548 17.3411 96.0633 17.3411H95.4626C94.8712 17.3504 94.3906 16.8566 94.3906 16.2602Z"
            fill="white"/>
        <path
            d="M111.018 16.7634L107.968 10.7907H102.257V16.2602C102.257 16.8566 101.786 17.3411 101.204 17.3411H100.612C100.03 17.3411 99.5586 16.8566 99.5586 16.2602V3.73711C99.5586 3.14078 100.03 2.65625 100.612 2.65625H109.881C110.695 2.65625 111.378 2.74011 111.951 2.91715C112.515 3.09419 112.977 3.33645 113.338 3.64394C113.698 3.96074 113.957 4.33345 114.114 4.76207C114.28 5.19069 114.354 5.67522 114.354 6.20633V7.24993C114.354 8.20034 114.086 8.98304 113.541 9.61665C113.005 10.2503 112.099 10.6323 110.824 10.7534L113.375 15.7571C113.744 16.4839 113.236 17.3504 112.441 17.3504H111.942C111.563 17.3504 111.203 17.1268 111.018 16.7634ZM111.656 6.17838C111.656 5.27455 111.064 4.81798 109.872 4.81798H102.257V8.61964H109.872C111.064 8.61964 111.656 8.16307 111.656 7.25924V6.17838Z"
            fill="white"/>
        <path
            d="M121.293 17.2567C120.48 17.2567 119.796 17.1728 119.223 16.9958C118.659 16.8187 118.197 16.5765 117.837 16.269C117.476 15.9522 117.218 15.5795 117.061 15.1509C116.894 14.7222 116.82 14.2377 116.82 13.7066V3.64336C116.82 3.04703 117.292 2.5625 117.874 2.5625H118.465C119.048 2.5625 119.519 3.04703 119.519 3.64336V13.7252C119.519 14.6291 120.11 15.0856 121.302 15.0856H129.611C130.803 15.0856 131.394 14.6291 131.394 13.7252V3.64336C131.394 3.04703 131.865 2.5625 132.448 2.5625H133.039C133.621 2.5625 134.093 3.04703 134.093 3.64336V13.7066C134.093 14.2377 134.046 14.7129 133.945 15.1509C133.843 15.5795 133.649 15.9522 133.353 16.269C133.067 16.5858 132.66 16.8281 132.161 16.9958C131.653 17.1728 130.997 17.2567 130.183 17.2567H121.293Z"
            fill="white"/>
        <path
            d="M151.505 16.1665V6.9605L146.746 16.8001C146.552 17.0796 146.228 17.2474 145.896 17.2474H144.759C144.426 17.2474 144.103 17.0796 143.909 16.8001L139.214 6.97914V16.1665C139.214 16.7628 138.743 17.2474 138.16 17.2474H137.772C137.19 17.2474 136.719 16.7628 136.719 16.1665V3.64337C136.719 3.04703 137.19 2.5625 137.772 2.5625H138.733C139.038 2.5625 139.316 2.73954 139.463 3.00975L145.433 14.5638L151.45 3.00975C151.598 2.73022 151.875 2.5625 152.18 2.5625H152.938C153.52 2.5625 153.991 3.04703 153.991 3.64337V16.1665C153.991 16.7628 153.52 17.2474 152.938 17.2474H152.559C151.976 17.2567 151.505 16.7628 151.505 16.1665Z"
            fill="white"/>
        <path
            d="M11.8655 28.001C13.8407 28.001 15.442 26.3866 15.442 24.395C15.442 22.4035 13.8407 20.7891 11.8655 20.7891C9.89029 20.7891 8.28906 22.4035 8.28906 24.395C8.28906 26.3866 9.89029 28.001 11.8655 28.001Z"
            fill="white"/>
        <path
            d="M19.7874 17.8526C21.7626 17.8526 23.3638 16.2381 23.3638 14.2466C23.3638 12.2551 21.7626 10.6406 19.7874 10.6406C17.8122 10.6406 16.2109 12.2551 16.2109 14.2466C16.2109 16.2381 17.8122 17.8526 19.7874 17.8526Z"
            fill="white"/>
        <path
            d="M3.57645 17.8526C5.55167 17.8526 7.1529 16.2381 7.1529 14.2466C7.1529 12.2551 5.55167 10.6406 3.57645 10.6406C1.60123 10.6406 0 12.2551 0 14.2466C0 16.2381 1.60123 17.8526 3.57645 17.8526Z"
            fill="white"/>
        <path
            d="M19.7874 7.21198C21.7626 7.21198 23.3638 5.59752 23.3638 3.60599C23.3638 1.61446 21.7626 0 19.7874 0C17.8122 0 16.2109 1.61446 16.2109 3.60599C16.2109 5.59752 17.8122 7.21198 19.7874 7.21198Z"
            fill="white"/>
        <path
            d="M3.57645 7.21198C5.55167 7.21198 7.1529 5.59752 7.1529 3.60599C7.1529 1.61446 5.55167 0 3.57645 0C1.60123 0 0 1.61446 0 3.60599C0 5.59752 1.60123 7.21198 3.57645 7.21198Z"
            fill="white"/>
        <g opacity="0.4">
            <path
                d="M41.0664 23.1828C41.205 23.3599 41.2789 23.5928 41.2789 23.863C41.2789 24.2264 41.1403 24.5153 40.863 24.711C40.5858 24.9066 40.1884 25.0091 39.6617 25.0091H37.6562V20.7695H39.5508C40.0313 20.7695 40.401 20.8627 40.669 21.0584C40.9277 21.2541 41.0664 21.5243 41.0664 21.8597C41.0664 22.0833 41.0109 22.2697 40.9093 22.4374C40.8076 22.5958 40.669 22.7263 40.4934 22.8101C40.7337 22.8754 40.9277 23.0058 41.0664 23.1828ZM38.2662 21.2634V22.6238H39.4953C39.8003 22.6238 40.0406 22.5679 40.2069 22.4467C40.3732 22.3349 40.4564 22.1672 40.4564 21.9436C40.4564 21.7199 40.3732 21.5522 40.2069 21.4404C40.0406 21.3286 39.8003 21.2634 39.4953 21.2634H38.2662ZM40.4102 24.3476C40.5858 24.2358 40.669 24.0587 40.669 23.8165C40.669 23.3413 40.327 23.1083 39.6432 23.1083H38.2662V24.5153H39.6432C39.9851 24.5153 40.2439 24.4594 40.4102 24.3476Z"
                fill="white"/>
            <path
                d="M47.0575 24.478V25.0091H44.0078V20.7695H46.9743V21.3006H44.6085V22.6051H46.7156V23.1176H44.6085V24.4873H47.0575V24.478Z"
                fill="white"/>
            <path
                d="M51.397 23.5462V25.0091H50.8055V23.5276L49.1328 20.7695H49.7797L51.129 23.0058L52.4782 20.7695H53.0697L51.397 23.5462Z"
                fill="white"/>
            <path
                d="M56.0372 24.7744C55.6953 24.588 55.4273 24.3271 55.2332 24.001C55.0392 23.6656 54.9375 23.3022 54.9375 22.8922C54.9375 22.4822 55.0299 22.1188 55.2332 21.7834C55.4273 21.4479 55.6953 21.1964 56.0372 21.01C56.3792 20.8236 56.7581 20.7305 57.1832 20.7305C57.599 20.7305 57.9872 20.8236 58.3199 21.01C58.6618 21.1964 58.9298 21.4573 59.1147 21.7834C59.3087 22.1095 59.4011 22.4822 59.4011 22.8922C59.4011 23.3022 59.3087 23.6749 59.1147 24.001C58.9206 24.3271 58.6526 24.588 58.3199 24.7744C57.9779 24.9608 57.599 25.0539 57.1832 25.0539C56.7673 25.0539 56.3792 24.9608 56.0372 24.7744ZM58.0242 24.3085C58.2737 24.1687 58.4677 23.9731 58.6064 23.7215C58.745 23.4699 58.8189 23.1997 58.8189 22.8922C58.8189 22.5847 58.745 22.3052 58.6064 22.0629C58.4677 21.8113 58.2737 21.6157 58.0242 21.4759C57.7746 21.3361 57.4974 21.2616 57.1924 21.2616C56.8875 21.2616 56.601 21.3361 56.3514 21.4759C56.1019 21.6157 55.9079 21.8113 55.76 22.0629C55.6214 22.3145 55.5474 22.5847 55.5474 22.8922C55.5474 23.1997 55.6214 23.4792 55.76 23.7215C55.8986 23.9731 56.1019 24.1687 56.3514 24.3085C56.601 24.4483 56.8782 24.5228 57.1924 24.5228C57.4974 24.5135 57.7746 24.4483 58.0242 24.3085Z"
                fill="white"/>
            <path
                d="M65.7501 20.7695V25.0091H65.2603L62.7374 21.8504V25.0091H62.1367V20.7695H62.6265L65.1494 23.9283V20.7695H65.7501Z"
                fill="white"/>
            <path
                d="M68.8125 20.7695H70.5869C71.0305 20.7695 71.4278 20.8627 71.7698 21.0397C72.1117 21.2168 72.3797 21.4684 72.5738 21.7852C72.7679 22.102 72.8603 22.4747 72.8603 22.894C72.8603 23.3133 72.7679 23.6767 72.5738 24.0028C72.3797 24.3196 72.121 24.5712 71.7698 24.7482C71.4278 24.9253 71.0305 25.0185 70.5869 25.0185H68.8125V20.7695ZM70.5499 24.478C70.8918 24.478 71.1876 24.4128 71.4463 24.2823C71.7051 24.1519 71.8992 23.9655 72.047 23.7233C72.1856 23.481 72.2596 23.2015 72.2596 22.894C72.2596 22.5772 72.1856 22.2977 72.047 22.0647C71.9084 21.8224 71.7051 21.6361 71.4463 21.5056C71.1876 21.3752 70.8918 21.31 70.5499 21.31H69.4132V24.4967H70.5499V24.478Z"
                fill="white"/>
            <path d="M79.8245 21.3006H78.3828V20.7695H81.8576V21.3006H80.416V25.0091H79.8245V21.3006Z" fill="white"/>
            <path
                d="M87.9298 20.7695V25.0091H87.3291V23.1176H84.9171V25.0091H84.3164V20.7695H84.9171V22.5958H87.3291V20.7695H87.9298Z"
                fill="white"/>
            <path
                d="M94.0497 24.478V25.0091H91V20.7695H93.9665V21.3006H91.6007V22.6051H93.7077V23.1176H91.6007V24.4873H94.0497V24.478Z"
                fill="white"/>
            <path d="M100.23 20.7695H100.831V25.0091H100.23V20.7695Z" fill="white"/>
            <path
                d="M107.801 25.0091L107.792 21.9249L106.276 24.4967H105.999L104.483 21.9436V25.0091H103.91V20.7695H104.4L106.156 23.7512L107.884 20.7695H108.374L108.383 25.0091H107.801Z"
                fill="white"/>
            <path
                d="M114.358 21.1604C114.672 21.4213 114.829 21.7847 114.829 22.2413C114.829 22.6979 114.672 23.0613 114.358 23.3222C114.044 23.5831 113.618 23.7135 113.073 23.7135H112.038V24.9994H111.438V20.7598H113.073C113.618 20.7691 114.044 20.8995 114.358 21.1604ZM113.923 22.9494C114.127 22.7817 114.219 22.5488 114.219 22.2413C114.219 21.9338 114.118 21.7009 113.923 21.5331C113.72 21.3654 113.434 21.2909 113.055 21.2909H112.038V23.201H113.055C113.434 23.201 113.72 23.1172 113.923 22.9494Z"
                fill="white"/>
            <path
                d="M118.318 24.7744C117.977 24.588 117.709 24.3271 117.514 24.001C117.32 23.6656 117.219 23.3022 117.219 22.8922C117.219 22.4822 117.311 22.1188 117.514 21.7834C117.709 21.4479 117.977 21.1964 118.318 21.01C118.66 20.8236 119.039 20.7305 119.464 20.7305C119.88 20.7305 120.268 20.8236 120.601 21.01C120.943 21.1964 121.211 21.4573 121.396 21.7834C121.59 22.1095 121.682 22.4822 121.682 22.8922C121.682 23.3022 121.59 23.6749 121.396 24.001C121.202 24.3271 120.934 24.588 120.601 24.7744C120.259 24.9608 119.88 25.0539 119.464 25.0539C119.049 25.0539 118.66 24.9608 118.318 24.7744ZM120.305 24.3085C120.555 24.1687 120.749 23.9731 120.888 23.7215C121.026 23.4699 121.1 23.1997 121.1 22.8922C121.1 22.5847 121.026 22.3052 120.888 22.0629C120.749 21.8113 120.555 21.6157 120.305 21.4759C120.056 21.3361 119.779 21.2616 119.474 21.2616C119.169 21.2616 118.882 21.3361 118.633 21.4759C118.383 21.6157 118.189 21.8113 118.041 22.0629C117.903 22.3145 117.829 22.5847 117.829 22.8922C117.829 23.1997 117.903 23.4792 118.041 23.7215C118.18 23.9731 118.383 24.1687 118.633 24.3085C118.882 24.4483 119.159 24.5228 119.474 24.5228C119.779 24.5135 120.056 24.4483 120.305 24.3085Z"
                fill="white"/>
            <path
                d="M124.72 24.9059C124.425 24.8034 124.194 24.6823 124.027 24.5239L124.249 24.0487C124.406 24.1977 124.619 24.3096 124.868 24.4027C125.118 24.4959 125.377 24.5425 125.635 24.5425C125.987 24.5425 126.245 24.4866 126.412 24.3655C126.587 24.2443 126.67 24.0859 126.67 23.8903C126.67 23.7412 126.624 23.6294 126.532 23.5362C126.439 23.443 126.319 23.3778 126.181 23.3312C126.042 23.2846 125.848 23.2287 125.598 23.1635C125.284 23.0889 125.025 23.0144 124.831 22.9305C124.637 22.856 124.471 22.7349 124.332 22.5765C124.194 22.418 124.129 22.2037 124.129 21.9335C124.129 21.7099 124.184 21.5049 124.305 21.3185C124.425 21.1415 124.6 20.9924 124.841 20.8806C125.081 20.7688 125.377 20.7129 125.737 20.7129C125.987 20.7129 126.227 20.7408 126.467 20.8061C126.707 20.8713 126.911 20.9645 127.086 21.0856L126.892 21.5701C126.717 21.4583 126.532 21.3745 126.328 21.3092C126.125 21.2533 125.931 21.2254 125.737 21.2254C125.395 21.2254 125.146 21.2906 124.97 21.4117C124.804 21.5329 124.711 21.7006 124.711 21.8963C124.711 22.0453 124.757 22.1571 124.859 22.2503C124.951 22.3435 125.072 22.4087 125.219 22.4646C125.358 22.5112 125.552 22.5671 125.802 22.623C126.116 22.6976 126.375 22.7721 126.569 22.856C126.763 22.9305 126.929 23.0517 127.068 23.2101C127.206 23.3685 127.271 23.5828 127.271 23.8437C127.271 24.0673 127.216 24.2723 127.096 24.4493C126.975 24.6357 126.791 24.7755 126.55 24.8873C126.31 24.9898 126.005 25.0457 125.654 25.0457C125.321 25.055 125.016 25.0084 124.72 24.9059Z"
                fill="white"/>
            <path
                d="M130.256 24.9059C129.96 24.8034 129.729 24.6823 129.562 24.5239L129.784 24.0487C129.941 24.1977 130.154 24.3096 130.403 24.4027C130.653 24.4959 130.912 24.5425 131.171 24.5425C131.522 24.5425 131.78 24.4866 131.947 24.3655C132.122 24.2443 132.206 24.0859 132.206 23.8903C132.206 23.7412 132.159 23.6294 132.067 23.5362C131.975 23.443 131.854 23.3778 131.716 23.3312C131.577 23.2846 131.383 23.2287 131.134 23.1635C130.819 23.0889 130.561 23.0144 130.367 22.9305C130.172 22.856 130.006 22.7349 129.867 22.5765C129.729 22.418 129.664 22.2037 129.664 21.9335C129.664 21.7099 129.72 21.5049 129.84 21.3185C129.96 21.1415 130.135 20.9924 130.376 20.8806C130.616 20.7688 130.912 20.7129 131.272 20.7129C131.522 20.7129 131.762 20.7408 132.002 20.8061C132.243 20.8713 132.446 20.9645 132.621 21.0856L132.427 21.5701C132.252 21.4583 132.067 21.3745 131.864 21.3092C131.66 21.2533 131.466 21.2254 131.272 21.2254C130.93 21.2254 130.681 21.2906 130.505 21.4117C130.339 21.5329 130.246 21.7006 130.246 21.8963C130.246 22.0453 130.293 22.1571 130.394 22.2503C130.487 22.3435 130.607 22.4087 130.755 22.4646C130.893 22.5112 131.087 22.5671 131.337 22.623C131.651 22.6976 131.91 22.7721 132.104 22.856C132.298 22.9305 132.464 23.0517 132.603 23.2101C132.742 23.3685 132.806 23.5828 132.806 23.8437C132.806 24.0673 132.751 24.2723 132.631 24.4493C132.511 24.6357 132.326 24.7755 132.085 24.8873C131.845 24.9898 131.54 25.0457 131.189 25.0457C130.856 25.055 130.551 25.0084 130.256 24.9059Z"
                fill="white"/>
            <path d="M135.477 20.7695H136.077V25.0091H135.477V20.7695Z" fill="white"/>
            <path
                d="M142.547 23.1828C142.685 23.3599 142.759 23.5928 142.759 23.863C142.759 24.2264 142.621 24.5153 142.344 24.711C142.066 24.9066 141.669 25.0091 141.142 25.0091H139.137V20.7695H141.022C141.503 20.7695 141.872 20.8627 142.14 21.0584C142.399 21.2541 142.538 21.5243 142.538 21.8597C142.538 22.0833 142.482 22.2697 142.38 22.4374C142.279 22.5958 142.14 22.7263 141.965 22.8101C142.214 22.8754 142.399 23.0058 142.547 23.1828ZM139.737 21.2634V22.6238H140.967C141.272 22.6238 141.512 22.5679 141.678 22.4467C141.844 22.3349 141.928 22.1672 141.928 21.9436C141.928 21.7199 141.844 21.5522 141.678 21.4404C141.512 21.3286 141.272 21.2634 140.967 21.2634H139.737ZM141.891 24.3476C142.066 24.2358 142.149 24.0587 142.149 23.8165C142.149 23.3413 141.808 23.1083 141.124 23.1083H139.747V24.5153H141.124C141.456 24.5153 141.715 24.4594 141.891 24.3476Z"
                fill="white"/>
            <path d="M145.484 20.7695H146.085V24.478H148.358V25.0091H145.484V20.7695Z" fill="white"/>
            <path
                d="M153.905 24.478V25.0091H150.855V20.7695H153.822V21.3006H151.456V22.6051H153.563V23.1176H151.456V24.4873H153.905V24.478Z"
                fill="white"/>
        </g>
    </g>
    <defs>
        <clipPath id="clip0_150_1527">
            <rect width="154" height="28" fill="white"/>
        </clipPath>
    </defs>
</svg>
