<?xml version="1.0" encoding="utf-8"?>
<!-- Generator: Adobe Illustrator 24.0.2, SVG Export Plug-In . SVG Version: 6.00 Build 0)  -->
<svg version="1.1" id="Слой_1" xmlns="http://www.w3.org/2000/svg" xmlns:xlink="http://www.w3.org/1999/xlink" x="0px" y="0px"
	 viewBox="0 0 64 64" style="enable-background:new 0 0 64 64;" xml:space="preserve">
<style type="text/css">
	.st0{clip-path:url(#SVGID_2_);}
	.st1{fill:#FFFFFF;}
</style>
<g>
	<defs>
		<rect id="SVGID_1_" y="0" width="64" height="64"/>
	</defs>
	<clipPath id="SVGID_2_">
		<use xlink:href="#SVGID_1_"  style="overflow:visible;"/>
	</clipPath>
	<g class="st0">
		<g>
			<path class="st1" d="M8,54.7c-0.4,0-0.8-0.2-1-0.5c-0.3-0.4-0.4-0.9-0.3-1.4l3.3-9.8C7,38.5,6,33.1,7.1,27.9
				c1.1-5.4,4.4-10.3,9.2-13.7c4.8-3.4,10.8-5.1,16.9-4.9c6.1,0.2,11.9,2.5,16.4,6.2c4.5,3.8,7.2,8.9,7.8,14.5
				c0.5,5.5-1.2,11-4.9,15.5c-3.6,4.4-8.9,7.5-14.9,8.7c-5.8,1.1-11.9,0.4-17.2-2L8.3,54.7C8.2,54.7,8.1,54.7,8,54.7z M20.5,49.3
				c0.2,0,0.4,0,0.6,0.1c4.8,2.3,10.5,3.1,15.9,2c5.4-1.1,10.1-3.8,13.3-7.7c3.2-3.9,4.7-8.7,4.2-13.4c-0.5-4.8-2.9-9.3-6.8-12.6
				c-4-3.4-9.2-5.4-14.7-5.6c-5.5-0.2-10.9,1.3-15.2,4.4c-4.3,3-7.1,7.3-8.1,12c-1,4.7,0.1,9.6,2.8,13.7c0.2,0.4,0.3,0.8,0.2,1.2
				l-2.7,8.1l10.2-2.2C20.3,49.3,20.4,49.3,20.5,49.3z"/>
		</g>
		<g>
			<path class="st1" d="M32,33.4c-0.8,0-1.4-0.6-1.4-1.4s0.6-1.4,1.4-1.4s1.4,0.6,1.4,1.4v0C33.4,32.8,32.8,33.4,32,33.4z"/>
		</g>
		<g>
			<path class="st1" d="M21.3,33.4c-0.8,0-1.4-0.6-1.4-1.4s0.6-1.4,1.4-1.4s1.4,0.6,1.4,1.4v0C22.7,32.8,22.1,33.4,21.3,33.4z"/>
		</g>
		<g>
			<path class="st1" d="M42.7,33.4c-0.8,0-1.4-0.6-1.4-1.4s0.6-1.4,1.4-1.4S44,31.2,44,32v0C44,32.8,43.4,33.4,42.7,33.4z"/>
		</g>
	</g>
</g>
</svg>
