<?xml version="1.0" encoding="utf-8"?>
<!-- Generator: Adobe Illustrator 24.0.2, SVG Export Plug-In . SVG Version: 6.00 Build 0)  -->
<svg version="1.1" id="Слой_1" xmlns="http://www.w3.org/2000/svg" xmlns:xlink="http://www.w3.org/1999/xlink" x="0px"
     y="0px"
     viewBox="0 0 19 19" style="enable-background:new 0 0 19 19;" xml:space="preserve" fill="#fff">

<g>
	<path d="M18,4.5H1c-0.6,0-1-0.4-1-1s0.4-1,1-1h17c0.6,0,1,0.4,1,1S18.6,4.5,18,4.5z M1,3l0,0.5c0,0,0,0,0,0V3z"/>
</g>
    <g>
	<path d="M18,10.5H1c-0.6,0-1-0.4-1-1s0.4-1,1-1h17c0.6,0,1,0.4,1,1S18.6,10.5,18,10.5z M1,9l0,0.5c0,0,0,0,0,0V9z"/>
</g>
    <g>
	<circle class="st0" cx="7" cy="9.5" r="2.3"/>
        <path d="M7,12.5c-1.7,0-3-1.3-3-3s1.3-3,3-3s3,1.3,3,3S8.7,12.5,7,12.5z M7,8C6.2,8,5.5,8.7,5.5,9.5S6.2,11,7,11s1.5-0.7,1.5-1.5
		S7.8,8,7,8z"/>
</g>
    <g>
	<circle class="st0" cx="15" cy="3.5" r="2.3"/>
        <path d="M15,6.5c-1.7,0-3-1.3-3-3s1.3-3,3-3s3,1.3,3,3S16.7,6.5,15,6.5z M15,2c-0.8,0-1.5,0.7-1.5,1.5S14.2,5,15,5s1.5-0.7,1.5-1.5
		S15.8,2,15,2z"/>
</g>
    <g>
	<path
        d="M18,17H1c-0.6,0-1-0.4-1-1c0-0.6,0.4-1,1-1h17c0.6,0,1,0.4,1,1C19,16.6,18.6,17,18,17z M1,15.5L1,16c0,0,0,0,0,0V15.5z"/>
</g>
    <g>
	<circle class="st0" cx="15" cy="16" r="2.3"/>
        <path d="M15,19c-1.7,0-3-1.3-3-3s1.3-3,3-3s3,1.3,3,3S16.7,19,15,19z M15,14.5c-0.8,0-1.5,0.7-1.5,1.5c0,0.8,0.7,1.5,1.5,1.5
		s1.5-0.7,1.5-1.5C16.5,15.2,15.8,14.5,15,14.5z"/>
</g>
</svg>
