<svg width="160" height="112" viewBox="0 0 160 112" fill="none" xmlns="http://www.w3.org/2000/svg">
    <rect x="48" y="28.9958" width="72.1055" height="72.1055" rx="8" transform="rotate(-22.3216 48 28.9958)"
          fill="url(#paint0_linear_150_1563)"/>
    <g filter="url(#filter0_bi_150_1563)">
        <rect x="17.1426" y="20.5712" width="102.857" height="91.4286" rx="10.4348" fill="#C3B5E1" fill-opacity="0.3"/>
    </g>
    <path
        d="M46.281 66.3061C48.8489 67.8038 50.1328 70.0644 50.1328 73.0879C50.1328 75.6028 49.2536 77.6656 47.4952 79.2763C45.7368 80.887 43.5736 81.6923 41.0058 81.6923H28.5713V52.022H40.1266C42.6386 52.022 44.7459 52.8132 46.4485 54.3956C48.179 55.9498 49.0443 57.9419 49.0443 60.3721C49.0443 62.8305 48.1232 64.8085 46.281 66.3061ZM40.1266 57.4898H34.3489V64.0173H40.1266C41.0197 64.0173 41.7594 63.7065 42.3455 63.0848C42.9596 62.4631 43.2666 61.686 43.2666 60.7536C43.2666 59.8211 42.9735 59.044 42.3874 58.4223C41.8013 57.8006 41.0477 57.4898 40.1266 57.4898ZM41.0058 76.2245C41.9827 76.2245 42.7921 75.8995 43.4341 75.2496C44.076 74.5714 44.397 73.7237 44.397 72.7065C44.397 71.7174 44.076 70.898 43.4341 70.2481C42.7921 69.5699 41.9827 69.2308 41.0058 69.2308H34.3489V76.2245H41.0058Z"
        fill="url(#paint1_linear_150_1563)"/>
    <path
        d="M76.11 81.6923L74.3515 76.3517H62.6707L60.9122 81.6923H54.6741L64.9315 52.022H72.0907L82.39 81.6923H76.11ZM64.5128 70.8838H72.5513L68.532 58.7614L64.5128 70.8838Z"
        fill="url(#paint2_linear_150_1563)"/>
    <path
        d="M97.9371 82.2857C95.0343 82.2857 92.592 81.6358 90.6103 80.336C88.6286 79.0079 87.2331 77.2135 86.4236 74.9529L91.3639 72.0283C92.5083 75.0518 94.7552 76.5636 98.1045 76.5636C99.7234 76.5636 100.91 76.2669 101.663 75.6735C102.417 75.0801 102.794 74.3313 102.794 73.427C102.794 72.3815 102.333 71.5762 101.412 71.011C100.491 70.4176 98.8442 69.7818 96.4717 69.1036C95.1599 68.708 94.0434 68.3124 93.1224 67.9168C92.2292 67.5212 91.3221 66.9984 90.401 66.3485C89.5078 65.6703 88.824 64.8226 88.3495 63.8054C87.875 62.7881 87.6378 61.6013 87.6378 60.2449C87.6378 57.5605 88.5728 55.427 90.4429 53.8446C92.3408 52.2339 94.6156 51.4286 97.2672 51.4286C99.6397 51.4286 101.719 52.022 103.505 53.2088C105.32 54.3674 106.729 55.9922 107.734 58.0832L102.877 60.9231C101.705 58.3799 99.835 57.1083 97.2672 57.1083C96.067 57.1083 95.118 57.3909 94.4202 57.9561C93.7504 58.493 93.4154 59.1994 93.4154 60.0754C93.4154 61.0079 93.7922 61.7708 94.5458 62.3642C95.3274 62.9294 96.8067 63.551 98.9837 64.2292C99.8769 64.5118 100.547 64.7379 100.993 64.9074C101.468 65.0487 102.096 65.2889 102.877 65.628C103.687 65.9388 104.301 66.2355 104.72 66.5181C105.166 66.8006 105.669 67.1821 106.227 67.6625C106.785 68.1429 107.204 68.6374 107.483 69.146C107.79 69.6547 108.041 70.2763 108.236 71.011C108.46 71.7174 108.571 72.4945 108.571 73.3422C108.571 76.0832 107.58 78.259 105.599 79.8697C103.645 81.4804 101.091 82.2857 97.9371 82.2857Z"
        fill="url(#paint3_linear_150_1563)"/>
    <defs>
        <filter id="filter0_bi_150_1563" x="4.36258" y="7.79117" width="128.417" height="116.989"
                filterUnits="userSpaceOnUse" color-interpolation-filters="sRGB">
            <feFlood flood-opacity="0" result="BackgroundImageFix"/>
            <feGaussianBlur in="BackgroundImageFix" stdDeviation="6.39"/>
            <feComposite in2="SourceAlpha" operator="in" result="effect1_backgroundBlur_150_1563"/>
            <feBlend mode="normal" in="SourceGraphic" in2="effect1_backgroundBlur_150_1563" result="shape"/>
            <feColorMatrix in="SourceAlpha" type="matrix" values="0 0 0 0 0 0 0 0 0 0 0 0 0 0 0 0 0 0 127 0"
                           result="hardAlpha"/>
            <feOffset dx="-0.869565" dy="0.869565"/>
            <feGaussianBlur stdDeviation="0.652174"/>
            <feComposite in2="hardAlpha" operator="arithmetic" k2="-1" k3="1"/>
            <feColorMatrix type="matrix" values="0 0 0 0 1 0 0 0 0 1 0 0 0 0 1 0 0 0 0.8 0"/>
            <feBlend mode="normal" in2="shape" result="effect2_innerShadow_150_1563"/>
        </filter>
        <linearGradient id="paint0_linear_150_1563" x1="120.106" y1="65.0486" x2="48" y2="65.0486"
                        gradientUnits="userSpaceOnUse">
            <stop stop-color="#5FC8D9"/>
            <stop offset="1" stop-color="#507EBF"/>
        </linearGradient>
        <linearGradient id="paint1_linear_150_1563" x1="84.1642" y1="55.9578" x2="87.7968" y2="80.3731"
                        gradientUnits="userSpaceOnUse">
            <stop stop-color="white"/>
            <stop offset="1" stop-color="white" stop-opacity="0.2"/>
        </linearGradient>
        <linearGradient id="paint2_linear_150_1563" x1="84.1642" y1="55.9578" x2="87.7968" y2="80.3731"
                        gradientUnits="userSpaceOnUse">
            <stop stop-color="white"/>
            <stop offset="1" stop-color="white" stop-opacity="0.2"/>
        </linearGradient>
        <linearGradient id="paint3_linear_150_1563" x1="84.1642" y1="55.9578" x2="87.7968" y2="80.3731"
                        gradientUnits="userSpaceOnUse">
            <stop stop-color="white"/>
            <stop offset="1" stop-color="white" stop-opacity="0.2"/>
        </linearGradient>
    </defs>
</svg>
