<svg width="160" height="112" viewBox="0 0 160 112" fill="none" xmlns="http://www.w3.org/2000/svg">
<g filter="url(#filter0_b_150_1584)">
<rect x="8" y="22" width="26" height="79" rx="6" fill="url(#paint0_linear_150_1584)"/>
</g>
<g filter="url(#filter1_b_150_1584)">
<rect x="130" y="22" width="26" height="79" rx="6" fill="url(#paint1_linear_150_1584)"/>
</g>
<g filter="url(#filter2_bi_150_1584)">
<rect x="23" y="6" width="118" height="102" rx="10.4348" fill="#D3C6EF" fill-opacity="0.3"/>
</g>
<path d="M53.1592 77C48.7725 77 45.1492 75.5577 42.2895 72.6731C39.4298 69.7885 38 66.2308 38 62C38 57.7418 39.4298 54.1841 42.2895 51.3269C45.1492 48.4423 48.7725 47 53.1592 47C55.7968 47 58.2261 47.6181 60.4472 48.8544C62.6961 50.0632 64.4453 51.7115 65.6947 53.7995L60.7388 56.6429C60.0169 55.3516 58.9896 54.3489 57.657 53.6346C56.3243 52.8929 54.825 52.522 53.1592 52.522C50.3272 52.522 48.0367 53.4011 46.2876 55.1593C44.5662 56.9176 43.7055 59.1978 43.7055 62C43.7055 64.7747 44.5662 67.0412 46.2876 68.7995C48.0367 70.5577 50.3272 71.4368 53.1592 71.4368C54.825 71.4368 56.3243 71.0797 57.657 70.3654C59.0174 69.6236 60.0447 68.6209 60.7388 67.3571L65.6947 70.2006C64.4453 72.2885 62.71 73.9506 60.4889 75.1868C58.2678 76.3956 55.8245 77 53.1592 77Z" fill="url(#paint2_linear_150_1584)"/>
<path d="M86.0502 76.4231L80.1781 66.4093H75.8052V76.4231H70.0581V47.5769H81.719C84.4121 47.5769 86.7026 48.511 88.5906 50.3791C90.4785 52.2473 91.4225 54.5 91.4225 57.1374C91.4225 58.9231 90.9089 60.5852 89.8816 62.1236C88.8543 63.6346 87.4939 64.7747 85.8003 65.544L92.2554 76.4231H86.0502ZM75.8052 52.8929V61.4231H81.719C82.8018 61.4231 83.7319 61.011 84.5093 60.1868C85.2866 59.3352 85.6753 58.3187 85.6753 57.1374C85.6753 55.956 85.2866 54.9533 84.5093 54.1291C83.7319 53.3049 82.8018 52.8929 81.719 52.8929H75.8052Z" fill="url(#paint3_linear_150_1584)"/>
<path d="M125 47.5769V76.4231H119.294V57.7143L111.09 71.1071H110.424L102.22 57.7555V76.4231H96.4724V47.5769H102.386L110.757 61.217L119.086 47.5769H125Z" fill="url(#paint4_linear_150_1584)"/>
<rect x="29" y="16" width="28" height="6" rx="3" fill="url(#paint5_linear_150_1584)"/>
<rect x="67" y="16" width="28" height="6" rx="3" fill="url(#paint6_linear_150_1584)"/>
<rect x="105" y="16" width="28" height="6" rx="3" fill="url(#paint7_linear_150_1584)"/>
<defs>
<filter id="filter0_b_150_1584" x="-4.78" y="9.22" width="51.56" height="104.56" filterUnits="userSpaceOnUse" color-interpolation-filters="sRGB">
<feFlood flood-opacity="0" result="BackgroundImageFix"/>
<feGaussianBlur in="BackgroundImageFix" stdDeviation="6.39"/>
<feComposite in2="SourceAlpha" operator="in" result="effect1_backgroundBlur_150_1584"/>
<feBlend mode="normal" in="SourceGraphic" in2="effect1_backgroundBlur_150_1584" result="shape"/>
</filter>
<filter id="filter1_b_150_1584" x="117.22" y="9.22" width="51.56" height="104.56" filterUnits="userSpaceOnUse" color-interpolation-filters="sRGB">
<feFlood flood-opacity="0" result="BackgroundImageFix"/>
<feGaussianBlur in="BackgroundImageFix" stdDeviation="6.39"/>
<feComposite in2="SourceAlpha" operator="in" result="effect1_backgroundBlur_150_1584"/>
<feBlend mode="normal" in="SourceGraphic" in2="effect1_backgroundBlur_150_1584" result="shape"/>
</filter>
<filter id="filter2_bi_150_1584" x="10.22" y="-6.78" width="143.56" height="127.56" filterUnits="userSpaceOnUse" color-interpolation-filters="sRGB">
<feFlood flood-opacity="0" result="BackgroundImageFix"/>
<feGaussianBlur in="BackgroundImageFix" stdDeviation="6.39"/>
<feComposite in2="SourceAlpha" operator="in" result="effect1_backgroundBlur_150_1584"/>
<feBlend mode="normal" in="SourceGraphic" in2="effect1_backgroundBlur_150_1584" result="shape"/>
<feColorMatrix in="SourceAlpha" type="matrix" values="0 0 0 0 0 0 0 0 0 0 0 0 0 0 0 0 0 0 127 0" result="hardAlpha"/>
<feOffset dx="-0.869565" dy="0.869565"/>
<feGaussianBlur stdDeviation="0.652174"/>
<feComposite in2="hardAlpha" operator="arithmetic" k2="-1" k3="1"/>
<feColorMatrix type="matrix" values="0 0 0 0 1 0 0 0 0 1 0 0 0 0 1 0 0 0 0.8 0"/>
<feBlend mode="normal" in2="shape" result="effect2_innerShadow_150_1584"/>
</filter>
<linearGradient id="paint0_linear_150_1584" x1="34" y1="61.5" x2="8" y2="61.5" gradientUnits="userSpaceOnUse">
<stop stop-color="#5FC8D9"/>
<stop offset="1" stop-color="#507EBF"/>
</linearGradient>
<linearGradient id="paint1_linear_150_1584" x1="130.918" y1="72.4255" x2="157.524" y2="71.5845" gradientUnits="userSpaceOnUse">
<stop stop-color="#6F95D8"/>
<stop offset="1" stop-color="#9D5BDD"/>
</linearGradient>
<linearGradient id="paint2_linear_150_1584" x1="98.4573" y1="51.4034" x2="101.628" y2="75.2442" gradientUnits="userSpaceOnUse">
<stop stop-color="white"/>
<stop offset="1" stop-color="white" stop-opacity="0.2"/>
</linearGradient>
<linearGradient id="paint3_linear_150_1584" x1="98.4573" y1="51.4034" x2="101.628" y2="75.2442" gradientUnits="userSpaceOnUse">
<stop stop-color="white"/>
<stop offset="1" stop-color="white" stop-opacity="0.2"/>
</linearGradient>
<linearGradient id="paint4_linear_150_1584" x1="98.4573" y1="51.4034" x2="101.628" y2="75.2442" gradientUnits="userSpaceOnUse">
<stop stop-color="white"/>
<stop offset="1" stop-color="white" stop-opacity="0.2"/>
</linearGradient>
<linearGradient id="paint5_linear_150_1584" x1="48.4575" y1="16.8807" x2="48.8559" y2="21.7003" gradientUnits="userSpaceOnUse">
<stop stop-color="white"/>
<stop offset="1" stop-color="white" stop-opacity="0.2"/>
</linearGradient>
<linearGradient id="paint6_linear_150_1584" x1="86.4575" y1="16.8807" x2="86.8559" y2="21.7003" gradientUnits="userSpaceOnUse">
<stop stop-color="white"/>
<stop offset="1" stop-color="white" stop-opacity="0.2"/>
</linearGradient>
<linearGradient id="paint7_linear_150_1584" x1="124.458" y1="16.8807" x2="124.856" y2="21.7003" gradientUnits="userSpaceOnUse">
<stop stop-color="white"/>
<stop offset="1" stop-color="white" stop-opacity="0.2"/>
</linearGradient>
</defs>
</svg>
