<svg width="160" height="112" viewBox="0 0 160 112" fill="none" xmlns="http://www.w3.org/2000/svg">
<path fill-rule="evenodd" clip-rule="evenodd" d="M50.6084 10.2858C50.6084 5.86749 54.1901 2.28577 58.6084 2.28577H139.429C143.847 2.28577 147.429 5.86749 147.429 10.2858V63.4433C147.429 67.8616 143.847 71.4433 139.429 71.4433H105.159L106.511 78.9354H118.19C118.742 78.9354 119.19 79.3831 119.19 79.9354V83.6985C119.19 84.2508 118.742 84.6985 118.19 84.6985H79.8477C79.2954 84.6985 78.8477 84.2508 78.8477 83.6985V79.9354C78.8477 79.3831 79.2954 78.9354 79.8477 78.9354H91.5274L92.8801 71.4433H58.6084C54.1901 71.4433 50.6084 67.8616 50.6084 63.4433V10.2858Z" fill="url(#paint0_linear_150_1299)"/>
<g filter="url(#filter0_b_150_1299)">
<path fill-rule="evenodd" clip-rule="evenodd" d="M12.5713 34.4908C12.5713 30.0726 16.153 26.4908 20.5713 26.4908H101.392C105.81 26.4908 109.392 30.0726 109.392 34.4908V87.6484C109.392 92.0666 105.81 95.6484 101.392 95.6484H66.6483L67.8969 103.14H80.1534C80.7057 103.14 81.1534 103.588 81.1534 104.14V107.904C81.1534 108.456 80.7057 108.904 80.1534 108.904H41.8115C41.2592 108.904 40.8115 108.456 40.8115 107.904V104.14C40.8115 103.588 41.2592 103.14 41.8115 103.14H54.0654L55.3141 95.6484H20.5713C16.153 95.6484 12.5713 92.0667 12.5713 87.6484V34.4908Z" fill="#C3B5E1" fill-opacity="0.3"/>
</g>
<g filter="url(#filter1_bi_150_1299)">
<rect x="12.5713" y="26.4908" width="96.8205" height="69.1575" rx="8" fill="#B5CFE1" fill-opacity="0.1"/>
</g>
<defs>
<filter id="filter0_b_150_1299" x="-7.42871" y="6.49084" width="136.82" height="122.413" filterUnits="userSpaceOnUse" color-interpolation-filters="sRGB">
<feFlood flood-opacity="0" result="BackgroundImageFix"/>
<feGaussianBlur in="BackgroundImageFix" stdDeviation="10"/>
<feComposite in2="SourceAlpha" operator="in" result="effect1_backgroundBlur_150_1299"/>
<feBlend mode="normal" in="SourceGraphic" in2="effect1_backgroundBlur_150_1299" result="shape"/>
</filter>
<filter id="filter1_bi_150_1299" x="1.57129" y="15.4908" width="118.82" height="91.1575" filterUnits="userSpaceOnUse" color-interpolation-filters="sRGB">
<feFlood flood-opacity="0" result="BackgroundImageFix"/>
<feGaussianBlur in="BackgroundImageFix" stdDeviation="5.5"/>
<feComposite in2="SourceAlpha" operator="in" result="effect1_backgroundBlur_150_1299"/>
<feBlend mode="normal" in="SourceGraphic" in2="effect1_backgroundBlur_150_1299" result="shape"/>
<feColorMatrix in="SourceAlpha" type="matrix" values="0 0 0 0 0 0 0 0 0 0 0 0 0 0 0 0 0 0 127 0" result="hardAlpha"/>
<feOffset dx="-2" dy="2"/>
<feGaussianBlur stdDeviation="1.5"/>
<feComposite in2="hardAlpha" operator="arithmetic" k2="-1" k3="1"/>
<feColorMatrix type="matrix" values="0 0 0 0 1 0 0 0 0 1 0 0 0 0 1 0 0 0 0.8 0"/>
<feBlend mode="normal" in2="shape" result="effect2_innerShadow_150_1299"/>
</filter>
<linearGradient id="paint0_linear_150_1299" x1="147.429" y1="43.4922" x2="50.6084" y2="43.4922" gradientUnits="userSpaceOnUse">
<stop stop-color="#5FC8D9"/>
<stop offset="1" stop-color="#6F9FE2"/>
</linearGradient>
</defs>
</svg>
