<svg width="160" height="112" viewBox="0 0 160 112" fill="none" xmlns="http://www.w3.org/2000/svg">
    <path
        d="M77.7109 38.8055C78.7425 38.0854 80.1138 38.0854 81.1454 38.8055L125.619 69.853C127.329 71.047 127.329 73.5788 125.619 74.7728L82.8627 104.621C80.7995 106.062 78.0568 106.062 75.9936 104.621L33.2375 74.7728C31.5272 73.5788 31.5272 71.047 33.2375 69.853L77.7109 38.8055Z"
        fill="url(#paint0_linear_150_1334)"/>
    <g filter="url(#filter0_bi_150_1334)">
        <path
            d="M77.7109 21.9213C78.7425 21.2011 80.1138 21.2011 81.1454 21.9213L125.619 52.9687C127.329 54.1627 127.329 56.6945 125.619 57.8885L82.8627 87.7371C80.7995 89.1775 78.0568 89.1775 75.9936 87.7371L33.2375 57.8885C31.5272 56.6945 31.5272 54.1627 33.2375 52.9687L77.7109 21.9213Z"
            fill="url(#paint1_linear_150_1334)"/>
    </g>
    <g filter="url(#filter1_bi_150_1334)">
        <path
            d="M75.9936 6.23608C78.0568 4.79574 80.7995 4.79574 82.8627 6.23608L125.619 36.0847C127.329 37.2787 127.329 39.8105 125.619 41.0045L82.8627 70.8531C80.7995 72.2934 78.0568 72.2934 75.9936 70.8531L33.2375 41.0045C31.5272 39.8105 31.5272 37.2787 33.2375 36.0847L75.9936 6.23608Z"
            fill="#C3B5E1" fill-opacity="0.4"/>
    </g>
    <path opacity="0.4" fill-rule="evenodd" clip-rule="evenodd"
          d="M92.0927 56.4987C92.4485 57.02 92.3144 57.7311 91.793 58.0869L82.6492 64.3279C80.7063 65.654 78.1493 65.654 76.2064 64.3279L67.9264 58.6765C67.4051 58.3207 67.2709 57.6096 67.6268 57.0883C67.9826 56.5669 68.6937 56.4328 69.215 56.7886L77.495 62.44C78.6607 63.2357 80.1949 63.2357 81.3607 62.44L90.5045 56.199C91.0258 55.8432 91.7369 55.9774 92.0927 56.4987Z"
          fill="white"/>
    <path opacity="0.4" fill-rule="evenodd" clip-rule="evenodd"
          d="M92.0927 90.7843C92.4485 91.3057 92.3144 92.0167 91.793 92.3726L82.6492 98.6136C80.7063 99.9397 78.1493 99.9397 76.2064 98.6136L67.9264 92.9621C67.4051 92.6063 67.2709 91.8952 67.6268 91.3739C67.9826 90.8526 68.6937 90.7184 69.215 91.0742L77.495 96.7257C78.6607 97.5213 80.1949 97.5213 81.3607 96.7257L90.5045 90.4847C91.0258 90.1288 91.7369 90.263 92.0927 90.7843Z"
          fill="white"/>
    <defs>
        <filter id="filter0_bi_150_1334" x="25.9546" y="15.3811" width="106.947" height="79.4363"
                filterUnits="userSpaceOnUse" color-interpolation-filters="sRGB">
            <feFlood flood-opacity="0" result="BackgroundImageFix"/>
            <feGaussianBlur in="BackgroundImageFix" stdDeviation="3"/>
            <feComposite in2="SourceAlpha" operator="in" result="effect1_backgroundBlur_150_1334"/>
            <feBlend mode="normal" in="SourceGraphic" in2="effect1_backgroundBlur_150_1334" result="shape"/>
            <feColorMatrix in="SourceAlpha" type="matrix" values="0 0 0 0 0 0 0 0 0 0 0 0 0 0 0 0 0 0 127 0"
                           result="hardAlpha"/>
            <feOffset dx="-2" dy="2"/>
            <feGaussianBlur stdDeviation="1.5"/>
            <feComposite in2="hardAlpha" operator="arithmetic" k2="-1" k3="1"/>
            <feColorMatrix type="matrix" values="0 0 0 0 1 0 0 0 0 1 0 0 0 0 1 0 0 0 0.8 0"/>
            <feBlend mode="normal" in2="shape" result="effect2_innerShadow_150_1334"/>
        </filter>
        <filter id="filter1_bi_150_1334" x="24.9546" y="-1.84424" width="108.947" height="80.7776"
                filterUnits="userSpaceOnUse" color-interpolation-filters="sRGB">
            <feFlood flood-opacity="0" result="BackgroundImageFix"/>
            <feGaussianBlur in="BackgroundImageFix" stdDeviation="3.5"/>
            <feComposite in2="SourceAlpha" operator="in" result="effect1_backgroundBlur_150_1334"/>
            <feBlend mode="normal" in="SourceGraphic" in2="effect1_backgroundBlur_150_1334" result="shape"/>
            <feColorMatrix in="SourceAlpha" type="matrix" values="0 0 0 0 0 0 0 0 0 0 0 0 0 0 0 0 0 0 127 0"
                           result="hardAlpha"/>
            <feOffset dx="-2" dy="2"/>
            <feGaussianBlur stdDeviation="1.5"/>
            <feComposite in2="hardAlpha" operator="arithmetic" k2="-1" k3="1"/>
            <feColorMatrix type="matrix" values="0 0 0 0 1 0 0 0 0 1 0 0 0 0 1 0 0 0 0.8 0"/>
            <feBlend mode="normal" in2="shape" result="effect2_innerShadow_150_1334"/>
        </filter>
        <linearGradient id="paint0_linear_150_1334" x1="129.142" y1="72.3129" x2="29.7139" y2="72.3129"
                        gradientUnits="userSpaceOnUse">
            <stop stop-color="#5FC8D9"/>
            <stop offset="1" stop-color="#6F9FE2"/>
        </linearGradient>
        <linearGradient id="paint1_linear_150_1334" x1="33.2231" y1="65.0282" x2="133.179" y2="51.2768"
                        gradientUnits="userSpaceOnUse">
            <stop stop-color="#6F95D8"/>
            <stop offset="1" stop-color="#9D5BDD"/>
        </linearGradient>
    </defs>
</svg>
