<?xml version="1.0" encoding="utf-8"?>
<!-- Generator: Adobe Illustrator 24.0.2, SVG Export Plug-In . SVG Version: 6.00 Build 0)  -->
<svg version="1.1" id="Слой_1" xmlns="http://www.w3.org/2000/svg" xmlns:xlink="http://www.w3.org/1999/xlink" x="0px"
     y="0px"
     viewBox="0 0 40 40" style="enable-background:new 0 0 40 40;" xml:space="preserve">
<style type="text/css">
	.st0{display:none;fill-rule:evenodd;clip-rule:evenodd;fill:#FFFFFF;}
	.st1{fill:#FFFFFF;}
</style>
    <path class="st0" d="M23.6,11.2h-7.1c-2.9,0-5.2,2.4-5.2,5.2v7.1c0,2.9,2.4,5.2,5.2,5.2h7.1c2.9,0,5.2-2.4,5.2-5.2v-7.1
	C28.8,13.5,26.4,11.2,23.6,11.2z M27,23.6c0,1.9-1.6,3.5-3.5,3.5h-7.1c-1.9,0-3.5-1.6-3.5-3.5v-7.1c0-1.9,1.6-3.5,3.5-3.5h7.1
	c1.9,0,3.5,1.6,3.5,3.5V23.6z M15.4,20c0-2.5,2-4.6,4.6-4.6s4.6,2,4.6,4.6c0,2.5-2,4.6-4.6,4.6S15.4,22.5,15.4,20z M20,22.8
	c-1.5,0-2.8-1.2-2.8-2.8c0-1.5,1.2-2.8,2.8-2.8s2.8,1.2,2.8,2.8S21.5,22.8,20,22.8z M25.7,15.5c0,0.6-0.5,1.1-1.1,1.1
	c-0.6,0-1.1-0.5-1.1-1.1c0-0.6,0.5-1.1,1.1-1.1C25.2,14.4,25.7,14.9,25.7,15.5z"/>
    <g id="Слой_2">
	<path class="st1" d="M23.6,11.2h-7.1c-2.9,0-5.2,2.3-5.2,5.2c0,0,0,0,0,0v0v7.1c0,0,0,0,0,0c0,2.9,2.3,5.2,5.2,5.2c0,0,0,0,0,0h7.1
		c0,0,0,0,0,0c2.9,0,5.2-2.3,5.2-5.2c0,0,0,0,0,0v0v-7.1c0,0,0,0,0,0C28.8,13.5,26.5,11.2,23.6,11.2C23.6,11.2,23.6,11.2,23.6,11.2
		L23.6,11.2L23.6,11.2z M27,23.6c0,1.9-1.6,3.4-3.5,3.5h-7.1c-1.9,0-3.4-1.6-3.5-3.5v-7.1c0-1.9,1.6-3.4,3.5-3.4h7.1
		c1.9,0,3.4,1.6,3.5,3.5L27,23.6L27,23.6z M25.7,15.4c0,0.6-0.5,1.1-1.1,1.1c-0.6,0-1.1-0.5-1.1-1.1s0.5-1.1,1.1-1.1c0,0,0,0,0,0h0
		C25.1,14.4,25.6,14.9,25.7,15.4L25.7,15.4L25.7,15.4z"/>
        <path class="st1" d="M20,24.7c-2.5,0-4.6-2-4.6-4.6s2-4.6,4.6-4.6s4.6,2,4.6,4.6c0,0,0,0,0,0v0c0,0,0,0,0,0
		C24.6,22.7,22.5,24.7,20,24.7C20,24.7,20,24.7,20,24.7L20,24.7L20,24.7z M20,17.1C20,17.1,19.9,17.1,20,17.1
		c-1.6,0-2.9,1.3-2.9,2.8c0,0,0,0.1,0,0.1l0,0c0,1.6,1.3,2.9,2.9,2.9c1.6,0,2.9-1.3,2.9-2.9l0,0c0,0,0-0.1,0-0.2
		c0-1.5-1.2-2.7-2.7-2.7C20.1,17.1,20,17.1,20,17.1L20,17.1L20,17.1z"/>
</g>
</svg>
