<svg width="72" height="72" viewBox="0 0 72 72" fill="none" xmlns="http://www.w3.org/2000/svg">
    <g style="mix-blend-mode:multiply" clip-path="url(#clip0_512_8215)">
        <path fill-rule="evenodd" clip-rule="evenodd"
              d="M22.8221 14.8557C22.8221 14.3034 23.2698 13.8557 23.8221 13.8557H48.462C49.0143 13.8557 49.462 14.3034 49.462 14.8557C49.462 15.408 49.0143 15.8557 48.462 15.8557H23.8221C23.2698 15.8557 22.8221 15.408 22.8221 14.8557Z"
              fill="url(#paint0_linear_512_8215)"/>
        <path fill-rule="evenodd" clip-rule="evenodd"
              d="M18.6545 13.7866C17.5317 15.0985 16.9719 16.7027 17.0011 17.8961C17.3266 31.1965 18.7024 47.0829 19.6908 58.1337C19.724 58.5055 19.9398 58.9461 20.4239 59.434C20.9034 59.9174 21.5814 60.3792 22.3757 60.7818C23.9809 61.5956 25.8501 62.0642 27.0368 62.0642V64.0642C25.4651 64.0642 23.2861 63.4857 21.4713 62.5657C20.5556 62.1015 19.6807 61.5246 19.0041 60.8426C18.3319 60.1652 17.7883 59.3138 17.6987 58.3118C16.7111 47.269 15.3291 31.32 15.0017 17.945C14.9585 16.1809 15.7451 14.11 17.135 12.4861C18.544 10.8399 20.6454 9.57031 23.2866 9.57031H26.5005V11.5703H23.2866C21.3355 11.5703 19.7581 12.4971 18.6545 13.7866ZM46.3197 9.57031H49.0785C51.428 9.57031 53.5773 10.9518 55.0636 12.6345C56.5367 14.3023 57.5694 16.5059 57.4144 18.4376L54.6552 58.2248C54.5019 60.1019 53.0154 61.5647 51.4679 62.5017C49.8831 63.4614 47.9282 64.0642 46.3197 64.0642V62.0642C47.5004 62.0642 49.1014 61.5966 50.4319 60.7909C51.7971 59.9643 52.5849 58.9691 52.6613 58.0675L55.4205 18.2813C55.5173 17.0947 54.8424 15.4052 53.5646 13.9586C52.2984 12.5251 50.651 11.5703 49.0785 11.5703H46.3197V9.57031Z"
              fill="url(#paint1_linear_512_8215)"/>
        <path fill-rule="evenodd" clip-rule="evenodd"
              d="M47 20H25C24.4477 20 24 20.4477 24 21V31C24 31.5523 24.4477 32 25 32H47C47.5523 32 48 31.5523 48 31V21C48 20.4477 47.5523 20 47 20ZM25 18C23.3431 18 22 19.3431 22 21V31C22 32.6569 23.3431 34 25 34H47C48.6569 34 50 32.6569 50 31V21C50 19.3431 48.6569 18 47 18H25Z"
              fill="url(#paint2_linear_512_8215)"/>
        <path fill-rule="evenodd" clip-rule="evenodd"
              d="M36.6787 44.7808C30.7395 44.7808 25.8943 49.6879 25.8943 55.7794C25.8943 59.928 28.1449 63.5339 31.461 65.4075C31.9419 65.6792 32.1115 66.2892 31.8398 66.77C31.5681 67.2509 30.9581 67.4204 30.4772 67.1488C26.5477 64.9286 23.8943 60.6657 23.8943 55.7794C23.8943 48.6175 29.6012 42.7808 36.6787 42.7808C43.7562 42.7808 49.463 48.6175 49.463 55.7794C49.463 60.6657 46.8096 64.9286 42.8801 67.1488C42.3992 67.4204 41.7892 67.2509 41.5175 66.77C41.2459 66.2892 41.4154 65.6792 41.8963 65.4075C45.2124 63.5339 47.463 59.928 47.463 55.7794C47.463 49.6879 42.6178 44.7808 36.6787 44.7808Z"
              fill="url(#paint3_linear_512_8215)"/>
        <path fill-rule="evenodd" clip-rule="evenodd"
              d="M39.9593 63.1287C42.4567 61.8491 44.1775 59.1541 44.1775 56.0366C44.1775 53.8597 43.3385 51.8888 41.9819 50.462C41.4885 49.9431 40.9266 49.4961 40.3117 49.1374L38.5532 54.4939H34.8036L33.0451 49.1374C32.4302 49.4961 31.8683 49.9431 31.3749 50.462C30.0183 51.8888 29.1793 53.8597 29.1793 56.0366C29.1793 59.1541 30.9001 61.8491 33.3975 63.1287V73.7773H39.9593V63.1287ZM37.9593 71.7773V61.9062L39.0473 61.3488C40.8679 60.416 42.1775 58.4138 42.1775 56.0366C42.1775 54.8055 41.8261 53.6743 41.2339 52.7402L40.0016 56.4939H33.3552L32.1229 52.7402C31.5307 53.6743 31.1793 54.8055 31.1793 56.0366C31.1793 58.4138 32.489 60.416 34.3095 61.3488L35.3975 61.9062V71.7773H37.9593Z"
              fill="url(#paint4_linear_512_8215)"/>
        <path fill-rule="evenodd" clip-rule="evenodd"
              d="M31.5017 3C29.2926 3 27.5017 4.79087 27.5017 7.00001V14.8556C27.5017 15.4079 27.054 15.8556 26.5017 15.8556C25.9495 15.8556 25.5017 15.4079 25.5017 14.8556V7.00001C25.5017 3.6863 28.188 1 31.5017 1H48.6061C50.2629 1 51.6061 2.34314 51.6061 4V7.28521H47.3209V14.8556H45.3209V3H31.5017ZM47.3209 3V5.28521H49.6061V4C49.6061 3.44772 49.1583 3 48.6061 3H47.3209Z"
              fill="url(#paint5_linear_512_8215)"/>
        <path fill-rule="evenodd" clip-rule="evenodd"
              d="M24 39V40H28V39H24ZM23 37C22.4477 37 22 37.4477 22 38V41C22 41.5523 22.4477 42 23 42H29C29.5523 42 30 41.5523 30 41V38C30 37.4477 29.5523 37 29 37H23Z"
              fill="url(#paint6_linear_512_8215)"/>
        <path fill-rule="evenodd" clip-rule="evenodd"
              d="M34 39V40H39V39H34ZM33 37C32.4477 37 32 37.4477 32 38V41C32 41.5523 32.4477 42 33 42H40C40.5523 42 41 41.5523 41 41V38C41 37.4477 40.5523 37 40 37H33Z"
              fill="url(#paint7_linear_512_8215)"/>
        <path fill-rule="evenodd" clip-rule="evenodd"
              d="M45 39V40H49V39H45ZM44 37C43.4477 37 43 37.4477 43 38V41C43 41.5523 43.4477 42 44 42H50C50.5523 42 51 41.5523 51 41V38C51 37.4477 50.5523 37 50 37H44Z"
              fill="url(#paint8_linear_512_8215)"/>
    </g>
    <defs>
        <linearGradient id="paint0_linear_512_8215" x1="24.1578" y1="7.39837" x2="71.7466" y2="53.1534"
                        gradientUnits="userSpaceOnUse">
            <stop stop-color="#C56AEC"/>
            <stop offset="1" stop-color="#5BDAEC"/>
        </linearGradient>
        <linearGradient id="paint1_linear_512_8215" x1="24.1578" y1="7.39837" x2="71.7466" y2="53.1534"
                        gradientUnits="userSpaceOnUse">
            <stop stop-color="#C56AEC"/>
            <stop offset="1" stop-color="#5BDAEC"/>
        </linearGradient>
        <linearGradient id="paint2_linear_512_8215" x1="24.1578" y1="7.39837" x2="71.7466" y2="53.1534"
                        gradientUnits="userSpaceOnUse">
            <stop stop-color="#C56AEC"/>
            <stop offset="1" stop-color="#5BDAEC"/>
        </linearGradient>
        <linearGradient id="paint3_linear_512_8215" x1="24.1578" y1="7.39837" x2="71.7466" y2="53.1534"
                        gradientUnits="userSpaceOnUse">
            <stop stop-color="#C56AEC"/>
            <stop offset="1" stop-color="#5BDAEC"/>
        </linearGradient>
        <linearGradient id="paint4_linear_512_8215" x1="24.1578" y1="7.39837" x2="71.7466" y2="53.1534"
                        gradientUnits="userSpaceOnUse">
            <stop stop-color="#C56AEC"/>
            <stop offset="1" stop-color="#5BDAEC"/>
        </linearGradient>
        <linearGradient id="paint5_linear_512_8215" x1="24.1578" y1="7.39837" x2="71.7466" y2="53.1534"
                        gradientUnits="userSpaceOnUse">
            <stop stop-color="#C56AEC"/>
            <stop offset="1" stop-color="#5BDAEC"/>
        </linearGradient>
        <linearGradient id="paint6_linear_512_8215" x1="24.1578" y1="7.39837" x2="71.7466" y2="53.1534"
                        gradientUnits="userSpaceOnUse">
            <stop stop-color="#C56AEC"/>
            <stop offset="1" stop-color="#5BDAEC"/>
        </linearGradient>
        <linearGradient id="paint7_linear_512_8215" x1="24.1578" y1="7.39837" x2="71.7466" y2="53.1534"
                        gradientUnits="userSpaceOnUse">
            <stop stop-color="#C56AEC"/>
            <stop offset="1" stop-color="#5BDAEC"/>
        </linearGradient>
        <linearGradient id="paint8_linear_512_8215" x1="24.1578" y1="7.39837" x2="71.7466" y2="53.1534"
                        gradientUnits="userSpaceOnUse">
            <stop stop-color="#C56AEC"/>
            <stop offset="1" stop-color="#5BDAEC"/>
        </linearGradient>
        <clipPath id="clip0_512_8215">
            <rect width="72" height="72" fill="white"/>
        </clipPath>
    </defs>
</svg>
