<svg width="73" height="73" viewBox="0 0 73 73" fill="none" xmlns="http://www.w3.org/2000/svg">
    <path fill-rule="evenodd" clip-rule="evenodd"
          d="M43.1495 4.36983L36.3165 0L29.4835 4.36983L21.4639 3.15702L16.999 9.92829L9.17942 12.0822L7.85468 20.0841L1.5872 25.2323L3.63165 33.0812L0 40.3336L5.06014 46.6724L4.69225 54.7748L11.8931 58.5075L14.8526 66.0591L22.9492 66.5401L28.7243 72.2351L36.3165 69.3815L43.9087 72.2351L49.6839 66.5401L57.7804 66.0591L60.7399 58.5075L67.9408 54.7748L67.5729 46.6724L72.633 40.3336L69.0014 33.0812L71.0458 25.2323L64.7784 20.0841L63.4536 12.0822L55.634 9.92829L51.1691 3.15702L43.1495 4.36983ZM50.1471 5.45256L42.6793 6.58191L36.3165 2.51278L29.9537 6.58191L22.4859 5.45256L18.3283 11.7579L11.0468 13.7636L9.81319 21.2149L3.977 26.0088L5.88076 33.3176L2.49901 40.0709L7.21095 45.9735L6.86838 53.5184L13.5738 56.9942L16.3296 64.0262L23.869 64.4742L29.2467 69.7773L36.3165 67.12L43.3863 69.7773L48.764 64.4742L56.3034 64.0262L59.0593 56.9942L65.7647 53.5184L65.4221 45.9735L70.134 40.0709L66.7523 33.3176L68.656 26.0088L62.8198 21.2149L61.5862 13.7636L54.3047 11.7579L50.1471 5.45256Z"
          fill="url(#paint0_linear_523_8212)"/>
    <path d="M19.377 20.152H21.9785V35.9874H19.377V20.152Z" fill="url(#paint1_linear_523_8212)"/>
    <path
        d="M30.1929 36.2815C28.6697 36.2815 27.3727 35.9346 26.3019 35.2409C25.2463 34.5472 24.5073 33.597 24.085 32.3905L26.3246 31.0784C26.958 32.858 28.2701 33.7478 30.2608 33.7478C31.2411 33.7478 31.9725 33.5593 32.4551 33.1823C32.9528 32.7902 33.2017 32.285 33.2017 31.6666C33.2017 31.0181 32.9377 30.528 32.4099 30.1962C31.8821 29.8493 30.947 29.4723 29.6048 29.0651C28.8507 28.8389 28.2399 28.6277 27.7724 28.4317C27.3049 28.2356 26.8072 27.9641 26.2793 27.6173C25.7666 27.2553 25.382 26.8104 25.1256 26.2826C24.8692 25.7547 24.741 25.1364 24.741 24.4276C24.741 23.025 25.2387 21.9165 26.2341 21.1021C27.2295 20.2726 28.4284 19.8579 29.831 19.8579C31.0978 19.8579 32.2063 20.1671 33.1564 20.7854C34.1066 21.4037 34.838 22.2558 35.3508 23.3417L33.1564 24.6085C32.4928 23.1306 31.3844 22.3916 29.831 22.3916C29.0769 22.3916 28.4737 22.5726 28.0212 22.9345C27.5688 23.2814 27.3426 23.7564 27.3426 24.3597C27.3426 24.9479 27.5688 25.4154 28.0212 25.7623C28.4887 26.0941 29.3258 26.4485 30.5323 26.8255C31.1355 27.0216 31.5729 27.1724 31.8443 27.2779C32.1309 27.3684 32.523 27.5192 33.0207 27.7304C33.5335 27.9415 33.918 28.1527 34.1744 28.3638C34.4308 28.5749 34.7023 28.8389 34.9888 29.1556C35.2904 29.4723 35.5016 29.8342 35.6222 30.2414C35.7429 30.6486 35.8032 31.1086 35.8032 31.6214C35.8032 33.0541 35.2829 34.1927 34.2423 35.0373C33.2168 35.8668 31.867 36.2815 30.1929 36.2815Z"
        fill="url(#paint2_linear_523_8212)"/>
    <path
        d="M51.168 33.9062C49.5844 35.4897 47.6465 36.2815 45.3541 36.2815C43.0618 36.2815 41.1163 35.4897 39.5176 33.9062C37.9341 32.3076 37.1423 30.3621 37.1423 28.0697C37.1423 25.7773 37.9341 23.8394 39.5176 22.2558C41.1163 20.6572 43.0618 19.8579 45.3541 19.8579C47.6465 19.8579 49.5844 20.6572 51.168 22.2558C52.7666 23.8394 53.5659 25.7773 53.5659 28.0697C53.5659 30.3621 52.7666 32.3076 51.168 33.9062ZM41.35 32.1417C42.4359 33.2125 43.7706 33.7478 45.3541 33.7478C46.9377 33.7478 48.2648 33.2125 49.3356 32.1417C50.4215 31.0558 50.9644 29.6985 50.9644 28.0697C50.9644 26.4409 50.4215 25.0911 49.3356 24.0204C48.2648 22.9345 46.9377 22.3916 45.3541 22.3916C43.7706 22.3916 42.4359 22.9345 41.35 24.0204C40.2792 25.0911 39.7439 26.4409 39.7439 28.0697C39.7439 29.6985 40.2792 31.0558 41.35 32.1417Z"
        fill="url(#paint3_linear_523_8212)"/>
    <path
        d="M18.005 45.7887C18.005 46.3532 17.8568 46.8507 17.5604 47.2811L15.2212 50.8058H13.8241L15.5176 48.3184H15.3906C14.6214 48.3184 13.9899 48.0856 13.496 47.6199C13.0091 47.1471 12.7656 46.5367 12.7656 45.7887C12.7656 45.0408 13.0091 44.4339 13.496 43.9682C13.9899 43.4954 14.6214 43.259 15.3906 43.259C16.1597 43.259 16.7877 43.4954 17.2746 43.9682C17.7615 44.4339 18.005 45.0408 18.005 45.7887ZM13.9828 45.7887C13.9828 46.198 14.1134 46.5296 14.3745 46.7837C14.6426 47.0377 14.9813 47.1647 15.3906 47.1647C15.7999 47.1647 16.135 47.0412 16.3961 46.7943C16.6572 46.5402 16.7877 46.2051 16.7877 45.7887C16.7877 45.3724 16.6572 45.0408 16.3961 44.7938C16.135 44.5398 15.7999 44.4127 15.3906 44.4127C14.9813 44.4127 14.6426 44.5398 14.3745 44.7938C14.1134 45.0408 13.9828 45.3724 13.9828 45.7887Z"
        fill="url(#paint4_linear_523_8212)"/>
    <path
        d="M23.7409 49.8955C23.2329 50.5941 22.5202 50.9434 21.6029 50.9434C20.6855 50.9434 19.9693 50.5941 19.4542 49.8955C18.9462 49.1969 18.6921 48.2655 18.6921 47.1012C18.6921 45.9369 18.9462 45.0055 19.4542 44.3069C19.9693 43.6083 20.6855 43.259 21.6029 43.259C22.5202 43.259 23.2329 43.6083 23.7409 44.3069C24.256 45.0055 24.5136 45.9369 24.5136 47.1012C24.5136 48.2655 24.256 49.1969 23.7409 49.8955ZM21.6029 49.7579C22.1533 49.7579 22.5731 49.5286 22.8624 49.0699C23.1517 48.6113 23.2964 47.955 23.2964 47.1012C23.2964 46.2474 23.1517 45.5912 22.8624 45.1325C22.5731 44.6738 22.1533 44.4445 21.6029 44.4445C21.0595 44.4445 20.6397 44.6738 20.3433 45.1325C20.054 45.5912 19.9093 46.2474 19.9093 47.1012C19.9093 47.955 20.054 48.6113 20.3433 49.0699C20.6397 49.5286 21.0595 49.7579 21.6029 49.7579Z"
        fill="url(#paint5_linear_523_8212)"/>
    <path
        d="M30.4079 49.8955C29.8999 50.5941 29.1872 50.9434 28.2699 50.9434C27.3525 50.9434 26.6363 50.5941 26.1212 49.8955C25.6132 49.1969 25.3591 48.2655 25.3591 47.1012C25.3591 45.9369 25.6132 45.0055 26.1212 44.3069C26.6363 43.6083 27.3525 43.259 28.2699 43.259C29.1872 43.259 29.8999 43.6083 30.4079 44.3069C30.923 45.0055 31.1806 45.9369 31.1806 47.1012C31.1806 48.2655 30.923 49.1969 30.4079 49.8955ZM28.2699 49.7579C28.8203 49.7579 29.2401 49.5286 29.5294 49.0699C29.8187 48.6113 29.9634 47.955 29.9634 47.1012C29.9634 46.2474 29.8187 45.5912 29.5294 45.1325C29.2401 44.6738 28.8203 44.4445 28.2699 44.4445C27.7265 44.4445 27.3067 44.6738 27.0103 45.1325C26.721 45.5912 26.5763 46.2474 26.5763 47.1012C26.5763 47.955 26.721 48.6113 27.0103 49.0699C27.3067 49.5286 27.7265 49.7579 28.2699 49.7579Z"
        fill="url(#paint6_linear_523_8212)"/>
    <path d="M33.4812 43.3966H34.5396V50.8058H33.3224V44.6985L31.83 45.1219L31.5336 44.0846L33.4812 43.3966Z"
          fill="url(#paint7_linear_523_8212)"/>
    <path
        d="M37.25 46.7308C37.0948 46.886 36.9078 46.9636 36.689 46.9636C36.4703 46.9636 36.2833 46.886 36.128 46.7308C35.9728 46.5755 35.8952 46.3885 35.8952 46.1698C35.8952 45.944 35.9693 45.757 36.1174 45.6088C36.2727 45.4536 36.4632 45.3759 36.689 45.3759C36.9078 45.3759 37.0948 45.4536 37.25 45.6088C37.4052 45.764 37.4829 45.951 37.4829 46.1698C37.4829 46.3885 37.4052 46.5755 37.25 46.7308ZM37.25 50.6999C37.0948 50.8552 36.9078 50.9328 36.689 50.9328C36.4703 50.9328 36.2833 50.8552 36.128 50.6999C35.9728 50.5447 35.8952 50.3577 35.8952 50.139C35.8952 49.9202 35.9693 49.7332 36.1174 49.578C36.2727 49.4227 36.4632 49.3451 36.689 49.3451C36.9078 49.3451 37.0948 49.4227 37.25 49.578C37.4052 49.7332 37.4829 49.9202 37.4829 50.139C37.4829 50.3577 37.4052 50.5447 37.25 50.6999Z"
        fill="url(#paint8_linear_523_8212)"/>
    <path
        d="M38.3601 50.8058V49.8532L40.9427 47.2176C41.5708 46.5896 41.8848 46.0463 41.8848 45.5876C41.8848 45.2278 41.7754 44.949 41.5566 44.7514C41.345 44.5468 41.0733 44.4445 40.7416 44.4445C40.1207 44.4445 39.662 44.7514 39.3657 45.3654L38.339 44.762C38.5718 44.2681 38.8999 43.8941 39.3233 43.6401C39.7467 43.386 40.2159 43.259 40.7311 43.259C41.3802 43.259 41.9377 43.4637 42.4034 43.8729C42.8691 44.2822 43.102 44.8397 43.102 45.5453C43.102 46.3003 42.6821 47.1047 41.8424 47.9586L40.1701 49.6309H43.2396V50.8058H38.3601Z"
        fill="url(#paint9_linear_523_8212)"/>
    <path
        d="M49.0032 49.8955C48.4951 50.5941 47.7824 50.9434 46.8651 50.9434C45.9478 50.9434 45.2316 50.5941 44.7165 49.8955C44.2084 49.1969 43.9544 48.2655 43.9544 47.1012C43.9544 45.9369 44.2084 45.0055 44.7165 44.3069C45.2316 43.6083 45.9478 43.259 46.8651 43.259C47.7824 43.259 48.4951 43.6083 49.0032 44.3069C49.5183 45.0055 49.7758 45.9369 49.7758 47.1012C49.7758 48.2655 49.5183 49.1969 49.0032 49.8955ZM46.8651 49.7579C47.4155 49.7579 47.8354 49.5286 48.1247 49.0699C48.414 48.6113 48.5586 47.955 48.5586 47.1012C48.5586 46.2474 48.414 45.5912 48.1247 45.1325C47.8354 44.6738 47.4155 44.4445 46.8651 44.4445C46.3218 44.4445 45.9019 44.6738 45.6056 45.1325C45.3162 45.5912 45.1716 46.2474 45.1716 47.1012C45.1716 47.955 45.3162 48.6113 45.6056 49.0699C45.9019 49.5286 46.3218 49.7579 46.8651 49.7579Z"
        fill="url(#paint10_linear_523_8212)"/>
    <path d="M52.0764 43.3966H53.1349V50.8058H51.9176V44.6985L50.4252 45.1219L50.1289 44.0846L52.0764 43.3966Z"
          fill="url(#paint11_linear_523_8212)"/>
    <path
        d="M56.8402 46.1909C57.5458 46.1909 58.1421 46.4026 58.629 46.826C59.1158 47.2423 59.3593 47.821 59.3593 48.5619C59.3593 49.3028 59.1088 49.8849 58.6078 50.3083C58.1068 50.7317 57.4929 50.9434 56.7661 50.9434C56.1804 50.9434 55.6618 50.8093 55.2102 50.5412C54.7586 50.266 54.4375 49.8708 54.247 49.3557L55.2948 48.7524C55.4924 49.4227 55.9828 49.7579 56.7661 49.7579C57.1824 49.7579 57.5141 49.6521 57.761 49.4404C58.0151 49.2216 58.1421 48.9288 58.1421 48.5619C58.1421 48.1949 58.0186 47.9056 57.7716 47.6939C57.5246 47.4823 57.1965 47.3764 56.7873 47.3764H54.628L54.9138 43.3966H59.0418V44.5398H56.0358L55.9087 46.1909H56.8402Z"
        fill="url(#paint12_linear_523_8212)"/>
    <defs>
        <linearGradient id="paint0_linear_523_8212" x1="15.6762" y1="6.3507" x2="57.485" y2="75.6792"
                        gradientUnits="userSpaceOnUse">
            <stop stop-color="#C56AEC"/>
            <stop offset="1" stop-color="#5BDAEC"/>
        </linearGradient>
        <linearGradient id="paint1_linear_523_8212" x1="17.7934" y1="16.9353" x2="37.4059" y2="49.6227"
                        gradientUnits="userSpaceOnUse">
            <stop stop-color="#C070ED"/>
            <stop offset="1" stop-color="#5FD7ED"/>
        </linearGradient>
        <linearGradient id="paint2_linear_523_8212" x1="17.7934" y1="16.9353" x2="37.4059" y2="49.6227"
                        gradientUnits="userSpaceOnUse">
            <stop stop-color="#C070ED"/>
            <stop offset="1" stop-color="#5FD7ED"/>
        </linearGradient>
        <linearGradient id="paint3_linear_523_8212" x1="17.7934" y1="16.9353" x2="37.4059" y2="49.6227"
                        gradientUnits="userSpaceOnUse">
            <stop stop-color="#C070ED"/>
            <stop offset="1" stop-color="#5FD7ED"/>
        </linearGradient>
        <linearGradient id="paint4_linear_523_8212" x1="12.501" y1="42.3381" x2="16.9839" y2="62.5109"
                        gradientUnits="userSpaceOnUse">
            <stop stop-color="#C070ED"/>
            <stop offset="1" stop-color="#5FD7ED"/>
        </linearGradient>
        <linearGradient id="paint5_linear_523_8212" x1="12.501" y1="42.3381" x2="16.9839" y2="62.5109"
                        gradientUnits="userSpaceOnUse">
            <stop stop-color="#C070ED"/>
            <stop offset="1" stop-color="#5FD7ED"/>
        </linearGradient>
        <linearGradient id="paint6_linear_523_8212" x1="12.501" y1="42.3381" x2="16.9839" y2="62.5109"
                        gradientUnits="userSpaceOnUse">
            <stop stop-color="#C070ED"/>
            <stop offset="1" stop-color="#5FD7ED"/>
        </linearGradient>
        <linearGradient id="paint7_linear_523_8212" x1="12.501" y1="42.3381" x2="16.9839" y2="62.5109"
                        gradientUnits="userSpaceOnUse">
            <stop stop-color="#C070ED"/>
            <stop offset="1" stop-color="#5FD7ED"/>
        </linearGradient>
        <linearGradient id="paint8_linear_523_8212" x1="12.501" y1="42.3381" x2="16.9839" y2="62.5109"
                        gradientUnits="userSpaceOnUse">
            <stop stop-color="#C070ED"/>
            <stop offset="1" stop-color="#5FD7ED"/>
        </linearGradient>
        <linearGradient id="paint9_linear_523_8212" x1="12.501" y1="42.3381" x2="16.9839" y2="62.5109"
                        gradientUnits="userSpaceOnUse">
            <stop stop-color="#C070ED"/>
            <stop offset="1" stop-color="#5FD7ED"/>
        </linearGradient>
        <linearGradient id="paint10_linear_523_8212" x1="12.501" y1="42.3381" x2="16.9839" y2="62.5109"
                        gradientUnits="userSpaceOnUse">
            <stop stop-color="#C070ED"/>
            <stop offset="1" stop-color="#5FD7ED"/>
        </linearGradient>
        <linearGradient id="paint11_linear_523_8212" x1="12.501" y1="42.3381" x2="16.9839" y2="62.5109"
                        gradientUnits="userSpaceOnUse">
            <stop stop-color="#C070ED"/>
            <stop offset="1" stop-color="#5FD7ED"/>
        </linearGradient>
        <linearGradient id="paint12_linear_523_8212" x1="12.501" y1="42.3381" x2="16.9839" y2="62.5109"
                        gradientUnits="userSpaceOnUse">
            <stop stop-color="#C070ED"/>
            <stop offset="1" stop-color="#5FD7ED"/>
        </linearGradient>
    </defs>
</svg>
