<svg width="73" height="72" viewBox="0 0 73 72" fill="none" xmlns="http://www.w3.org/2000/svg">
<path fill-rule="evenodd" clip-rule="evenodd" d="M43.0091 4.35561L36.1983 0L29.3875 4.35561L21.394 3.14674L16.9437 9.89597L9.14954 12.0429L7.82911 20.0187L1.58204 25.1502L3.61983 32.9736L0 40.2023L5.04367 46.5204L4.67697 54.5965L11.8544 58.317L14.8043 65.844L22.8745 66.3235L28.6308 72L36.1983 69.1556L43.7658 72L49.5221 66.3235L57.5923 65.844L60.5422 58.317L67.7196 54.5965L67.3529 46.5204L72.3966 40.2023L68.7768 32.9736L70.8146 25.1502L64.5675 20.0187L63.247 12.0429L55.4529 9.89597L51.0026 3.14674L43.0091 4.35561ZM49.9839 5.43481L42.5404 6.56049L36.1983 2.5046L29.8562 6.56049L22.4127 5.43481L18.2686 11.7196L11.0108 13.7188L9.78125 21.1458L3.96405 25.9241L5.86162 33.2092L2.49088 39.9405L7.18748 45.8239L6.84602 53.3442L13.5296 56.8087L16.2764 63.8178L23.7913 64.2643L29.1515 69.5501L36.1983 66.9015L43.2451 69.5501L48.6053 64.2643L56.1202 63.8178L58.867 56.8087L65.5506 53.3442L65.2091 45.8239L69.9057 39.9405L66.535 33.2092L68.4325 25.9241L62.6153 21.1458L61.3858 13.7188L54.128 11.7196L49.9839 5.43481Z" fill="url(#paint0_linear_523_8217)"/>
<path d="M19.3125 20.0863H21.9056V35.8702H19.3125V20.0863Z" fill="url(#paint1_linear_523_8217)"/>
<path d="M30.0933 36.1634C28.575 36.1634 27.2822 35.8176 26.215 35.1261C25.1627 34.4346 24.4261 33.4876 24.0052 32.285L26.2375 30.9772C26.8689 32.751 28.1767 33.6379 30.1609 33.6379C31.138 33.6379 31.8671 33.45 32.3481 33.0742C32.8442 32.6834 33.0922 32.1798 33.0922 31.5635C33.0922 30.9171 32.8292 30.4285 32.303 30.0978C31.7769 29.7521 30.8449 29.3763 29.507 28.9704C28.7554 28.7449 28.1466 28.5345 27.6806 28.3391C27.2146 28.1436 26.7185 27.8731 26.1924 27.5273C25.6813 27.1665 25.298 26.7231 25.0424 26.197C24.7869 25.6708 24.6591 25.0545 24.6591 24.348C24.6591 22.95 25.1552 21.8451 26.1473 21.0334C27.1394 20.2066 28.3345 19.7932 29.7325 19.7932C30.9952 19.7932 32.1001 20.1014 33.0471 20.7177C33.9942 21.334 34.7232 22.1833 35.2343 23.2657L33.0471 24.5284C32.3857 23.0552 31.2808 22.3186 29.7325 22.3186C28.9809 22.3186 28.3796 22.499 27.9286 22.8598C27.4777 23.2055 27.2522 23.6791 27.2522 24.2803C27.2522 24.8666 27.4777 25.3326 27.9286 25.6783C28.3946 26.0091 29.2289 26.3623 30.4315 26.7381C31.0328 26.9335 31.4687 27.0839 31.7393 27.1891C32.0249 27.2793 32.4158 27.4296 32.9118 27.6401C33.4229 27.8505 33.8062 28.061 34.0618 28.2714C34.3173 28.4819 34.5879 28.7449 34.8735 29.0606C35.1742 29.3763 35.3846 29.7371 35.5049 30.1429C35.6252 30.5488 35.6853 31.0073 35.6853 31.5184C35.6853 32.9464 35.1667 34.0814 34.1294 34.9232C33.1072 35.75 31.7619 36.1634 30.0933 36.1634Z" fill="url(#paint2_linear_523_8217)"/>
<path d="M51 33.7958C49.4217 35.3742 47.49 36.1634 45.2051 36.1634C42.9202 36.1634 40.981 35.3742 39.3876 33.7958C37.8092 32.2023 37.02 30.2632 37.02 27.9783C37.02 25.6934 37.8092 23.7617 39.3876 22.1833C40.981 20.5899 42.9202 19.7932 45.2051 19.7932C47.49 19.7932 49.4217 20.5899 51 22.1833C52.5935 23.7617 53.3902 25.6934 53.3902 27.9783C53.3902 30.2632 52.5935 32.2023 51 33.7958ZM41.214 32.037C42.2964 33.1043 43.6267 33.6379 45.2051 33.6379C46.7835 33.6379 48.1063 33.1043 49.1736 32.037C50.2559 30.9547 50.7971 29.6018 50.7971 27.9783C50.7971 26.3548 50.2559 25.0094 49.1736 23.9421C48.1063 22.8598 46.7835 22.3186 45.2051 22.3186C43.6267 22.3186 42.2964 22.8598 41.214 23.9421C40.1467 25.0094 39.6131 26.3548 39.6131 27.9783C39.6131 29.6018 40.1467 30.9547 41.214 32.037Z" fill="url(#paint3_linear_523_8217)"/>
<path d="M11.7301 50.6404V49.6908L14.3043 47.0639C14.9303 46.4379 15.2433 45.8963 15.2433 45.4392C15.2433 45.0805 15.1342 44.8027 14.9162 44.6057C14.7052 44.4018 14.4344 44.2998 14.1038 44.2998C13.4849 44.2998 13.0277 44.6057 12.7323 45.2176L11.709 44.6163C11.9411 44.1239 12.2681 43.7512 12.6901 43.498C13.1121 43.2448 13.5799 43.1182 14.0933 43.1182C14.7404 43.1182 15.296 43.3221 15.7602 43.7301C16.2244 44.138 16.4565 44.6936 16.4565 45.397C16.4565 46.1495 16.038 46.9514 15.2011 47.8024L13.5341 49.4693H16.5937V50.6404H11.7301Z" fill="url(#paint4_linear_523_8217)"/>
<path d="M16.9393 43.2553H21.6341V44.3103L19.0388 50.6404H17.7622L20.3154 44.4158H16.9393V43.2553Z" fill="url(#paint5_linear_523_8217)"/>
<path d="M27.2014 49.733C26.695 50.4294 25.9846 50.7775 25.0703 50.7775C24.156 50.7775 23.4421 50.4294 22.9286 49.733C22.4222 49.0367 22.169 48.1083 22.169 46.9478C22.169 45.7873 22.4222 44.8589 22.9286 44.1626C23.4421 43.4663 24.156 43.1182 25.0703 43.1182C25.9846 43.1182 26.695 43.4663 27.2014 44.1626C27.7148 44.8589 27.9716 45.7873 27.9716 46.9478C27.9716 48.1083 27.7148 49.0367 27.2014 49.733ZM25.0703 49.5959C25.6189 49.5959 26.0374 49.3673 26.3258 48.9101C26.6141 48.453 26.7583 47.7989 26.7583 46.9478C26.7583 46.0968 26.6141 45.4427 26.3258 44.9855C26.0374 44.5284 25.6189 44.2998 25.0703 44.2998C24.5287 44.2998 24.1102 44.5284 23.8148 44.9855C23.5265 45.4427 23.3823 46.0968 23.3823 46.9478C23.3823 47.7989 23.5265 48.453 23.8148 48.9101C24.1102 49.3673 24.5287 49.5959 25.0703 49.5959Z" fill="url(#paint6_linear_523_8217)"/>
<path d="M33.8467 49.733C33.3403 50.4294 32.6299 50.7775 31.7156 50.7775C30.8013 50.7775 30.0874 50.4294 29.5739 49.733C29.0675 49.0367 28.8143 48.1083 28.8143 46.9478C28.8143 45.7873 29.0675 44.8589 29.5739 44.1626C30.0874 43.4663 30.8013 43.1182 31.7156 43.1182C32.6299 43.1182 33.3403 43.4663 33.8467 44.1626C34.3601 44.8589 34.6169 45.7873 34.6169 46.9478C34.6169 48.1083 34.3601 49.0367 33.8467 49.733ZM31.7156 49.5959C32.2642 49.5959 32.6827 49.3673 32.9711 48.9101C33.2594 48.453 33.4036 47.7989 33.4036 46.9478C33.4036 46.0968 33.2594 45.4427 32.9711 44.9855C32.6827 44.5284 32.2642 44.2998 31.7156 44.2998C31.174 44.2998 30.7555 44.5284 30.4601 44.9855C30.1718 45.4427 30.0276 46.0968 30.0276 46.9478C30.0276 47.7989 30.1718 48.453 30.4601 48.9101C30.7555 49.3673 31.174 49.5959 31.7156 49.5959Z" fill="url(#paint7_linear_523_8217)"/>
<path d="M36.9099 43.2553H37.9649V50.6404H36.7517V44.553L35.2641 44.975L34.9687 43.9411L36.9099 43.2553Z" fill="url(#paint8_linear_523_8217)"/>
<path d="M40.6665 46.5786C40.5118 46.7333 40.3254 46.8107 40.1073 46.8107C39.8893 46.8107 39.7029 46.7333 39.5482 46.5786C39.3935 46.4238 39.3161 46.2375 39.3161 46.0194C39.3161 45.7944 39.3899 45.608 39.5376 45.4603C39.6924 45.3055 39.8823 45.2282 40.1073 45.2282C40.3254 45.2282 40.5118 45.3055 40.6665 45.4603C40.8212 45.615 40.8986 45.8014 40.8986 46.0194C40.8986 46.2375 40.8212 46.4238 40.6665 46.5786ZM40.6665 50.5349C40.5118 50.6896 40.3254 50.767 40.1073 50.767C39.8893 50.767 39.7029 50.6896 39.5482 50.5349C39.3935 50.3801 39.3161 50.1937 39.3161 49.9757C39.3161 49.7577 39.3899 49.5713 39.5376 49.4165C39.6924 49.2618 39.8823 49.1844 40.1073 49.1844C40.3254 49.1844 40.5118 49.2618 40.6665 49.4165C40.8212 49.5713 40.8986 49.7577 40.8986 49.9757C40.8986 50.1937 40.8212 50.3801 40.6665 50.5349Z" fill="url(#paint9_linear_523_8217)"/>
<path d="M41.773 50.6404V49.6908L44.3472 47.0639C44.9732 46.4379 45.2862 45.8963 45.2862 45.4392C45.2862 45.0805 45.1772 44.8027 44.9591 44.6057C44.7481 44.4018 44.4773 44.2998 44.1468 44.2998C43.5278 44.2998 43.0707 44.6057 42.7753 45.2176L41.7519 44.6163C41.984 44.1239 42.3111 43.7512 42.7331 43.498C43.1551 43.2448 43.6228 43.1182 44.1362 43.1182C44.7833 43.1182 45.3389 43.3221 45.8031 43.7301C46.2673 44.138 46.4994 44.6936 46.4994 45.397C46.4994 46.1495 46.0809 46.9514 45.244 47.8024L43.5771 49.4693H46.6366V50.6404H41.773Z" fill="url(#paint10_linear_523_8217)"/>
<path d="M52.3814 49.733C51.875 50.4294 51.1646 50.7775 50.2503 50.7775C49.336 50.7775 48.6221 50.4294 48.1086 49.733C47.6022 49.0367 47.349 48.1083 47.349 46.9478C47.349 45.7873 47.6022 44.8589 48.1086 44.1626C48.6221 43.4663 49.336 43.1182 50.2503 43.1182C51.1646 43.1182 51.875 43.4663 52.3814 44.1626C52.8949 44.8589 53.1516 45.7873 53.1516 46.9478C53.1516 48.1083 52.8949 49.0367 52.3814 49.733ZM50.2503 49.5959C50.7989 49.5959 51.2174 49.3673 51.5058 48.9101C51.7941 48.453 51.9383 47.7989 51.9383 46.9478C51.9383 46.0968 51.7941 45.4427 51.5058 44.9855C51.2174 44.5284 50.7989 44.2998 50.2503 44.2998C49.7087 44.2998 49.2903 44.5284 48.9949 44.9855C48.7065 45.4427 48.5623 46.0968 48.5623 46.9478C48.5623 47.7989 48.7065 48.453 48.9949 48.9101C49.2903 49.3673 49.7087 49.5959 50.2503 49.5959Z" fill="url(#paint11_linear_523_8217)"/>
<path d="M55.4446 43.2553H56.4997V50.6404H55.2864V44.553L53.7988 44.975L53.5034 43.9411L55.4446 43.2553Z" fill="url(#paint12_linear_523_8217)"/>
<path d="M60.8154 46.2726C61.3499 46.3992 61.7825 46.6489 62.113 47.0217C62.4506 47.3874 62.6194 47.8481 62.6194 48.4037C62.6194 49.1422 62.3697 49.7225 61.8704 50.1445C61.371 50.5665 60.7591 50.7775 60.0347 50.7775C59.472 50.7775 58.9656 50.6474 58.5155 50.3872C58.0723 50.1269 57.7523 49.7471 57.5554 49.2477L58.5893 48.6464C58.8073 49.2794 59.2891 49.5959 60.0347 49.5959C60.4567 49.5959 60.7907 49.4904 61.0369 49.2794C61.2831 49.0614 61.4062 48.7695 61.4062 48.4037C61.4062 48.038 61.2831 47.7496 61.0369 47.5386C60.7907 47.3276 60.4567 47.2221 60.0347 47.2221H59.7604L59.2751 46.4942L60.8681 44.3947H57.7769V43.2553H62.3135V44.2892L60.8154 46.2726Z" fill="url(#paint13_linear_523_8217)"/>
<defs>
<linearGradient id="paint0_linear_523_8217" x1="15.6257" y1="6.33003" x2="57.2984" y2="75.4329" gradientUnits="userSpaceOnUse">
<stop stop-color="#C56AEC"/>
<stop offset="1" stop-color="#5BDAEC"/>
</linearGradient>
<linearGradient id="paint1_linear_523_8217" x1="17.7341" y1="16.8801" x2="37.2827" y2="49.4611" gradientUnits="userSpaceOnUse">
<stop stop-color="#C070ED"/>
<stop offset="1" stop-color="#5FD7ED"/>
</linearGradient>
<linearGradient id="paint2_linear_523_8217" x1="17.7341" y1="16.8801" x2="37.2827" y2="49.4611" gradientUnits="userSpaceOnUse">
<stop stop-color="#C070ED"/>
<stop offset="1" stop-color="#5FD7ED"/>
</linearGradient>
<linearGradient id="paint3_linear_523_8217" x1="17.7341" y1="16.8801" x2="37.2827" y2="49.4611" gradientUnits="userSpaceOnUse">
<stop stop-color="#C070ED"/>
<stop offset="1" stop-color="#5FD7ED"/>
</linearGradient>
<linearGradient id="paint4_linear_523_8217" x1="11.404" y1="42.2002" x2="15.538" y2="62.4566" gradientUnits="userSpaceOnUse">
<stop stop-color="#C070ED"/>
<stop offset="1" stop-color="#5FD7ED"/>
</linearGradient>
<linearGradient id="paint5_linear_523_8217" x1="11.404" y1="42.2002" x2="15.538" y2="62.4566" gradientUnits="userSpaceOnUse">
<stop stop-color="#C070ED"/>
<stop offset="1" stop-color="#5FD7ED"/>
</linearGradient>
<linearGradient id="paint6_linear_523_8217" x1="11.404" y1="42.2002" x2="15.538" y2="62.4566" gradientUnits="userSpaceOnUse">
<stop stop-color="#C070ED"/>
<stop offset="1" stop-color="#5FD7ED"/>
</linearGradient>
<linearGradient id="paint7_linear_523_8217" x1="11.404" y1="42.2002" x2="15.538" y2="62.4566" gradientUnits="userSpaceOnUse">
<stop stop-color="#C070ED"/>
<stop offset="1" stop-color="#5FD7ED"/>
</linearGradient>
<linearGradient id="paint8_linear_523_8217" x1="11.404" y1="42.2002" x2="15.538" y2="62.4566" gradientUnits="userSpaceOnUse">
<stop stop-color="#C070ED"/>
<stop offset="1" stop-color="#5FD7ED"/>
</linearGradient>
<linearGradient id="paint9_linear_523_8217" x1="11.404" y1="42.2002" x2="15.538" y2="62.4566" gradientUnits="userSpaceOnUse">
<stop stop-color="#C070ED"/>
<stop offset="1" stop-color="#5FD7ED"/>
</linearGradient>
<linearGradient id="paint10_linear_523_8217" x1="11.404" y1="42.2002" x2="15.538" y2="62.4566" gradientUnits="userSpaceOnUse">
<stop stop-color="#C070ED"/>
<stop offset="1" stop-color="#5FD7ED"/>
</linearGradient>
<linearGradient id="paint11_linear_523_8217" x1="11.404" y1="42.2002" x2="15.538" y2="62.4566" gradientUnits="userSpaceOnUse">
<stop stop-color="#C070ED"/>
<stop offset="1" stop-color="#5FD7ED"/>
</linearGradient>
<linearGradient id="paint12_linear_523_8217" x1="11.404" y1="42.2002" x2="15.538" y2="62.4566" gradientUnits="userSpaceOnUse">
<stop stop-color="#C070ED"/>
<stop offset="1" stop-color="#5FD7ED"/>
</linearGradient>
<linearGradient id="paint13_linear_523_8217" x1="11.404" y1="42.2002" x2="15.538" y2="62.4566" gradientUnits="userSpaceOnUse">
<stop stop-color="#C070ED"/>
<stop offset="1" stop-color="#5FD7ED"/>
</linearGradient>
</defs>
</svg>
