<svg width="40" height="40" viewBox="0 0 40 40" fill="none" xmlns="http://www.w3.org/2000/svg">
    <path fill-rule="evenodd" clip-rule="evenodd"
          d="M16.0178 16.7793H13.0312V26.3978H16.0178V16.7793ZM16.2628 13.7327C16.2628 12.7764 15.4856 11.998 14.5308 11.998C13.5705 11.998 12.7988 12.7764 12.7988 13.7327C12.7988 14.689 13.5705 15.4674 14.5308 15.4674C15.4856 15.4674 16.2628 14.689 16.2628 13.7327ZM20.7534 16.7804H17.9001V26.3989H20.8811V21.6397C20.8811 20.3887 21.1143 19.1711 22.6686 19.1711C24.2008 19.1711 24.2174 20.6056 24.2174 21.7231V26.3989H27.1985V21.1282C27.1985 18.5373 26.6378 16.5469 23.6179 16.5469C22.1635 16.5469 21.192 17.3419 20.7923 18.0981H20.7534V16.7804Z"
          fill="white"/>
</svg>
