<svg width="280" height="96" viewBox="0 0 280 96" fill="none" xmlns="http://www.w3.org/2000/svg">
    <g clip-path="url(#clip0_150_1470)">
        <path
            d="M118.688 49.7031C120.275 49.7031 121.543 50.22 122.492 51.2537C123.442 52.2875 123.917 53.6716 123.918 55.4061V63.9325H120.349V55.6558C120.349 54.8244 120.146 54.1782 119.74 53.7173C119.334 53.2563 118.763 53.0254 118.026 53.0246C117.214 53.0246 116.582 53.2922 116.129 53.8274C115.677 54.3626 115.452 55.1381 115.453 56.1539V63.9325H111.884V55.6558C111.884 54.8244 111.681 54.1782 111.275 53.7173C110.869 53.2563 110.297 53.0254 109.559 53.0246C108.766 53.0246 108.134 53.2922 107.664 53.8274C107.194 54.3626 106.959 55.1381 106.959 56.1539V63.9325H103.391V50.0911H106.959V51.5585C107.789 50.3216 109.069 49.7031 110.798 49.7031C112.494 49.7031 113.749 50.3677 114.561 51.6968C115.486 50.3677 116.862 49.7031 118.688 49.7031Z"
            fill="white"/>
        <path
            d="M130.668 58.4792C131.148 60.2137 132.448 61.081 134.569 61.081C135.934 61.081 136.966 60.6196 137.667 59.6969L140.544 61.3614C139.179 63.3358 137.169 64.323 134.514 64.323C132.226 64.323 130.392 63.6308 129.012 62.2462C127.632 60.8616 126.937 59.1168 126.928 57.0118C126.928 54.9264 127.61 53.1867 128.975 51.7928C130.34 50.3988 132.092 49.7023 134.231 49.7031C136.26 49.7031 137.934 50.4044 139.253 51.8069C140.572 53.2094 141.231 54.9443 141.231 57.0118C141.228 57.5041 141.181 57.9951 141.092 58.4792H130.668ZM130.613 55.7109H137.667C137.464 54.7719 137.045 54.0707 136.409 53.6072C135.778 53.1468 135.015 52.9037 134.234 52.9144C133.276 52.9144 132.483 53.159 131.855 53.6481C131.227 54.1372 130.813 54.8248 130.613 55.7109Z"
            fill="white"/>
        <path
            d="M154.791 44.5586H158.359V63.9327H154.791V62.3002C153.739 63.6472 152.246 64.3207 150.313 64.3207C148.45 64.3207 146.859 63.6148 145.541 62.2029C144.223 60.791 143.563 59.0607 143.561 57.012C143.561 54.9633 144.22 53.2331 145.539 51.8212C146.857 50.4093 148.448 49.7033 150.31 49.7033C152.247 49.7033 153.74 50.3769 154.788 51.7239L154.791 44.5586ZM148.221 59.8277C148.948 60.5567 149.866 60.9212 150.973 60.9212C152.08 60.9212 152.993 60.5567 153.712 59.8277C154.431 59.0978 154.791 58.161 154.791 57.0171C154.791 55.8733 154.431 54.9365 153.712 54.2066C152.993 53.4776 152.08 53.1131 150.973 53.1131C149.866 53.1131 148.948 53.4776 148.221 54.2066C147.491 54.9365 147.127 55.8733 147.128 57.0171C147.129 58.161 147.493 59.0961 148.221 59.8226V59.8277Z"
            fill="white"/>
        <path
            d="M164.086 48.4293C163.509 48.4198 162.959 48.1863 162.551 47.7782C162.143 47.3701 161.91 46.8194 161.9 46.2424C161.899 45.9534 161.956 45.6671 162.068 45.4006C162.18 45.1342 162.344 44.8931 162.552 44.6918C162.747 44.4806 162.985 44.3125 163.249 44.1983C163.514 44.0841 163.799 44.0263 164.087 44.0285C164.379 44.0246 164.669 44.0815 164.938 44.1957C165.207 44.3098 165.45 44.4788 165.65 44.6918C165.857 44.8931 166.022 45.1343 166.133 45.4007C166.245 45.6672 166.302 45.9534 166.3 46.2424C166.303 46.5294 166.246 46.8138 166.134 47.0781C166.023 47.3424 165.858 47.581 165.65 47.7789C165.448 47.9887 165.204 48.1546 164.935 48.2665C164.666 48.3784 164.377 48.4338 164.086 48.4293ZM162.316 63.9327V50.0913H165.884V63.9327H162.316Z"
            fill="white"/>
        <path
            d="M180.353 50.0911H183.921V63.9325H180.353V62.3C179.283 63.647 177.78 64.3205 175.843 64.3205C173.999 64.3205 172.418 63.6145 171.098 62.2027C169.779 60.7908 169.119 59.0605 169.12 57.0118C169.12 54.9631 169.779 53.2328 171.098 51.821C172.417 50.4091 173.998 49.7031 175.843 49.7031C177.78 49.7031 179.283 50.3766 180.353 51.7236V50.0911ZM173.769 59.8223C174.488 60.5513 175.4 60.9158 176.507 60.9158C177.613 60.9158 178.531 60.5513 179.26 59.8223C179.989 59.0925 180.353 58.1557 180.353 57.0118C180.353 55.868 179.988 54.9311 179.259 54.2013C178.53 53.4723 177.612 53.1078 176.505 53.1078C175.399 53.1078 174.486 53.4723 173.767 54.2013C173.048 54.9311 172.689 55.868 172.689 57.0118C172.689 58.1557 173.049 59.0925 173.769 59.8223Z"
            fill="white"/>
        <path
            d="M191.03 54.0228C191.03 54.3916 191.275 54.6903 191.764 54.9191C192.34 55.1791 192.94 55.3828 193.555 55.5273C194.268 55.7067 194.97 55.9286 195.657 56.1918C196.368 56.4638 196.988 56.929 197.448 57.535C197.936 58.1624 198.18 58.9469 198.182 59.8884C198.182 61.3097 197.651 62.4032 196.591 63.1689C195.531 63.9346 194.209 64.3187 192.625 64.3213C189.784 64.3213 187.847 63.2231 186.814 61.0267L189.897 59.2841C190.303 60.4791 191.207 61.0767 192.608 61.0767C193.88 61.0767 194.516 60.6802 194.517 59.8871C194.517 59.5171 194.271 59.2175 193.784 58.9908C193.207 58.7297 192.607 58.521 191.993 58.3673C191.279 58.1786 190.577 57.9477 189.89 57.6758C189.189 57.4013 188.571 56.948 188.099 56.3609C187.61 55.7633 187.366 55.0113 187.366 54.1047C187.366 52.7389 187.869 51.6638 188.874 50.8793C189.88 50.0949 191.129 49.7026 192.622 49.7026C193.694 49.6893 194.751 49.9512 195.693 50.4632C196.612 50.9683 197.369 51.7229 197.878 52.6399L194.836 54.3045C194.393 53.3655 193.655 52.896 192.622 52.896C192.216 52.8803 191.815 52.9864 191.471 53.2008C191.333 53.2883 191.22 53.41 191.143 53.554C191.066 53.698 191.027 53.8595 191.03 54.0228Z"
            fill="white"/>
        <path
            d="M203.978 58.4792C204.458 60.2137 205.759 61.081 207.879 61.081C209.244 61.081 210.277 60.6196 210.977 59.6969L213.855 61.3614C212.49 63.3358 210.48 64.323 207.824 64.323C205.536 64.323 203.703 63.6308 202.322 62.2462C200.942 60.8616 200.249 59.1168 200.243 57.0118C200.243 54.9264 200.926 53.1867 202.29 51.7928C203.655 50.3988 205.407 49.7023 207.547 49.7031C209.576 49.7031 211.25 50.4044 212.569 51.8069C213.887 53.2094 214.547 54.9443 214.547 57.0118C214.543 57.5041 214.497 57.9951 214.407 58.4792H203.978ZM203.923 55.7109H210.977C210.775 54.7719 210.356 54.0707 209.719 53.6072C209.088 53.1466 208.325 52.9035 207.544 52.9144C206.585 52.9144 205.792 53.159 205.165 53.6481C204.538 54.1372 204.124 54.8248 203.923 55.7109Z"
            fill="white"/>
        <path
            d="M221.296 52.4721C221.589 51.6322 222.173 50.9251 222.942 50.4784C223.72 50.0318 224.604 49.8023 225.501 49.8139V53.8011C224.48 53.6564 223.441 53.893 222.583 54.4657C221.725 55.0376 221.296 55.9881 221.296 57.3172V63.9332H217.728V50.0917H221.296V52.4721Z"
            fill="white"/>
        <path
            d="M237.369 50.0918H241.297L236.041 63.9332H231.975L226.719 50.0918H230.647L233.994 59.7808L237.369 50.0918Z"
            fill="white"/>
        <path
            d="M245.474 48.4293C244.897 48.4204 244.347 48.1871 243.939 47.7789C243.531 47.3707 243.298 46.8196 243.289 46.2424C243.288 45.9534 243.344 45.6672 243.456 45.4007C243.568 45.1343 243.732 44.8931 243.939 44.6918C244.135 44.4806 244.373 44.3126 244.637 44.1984C244.901 44.0842 245.186 44.0264 245.474 44.0285C245.766 44.0246 246.056 44.0816 246.325 44.1958C246.594 44.31 246.836 44.4789 247.036 44.6918C247.243 44.8931 247.408 45.1343 247.519 45.4007C247.631 45.6672 247.688 45.9534 247.686 46.2424C247.689 46.5294 247.632 46.8138 247.521 47.0781C247.409 47.3424 247.244 47.5809 247.036 47.7789C246.834 47.9883 246.591 48.1541 246.323 48.266C246.054 48.3779 245.765 48.4334 245.474 48.4293ZM243.704 63.9327V50.0913H247.272V63.9327H243.704Z"
            fill="white"/>
        <path
            d="M257.813 64.3209C255.729 64.3209 253.991 63.6197 252.598 62.2172C251.205 60.8147 250.509 59.0797 250.51 57.0123C250.51 54.9456 251.206 53.2107 252.598 51.8073C253.99 50.404 255.728 49.7027 257.813 49.7036C259.104 49.6891 260.375 50.024 261.492 50.6729C262.563 51.2813 263.436 52.1843 264.01 53.2747L260.939 55.0737C260.666 54.505 260.227 54.0324 259.68 53.7177C259.105 53.3826 258.45 53.2104 257.785 53.2196C256.715 53.2196 255.83 53.5747 255.129 54.2849C254.428 54.9952 254.077 55.9043 254.078 57.0123C254.078 58.1015 254.428 59.0012 255.129 59.7114C255.829 60.4216 256.715 60.7767 257.785 60.7767C258.456 60.7879 259.119 60.6209 259.704 60.2927C260.252 59.9853 260.691 59.5162 260.962 58.9495L264.061 60.7216C263.454 61.8094 262.565 62.7131 261.488 63.3376C260.375 63.9944 259.105 64.3344 257.813 64.3209Z"
            fill="white"/>
        <path
            d="M269.432 58.4795C269.911 60.2141 271.211 61.0814 273.332 61.0814C274.697 61.0814 275.73 60.62 276.431 59.6972L279.307 61.3618C277.943 63.3362 275.933 64.3234 273.277 64.3234C270.99 64.3234 269.156 63.6311 267.775 62.2466C266.394 60.862 265.703 59.118 265.701 57.0147C265.701 54.9293 266.384 53.1897 267.748 51.7957C269.113 50.4018 270.865 49.7052 273.005 49.7061C275.033 49.7061 276.707 50.4073 278.025 51.8098C279.344 53.2123 280.004 54.9473 280.004 57.0147C280.001 57.507 279.954 57.998 279.865 58.4821L269.432 58.4795ZM269.376 55.7113H276.431C276.228 54.7723 275.808 54.071 275.172 53.6075C274.541 53.1467 273.778 52.9036 272.997 52.9148C272.037 52.9148 271.244 53.1594 270.617 53.6485C269.99 54.1376 269.576 54.8252 269.376 55.7113Z"
            fill="white"/>
        <path d="M30.541 64.4123L59.1662 79.8991L87.4984 63.5672V32.9561L30.541 64.4123Z"
              fill="url(#paint0_linear_150_1470)"/>
        <path d="M30.5405 96.0002L2.0625 80.4264L30.5405 64.4121L59.1657 79.8989L30.5405 96.0002Z"
              fill="url(#paint1_linear_150_1470)"/>
        <path d="M87.4926 0L87.5016 31.3935L56.6411 48.5218L27.6807 33.3705L87.4926 0Z"
              fill="url(#paint2_linear_150_1470)"/>
        <path d="M28.3091 63.9326L56.6413 48.5214L27.6809 33.3701L0 48.5009L28.3091 63.9326Z"
              fill="url(#paint3_linear_150_1470)"/>
        <path d="M27.6809 33.3702L0 48.501V16.918L27.6809 33.3702Z" fill="url(#paint4_linear_150_1470)"/>
        <path d="M87.5013 31.3935L60.1582 15.2499L87.4923 0L87.5013 31.3935Z" fill="url(#paint5_linear_150_1470)"/>
    </g>
    <defs>
        <linearGradient id="paint0_linear_150_1470" x1="58.7056" y1="48.1406" x2="72.5942" y2="72.1784"
                        gradientUnits="userSpaceOnUse">
            <stop stop-color="#F9D518"/>
            <stop offset="0.08" stop-color="#F7B81D"/>
            <stop offset="0.2" stop-color="#F59524"/>
            <stop offset="0.31" stop-color="#F37C28"/>
            <stop offset="0.41" stop-color="#F26C2B"/>
            <stop offset="0.49" stop-color="#F2672C"/>
            <stop offset="0.93" stop-color="#EE3152"/>
        </linearGradient>
        <linearGradient id="paint1_linear_150_1470" x1="2.0625" y1="80.2062" x2="59.1657" y2="80.2062"
                        gradientUnits="userSpaceOnUse">
            <stop stop-color="#F9ED32"/>
            <stop offset="0.16" stop-color="#F9E932"/>
            <stop offset="0.32" stop-color="#F8DB31"/>
            <stop offset="0.5" stop-color="#F7C630"/>
            <stop offset="0.68" stop-color="#F5A72F"/>
            <stop offset="0.86" stop-color="#F3802D"/>
            <stop offset="0.97" stop-color="#F2672C"/>
        </linearGradient>
        <linearGradient id="paint2_linear_150_1470" x1="34.7308" y1="45.5896" x2="94.0509" y2="11.366"
                        gradientUnits="userSpaceOnUse">
            <stop stop-color="#567CBE"/>
            <stop offset="0.13" stop-color="#6186C4"/>
            <stop offset="0.27" stop-color="#668AC6"/>
            <stop offset="0.52" stop-color="#7173B7"/>
            <stop offset="0.81" stop-color="#7A5EA9"/>
            <stop offset="1" stop-color="#7E57A4"/>
        </linearGradient>
        <linearGradient id="paint3_linear_150_1470" x1="28.3206" y1="33.3701" x2="28.3206" y2="63.9326"
                        gradientUnits="userSpaceOnUse">
            <stop stop-color="#5FC8D9"/>
            <stop offset="0.21" stop-color="#5DC0D6"/>
            <stop offset="0.54" stop-color="#59A9CE"/>
            <stop offset="0.95" stop-color="#5183C1"/>
            <stop offset="1" stop-color="#507EBF"/>
        </linearGradient>
        <linearGradient id="paint4_linear_150_1470" x1="13.9402" y1="24.9719" x2="0.259104" y2="48.6512"
                        gradientUnits="userSpaceOnUse">
            <stop stop-color="#86D3E1"/>
            <stop offset="0.17" stop-color="#82D1E1"/>
            <stop offset="0.35" stop-color="#75CAE2"/>
            <stop offset="0.54" stop-color="#5FBEE2"/>
            <stop offset="0.73" stop-color="#42AEE3"/>
            <stop offset="0.87" stop-color="#37ACE2"/>
            <stop offset="1" stop-color="#27AAE1"/>
        </linearGradient>
        <linearGradient id="paint5_linear_150_1470" x1="87.5294" y1="31.3769" x2="73.6933" y2="7.42996"
                        gradientUnits="userSpaceOnUse">
            <stop stop-color="#7E57A4"/>
            <stop offset="0.34" stop-color="#7E73B6"/>
            <stop offset="0.76" stop-color="#7F90C8"/>
            <stop offset="1" stop-color="#7F9BCF"/>
        </linearGradient>
        <clipPath id="clip0_150_1470">
            <rect width="280" height="96" fill="white"/>
        </clipPath>
    </defs>
</svg>
