<svg width="104" height="1010" viewBox="0 0 104 1010" fill="none" xmlns="http://www.w3.org/2000/svg">
<g opacity="0.5">
<mask id="path-1-outside-1_570_8389" maskUnits="userSpaceOnUse" x="0.0390625" y="0.100098" width="104" height="1010" fill="black">
<rect fill="white" x="0.0390625" y="0.100098" width="104" height="1010"/>
<path d="M100.999 97.0001H2.9991L2.9991 77.8201L66.5591 77.8201L21.0591 50.2401V48.0001L66.4191 20.4201L2.9991 20.4201L2.9991 1.1001L100.999 1.1001V20.9801L54.6591 49.1201L100.999 77.1201V97.0001ZM21.4791 140.18L21.4791 181.48H2.99909L2.9991 120.86L100.999 120.86V180.78H82.5191V140.18H61.6591V177.28H43.4591V140.18H21.4791ZM100.999 239.619C100.999 253.059 96.2858 264.259 86.8591 273.219C77.4324 282.272 65.8124 286.799 51.9991 286.799C38.1858 286.799 26.5658 282.272 17.1391 273.219C7.71242 264.259 2.99909 253.059 2.99909 239.619L2.99909 200.699H100.999V239.619ZM21.4791 239.619C21.4791 248.112 24.2791 255.019 29.8791 260.339C35.5724 265.659 42.9458 268.319 51.9991 268.319C61.0524 268.319 68.3791 265.659 73.9791 260.339C79.6724 255.019 82.5191 248.112 82.5191 239.619V220.019H21.4791V239.619ZM100.999 306.103V325.423H2.99909L2.99909 306.103H100.999ZM2.99908 412.164L20.6391 406.284L20.6391 367.224L2.99909 361.344L2.99909 340.484L100.999 374.784V398.724L2.99908 433.164L2.99908 412.164ZM38.6991 373.384V400.264L78.7391 386.824L38.6991 373.384ZM1.03908 479.552C1.03908 469.846 3.18575 461.679 7.47908 455.052C11.8657 448.426 17.7924 443.759 25.2591 441.052L34.9191 457.572C24.9324 461.399 19.9391 468.912 19.9391 480.112C19.9391 485.526 20.9191 489.492 22.8791 492.012C24.8391 494.532 27.3124 495.792 30.2991 495.792C33.7524 495.792 36.4124 494.252 38.2791 491.172C40.2391 488.092 42.3391 482.586 44.5791 474.652C45.8857 470.266 47.1924 466.532 48.4991 463.452C49.8058 460.466 51.5324 457.432 53.6791 454.352C55.9191 451.366 58.7191 449.079 62.0791 447.492C65.4391 445.906 69.3591 445.112 73.8391 445.112C82.7057 445.112 89.7524 448.239 94.9791 454.492C100.299 460.839 102.959 468.446 102.959 477.312C102.959 485.246 100.999 492.199 97.0791 498.172C93.2524 504.239 87.8858 508.952 80.9791 512.312L71.5991 496.072C79.9991 492.152 84.1991 485.899 84.1991 477.312C84.1991 473.299 83.2657 470.126 81.3991 467.792C79.6257 465.552 77.2924 464.432 74.3991 464.432C71.3191 464.432 68.7991 465.692 66.8391 468.212C64.9724 470.826 62.9191 475.772 60.6791 483.052C59.7458 486.039 58.9991 488.279 58.4391 489.772C57.9724 491.359 57.1791 493.459 56.0591 496.072C55.0324 498.779 54.0524 500.832 53.1191 502.232C52.1857 503.726 50.9258 505.406 49.3391 507.272C47.7524 509.139 46.1191 510.539 44.4391 511.472C42.7591 512.499 40.7057 513.339 38.2791 513.992C35.9457 514.739 33.3791 515.112 30.5791 515.112C21.5257 515.112 14.3391 511.799 9.01908 505.172C3.69908 498.639 1.03908 490.099 1.03908 479.552ZM21.4791 551.95L21.4791 593.25H2.99908L2.99908 532.63H100.999V592.55H82.5191V551.95H61.6591V589.05H43.4591L43.4591 551.95H21.4791ZM2.99907 666.228L37.0191 646.488L37.0191 631.788H2.99907L2.99907 612.468H100.999L100.999 651.668C100.999 660.721 97.8257 668.421 91.4791 674.768C85.1324 681.115 77.4791 684.288 68.5191 684.288C62.4524 684.288 56.8057 682.561 51.5791 679.108C46.4457 675.655 42.5724 671.081 39.9591 665.388L2.99907 687.088L2.99907 666.228ZM82.9391 631.788H53.9591V651.668C53.9591 655.308 55.3591 658.435 58.1591 661.048C61.0524 663.661 64.5057 664.968 68.5191 664.968C72.5324 664.968 75.9391 663.661 78.7391 661.048C81.5391 658.435 82.9391 655.308 82.9391 651.668V631.788ZM2.99907 726.78L100.999 693.88V714.88L25.6791 738.82L100.999 762.62V783.76L2.99907 750.72L2.99907 726.78ZM100.999 798.805L100.999 818.125H2.99907L2.99907 798.805H100.999ZM1.03906 888.346C1.03906 873.599 5.93906 861.419 15.7391 851.806C25.5391 842.192 37.6257 837.386 51.9991 837.386C66.4657 837.386 78.5524 842.192 88.2591 851.806C98.0591 861.419 102.959 873.599 102.959 888.346C102.959 897.212 100.859 905.379 96.6591 912.846C92.5524 920.406 86.9524 926.286 79.8591 930.486L70.1991 913.826C74.5857 911.399 77.9924 907.946 80.4191 903.466C82.9391 898.986 84.1991 893.946 84.1991 888.346C84.1991 878.826 81.2124 871.126 75.2391 865.246C69.2657 859.459 61.5191 856.566 51.9991 856.566C42.5724 856.566 34.8724 859.459 28.8991 865.246C22.9257 871.126 19.9391 878.826 19.9391 888.346C19.9391 893.946 21.1524 898.986 23.5791 903.466C26.0991 908.039 29.5057 911.492 33.7991 913.826L24.1391 930.486C17.0457 926.286 11.3991 920.452 7.19906 912.986C3.0924 905.519 1.03906 897.306 1.03906 888.346ZM21.4791 967.274L21.4791 1008.57H2.99906L2.99906 947.954H100.999L100.999 1007.87H82.5191V967.274H61.6591V1004.37H43.4591L43.4591 967.274H21.4791Z"/>
</mask>
<path d="M100.999 97.0001H2.9991L2.9991 77.8201L66.5591 77.8201L21.0591 50.2401V48.0001L66.4191 20.4201L2.9991 20.4201L2.9991 1.1001L100.999 1.1001V20.9801L54.6591 49.1201L100.999 77.1201V97.0001ZM21.4791 140.18L21.4791 181.48H2.99909L2.9991 120.86L100.999 120.86V180.78H82.5191V140.18H61.6591V177.28H43.4591V140.18H21.4791ZM100.999 239.619C100.999 253.059 96.2858 264.259 86.8591 273.219C77.4324 282.272 65.8124 286.799 51.9991 286.799C38.1858 286.799 26.5658 282.272 17.1391 273.219C7.71242 264.259 2.99909 253.059 2.99909 239.619L2.99909 200.699H100.999V239.619ZM21.4791 239.619C21.4791 248.112 24.2791 255.019 29.8791 260.339C35.5724 265.659 42.9458 268.319 51.9991 268.319C61.0524 268.319 68.3791 265.659 73.9791 260.339C79.6724 255.019 82.5191 248.112 82.5191 239.619V220.019H21.4791V239.619ZM100.999 306.103V325.423H2.99909L2.99909 306.103H100.999ZM2.99908 412.164L20.6391 406.284L20.6391 367.224L2.99909 361.344L2.99909 340.484L100.999 374.784V398.724L2.99908 433.164L2.99908 412.164ZM38.6991 373.384V400.264L78.7391 386.824L38.6991 373.384ZM1.03908 479.552C1.03908 469.846 3.18575 461.679 7.47908 455.052C11.8657 448.426 17.7924 443.759 25.2591 441.052L34.9191 457.572C24.9324 461.399 19.9391 468.912 19.9391 480.112C19.9391 485.526 20.9191 489.492 22.8791 492.012C24.8391 494.532 27.3124 495.792 30.2991 495.792C33.7524 495.792 36.4124 494.252 38.2791 491.172C40.2391 488.092 42.3391 482.586 44.5791 474.652C45.8857 470.266 47.1924 466.532 48.4991 463.452C49.8058 460.466 51.5324 457.432 53.6791 454.352C55.9191 451.366 58.7191 449.079 62.0791 447.492C65.4391 445.906 69.3591 445.112 73.8391 445.112C82.7057 445.112 89.7524 448.239 94.9791 454.492C100.299 460.839 102.959 468.446 102.959 477.312C102.959 485.246 100.999 492.199 97.0791 498.172C93.2524 504.239 87.8858 508.952 80.9791 512.312L71.5991 496.072C79.9991 492.152 84.1991 485.899 84.1991 477.312C84.1991 473.299 83.2657 470.126 81.3991 467.792C79.6257 465.552 77.2924 464.432 74.3991 464.432C71.3191 464.432 68.7991 465.692 66.8391 468.212C64.9724 470.826 62.9191 475.772 60.6791 483.052C59.7458 486.039 58.9991 488.279 58.4391 489.772C57.9724 491.359 57.1791 493.459 56.0591 496.072C55.0324 498.779 54.0524 500.832 53.1191 502.232C52.1857 503.726 50.9258 505.406 49.3391 507.272C47.7524 509.139 46.1191 510.539 44.4391 511.472C42.7591 512.499 40.7057 513.339 38.2791 513.992C35.9457 514.739 33.3791 515.112 30.5791 515.112C21.5257 515.112 14.3391 511.799 9.01908 505.172C3.69908 498.639 1.03908 490.099 1.03908 479.552ZM21.4791 551.95L21.4791 593.25H2.99908L2.99908 532.63H100.999V592.55H82.5191V551.95H61.6591V589.05H43.4591L43.4591 551.95H21.4791ZM2.99907 666.228L37.0191 646.488L37.0191 631.788H2.99907L2.99907 612.468H100.999L100.999 651.668C100.999 660.721 97.8257 668.421 91.4791 674.768C85.1324 681.115 77.4791 684.288 68.5191 684.288C62.4524 684.288 56.8057 682.561 51.5791 679.108C46.4457 675.655 42.5724 671.081 39.9591 665.388L2.99907 687.088L2.99907 666.228ZM82.9391 631.788H53.9591V651.668C53.9591 655.308 55.3591 658.435 58.1591 661.048C61.0524 663.661 64.5057 664.968 68.5191 664.968C72.5324 664.968 75.9391 663.661 78.7391 661.048C81.5391 658.435 82.9391 655.308 82.9391 651.668V631.788ZM2.99907 726.78L100.999 693.88V714.88L25.6791 738.82L100.999 762.62V783.76L2.99907 750.72L2.99907 726.78ZM100.999 798.805L100.999 818.125H2.99907L2.99907 798.805H100.999ZM1.03906 888.346C1.03906 873.599 5.93906 861.419 15.7391 851.806C25.5391 842.192 37.6257 837.386 51.9991 837.386C66.4657 837.386 78.5524 842.192 88.2591 851.806C98.0591 861.419 102.959 873.599 102.959 888.346C102.959 897.212 100.859 905.379 96.6591 912.846C92.5524 920.406 86.9524 926.286 79.8591 930.486L70.1991 913.826C74.5857 911.399 77.9924 907.946 80.4191 903.466C82.9391 898.986 84.1991 893.946 84.1991 888.346C84.1991 878.826 81.2124 871.126 75.2391 865.246C69.2657 859.459 61.5191 856.566 51.9991 856.566C42.5724 856.566 34.8724 859.459 28.8991 865.246C22.9257 871.126 19.9391 878.826 19.9391 888.346C19.9391 893.946 21.1524 898.986 23.5791 903.466C26.0991 908.039 29.5057 911.492 33.7991 913.826L24.1391 930.486C17.0457 926.286 11.3991 920.452 7.19906 912.986C3.0924 905.519 1.03906 897.306 1.03906 888.346ZM21.4791 967.274L21.4791 1008.57H2.99906L2.99906 947.954H100.999L100.999 1007.87H82.5191V967.274H61.6591V1004.37H43.4591L43.4591 967.274H21.4791Z" stroke="url(#paint0_linear_570_8389)" stroke-width="2" mask="url(#path-1-outside-1_570_8389)"/>
</g>
<defs>
<linearGradient id="paint0_linear_570_8389" x1="4.63624" y1="644.169" x2="109.026" y2="643.154" gradientUnits="userSpaceOnUse">
<stop stop-color="#6F95D8"/>
<stop offset="1" stop-color="#9D5BDD"/>
</linearGradient>
</defs>
</svg>
