<svg width="293" height="322" viewBox="0 0 293 322" fill="none" xmlns="http://www.w3.org/2000/svg">
<path d="M102.061 216.048L197.721 267.993L292.402 213.214V110.539L102.061 216.048Z" fill="url(#paint0_linear_180_2529)"/>
<path d="M102.059 322L6.89038 269.763L102.059 216.048L197.719 267.994L102.059 322Z" fill="url(#paint1_linear_180_2529)"/>
<path d="M292.385 0L292.415 105.299L189.285 162.75L92.5046 111.93L292.385 0Z" fill="url(#paint2_linear_180_2529)"/>
<path d="M94.604 214.442L189.285 162.75L92.5045 111.93L0 162.681L94.604 214.442Z" fill="url(#paint3_linear_180_2529)"/>
<path d="M92.5046 111.93L0 162.681V56.7466L92.5046 111.93Z" fill="url(#paint4_linear_180_2529)"/>
<path d="M292.416 105.299L201.041 51.1507L292.386 0L292.416 105.299Z" fill="url(#paint5_linear_180_2529)"/>
<defs>
<linearGradient id="paint0_linear_180_2529" x1="196.182" y1="161.47" x2="242.852" y2="241.948" gradientUnits="userSpaceOnUse">
<stop stop-color="#F9D518"/>
<stop offset="0.08" stop-color="#F7B81D"/>
<stop offset="0.2" stop-color="#F59524"/>
<stop offset="0.31" stop-color="#F37C28"/>
<stop offset="0.41" stop-color="#F26C2B"/>
<stop offset="0.49" stop-color="#F2672C"/>
<stop offset="0.93" stop-color="#EE3152"/>
</linearGradient>
<linearGradient id="paint1_linear_180_2529" x1="6.89038" y1="269.024" x2="197.719" y2="269.024" gradientUnits="userSpaceOnUse">
<stop stop-color="#F9ED32"/>
<stop offset="0.487993" stop-color="#F2914B"/>
<stop offset="0.97" stop-color="#F2672C"/>
</linearGradient>
<linearGradient id="paint2_linear_180_2529" x1="116.065" y1="152.915" x2="314.666" y2="38.7577" gradientUnits="userSpaceOnUse">
<stop stop-color="#567CBE"/>
<stop offset="0.13" stop-color="#6186C4"/>
<stop offset="0.27" stop-color="#668AC6"/>
<stop offset="0.52" stop-color="#7173B7"/>
<stop offset="0.81" stop-color="#7A5EA9"/>
<stop offset="1" stop-color="#7E57A4"/>
</linearGradient>
<linearGradient id="paint3_linear_180_2529" x1="94.6425" y1="111.93" x2="94.6425" y2="214.442" gradientUnits="userSpaceOnUse">
<stop stop-color="#5FC8D9"/>
<stop offset="0.21" stop-color="#5DC0D6"/>
<stop offset="0.54" stop-color="#59A9CE"/>
<stop offset="0.95" stop-color="#5183C1"/>
<stop offset="1" stop-color="#507EBF"/>
</linearGradient>
<linearGradient id="paint4_linear_180_2529" x1="46.5858" y1="83.7607" x2="0.612601" y2="163.038" gradientUnits="userSpaceOnUse">
<stop stop-color="#86D3E1"/>
<stop offset="0.17" stop-color="#82D1E1"/>
<stop offset="0.35" stop-color="#75CAE2"/>
<stop offset="0.54" stop-color="#5FBEE2"/>
<stop offset="0.73" stop-color="#42AEE3"/>
<stop offset="0.87" stop-color="#37ACE2"/>
<stop offset="1" stop-color="#27AAE1"/>
</linearGradient>
<linearGradient id="paint5_linear_180_2529" x1="292.51" y1="105.243" x2="246.016" y2="25.0698" gradientUnits="userSpaceOnUse">
<stop stop-color="#7E57A4"/>
<stop offset="0.34" stop-color="#7E73B6"/>
<stop offset="0.76" stop-color="#7F90C8"/>
<stop offset="1" stop-color="#7F9BCF"/>
</linearGradient>
</defs>
</svg>
