<?xml version="1.0" encoding="utf-8"?>
<!-- Generator: Adobe Illustrator 24.0.2, SVG Export Plug-In . SVG Version: 6.00 Build 0)  -->
<svg version="1.1" id="Слой_1" xmlns="http://www.w3.org/2000/svg" xmlns:xlink="http://www.w3.org/1999/xlink" x="0px" y="0px"
	 viewBox="0 0 24 24" style="enable-background:new 0 0 24 24;" xml:space="preserve">
<style type="text/css">
	.st0{clip-path:url(#SVGID_2_);}
	.st1{fill:#29416F;}
</style>
<g>
	<defs>
		<rect id="SVGID_1_" y="0" width="24" height="24"/>
	</defs>
	<clipPath id="SVGID_2_">
		<use xlink:href="#SVGID_1_"  style="overflow:visible;"/>
	</clipPath>
	<g class="st0">
		<g>
			<path class="st1" d="M21,10.3h-4.5c-0.6,0-1-0.4-1-1s0.4-1,1-1H20V4.8c0-0.6,0.4-1,1-1s1,0.4,1,1v4.5C22,9.9,21.6,10.3,21,10.3z"
				/>
		</g>
		<g>
			<path class="st1" d="M12,21.3c-1.2,0-2.4-0.2-3.5-0.7c-1.7-0.7-3.1-1.9-4.2-3.4c-1-1.5-1.6-3.3-1.6-5.1s0.5-3.6,1.6-5.1
				c1-1.5,2.5-2.7,4.2-3.4c1.7-0.7,3.5-0.9,5.3-0.5c1.8,0.4,3.4,1.2,4.7,2.5l3.2,3.2c0.4,0.4,0.4,1,0,1.4c-0.4,0.4-1,0.4-1.4,0
				l-3.2-3.2c-1-1-2.3-1.7-3.7-2C12,4.6,10.6,4.8,9.2,5.3C7.9,5.9,6.8,6.8,6,8s-1.2,2.6-1.2,4c0,1.4,0.4,2.8,1.2,4
				c0.8,1.2,1.9,2.1,3.3,2.7c1.3,0.5,2.8,0.7,4.2,0.4c1.4-0.3,2.7-1,3.7-2c0.4-0.4,1-0.4,1.4,0s0.4,1,0,1.4
				c-1.3,1.3-2.9,2.2-4.7,2.5C13.2,21.2,12.6,21.3,12,21.3z"/>
		</g>
	</g>
</g>
</svg>
