<svg width="470" height="79" viewBox="0 0 470 79" fill="none" xmlns="http://www.w3.org/2000/svg">
<path fill-rule="evenodd" clip-rule="evenodd" d="M18.8802 77.0001H0.240234V2.20014H28.8002C36.1946 2.20014 42.4817 4.72354 47.5983 9.76804C52.7122 14.8099 55.2802 20.96 55.2802 28.1601C55.2802 35.3603 52.7122 41.5104 47.5983 46.5522C42.4817 51.5967 36.1946 54.1201 28.8002 54.1201H18.8802V77.0001ZM17.8802 53.1201H28.8002C35.9416 53.1201 41.9736 50.6935 46.8962 45.8401C51.8189 40.9868 54.2802 35.0935 54.2802 28.1601C54.2802 21.2268 51.8189 15.3335 46.8962 10.4801C41.9736 5.62681 35.9416 3.20014 28.8002 3.20014H1.24023V76.0001H17.8802V53.1201ZM28.8002 36.5201C31.1009 36.5201 32.9443 35.7251 34.4094 34.1379C35.8896 32.5343 36.6402 30.5637 36.6402 28.1601C36.6402 25.7566 35.8896 23.786 34.4094 22.1824C32.9443 20.5952 31.1009 19.8001 28.8002 19.8001H18.8802V36.5201H28.8002ZM28.8002 37.5201C31.3656 37.5201 33.4802 36.6188 35.1442 34.8161C36.8082 33.0135 37.6402 30.7948 37.6402 28.1601C37.6402 25.5255 36.8082 23.3068 35.1442 21.5041C33.4802 19.7015 31.3656 18.8001 28.8002 18.8001H17.8802V37.5201H28.8002ZM106.517 77.0001L92.7889 53.0801H86.464V77.0001H67.824V2.20014H97.944C105.14 2.20014 111.288 4.73003 116.331 9.77303C121.374 14.816 123.904 20.9646 123.904 28.1601C123.904 32.7969 122.597 37.1111 119.998 41.0821C117.664 44.6822 114.617 47.5443 110.87 49.6616L126.72 77.0001H106.517ZM109.488 49.2721C109.786 49.1181 110.079 48.9596 110.368 48.7964C113.982 46.7564 116.913 44.0029 119.16 40.5361C121.656 36.7228 122.904 32.5975 122.904 28.1601C122.904 21.2268 120.477 15.3335 115.624 10.4801C110.771 5.62681 104.877 3.20014 97.944 3.20014H68.824V76.0001H85.464V52.0801H93.368L107.096 76.0001H124.984L109.488 49.2721ZM103.026 34.1456L103.033 34.1379C104.513 32.5343 105.264 30.5637 105.264 28.1601C105.264 25.7566 104.513 23.786 103.033 22.1824L103.026 22.1746L103.019 22.1667C101.603 20.566 99.9291 19.8001 97.944 19.8001H86.464V36.5201H97.944C99.9291 36.5201 101.603 35.7543 103.019 34.1536L103.026 34.1456ZM85.464 37.5201V18.8001H97.944C100.232 18.8001 102.173 19.7015 103.768 21.5041C105.432 23.3068 106.264 25.5255 106.264 28.1601C106.264 30.7948 105.432 33.0135 103.768 34.8161C102.173 36.6188 100.232 37.5201 97.944 37.5201H85.464ZM187.142 54.493L187.148 54.487C191.025 50.6756 192.985 45.7436 192.985 39.6001C192.985 33.4567 191.025 28.5247 187.148 24.7133L187.142 24.7073C183.32 20.8857 178.553 18.9681 172.769 18.9681C166.986 18.9681 162.182 20.8849 158.289 24.71C154.481 28.5199 152.553 33.4529 152.553 39.6001C152.553 45.7475 154.481 50.6806 158.289 54.4905C162.182 58.3154 166.986 60.2321 172.769 60.2321C178.553 60.2321 183.32 58.3146 187.142 54.493ZM157.585 55.2001C153.563 51.1788 151.553 45.9788 151.553 39.6001C151.553 33.2215 153.563 28.0215 157.585 24.0001C161.675 19.9788 166.737 17.9681 172.769 17.9681C178.801 17.9681 183.827 19.9788 187.849 24.0001C191.939 28.0215 193.985 33.2215 193.985 39.6001C193.985 45.9788 191.939 51.1788 187.849 55.2001C183.827 59.2215 178.801 61.2321 172.769 61.2321C166.737 61.2321 161.675 59.2215 157.585 55.2001ZM200.304 67.2466C192.764 74.7159 183.565 78.4561 172.769 78.4561C161.972 78.4561 152.773 74.7159 145.233 67.2466C137.687 59.7721 133.913 50.5347 133.913 39.6001C133.913 28.6656 137.687 19.4282 145.233 11.9537C152.773 4.48434 161.972 0.744141 172.769 0.744141C183.565 0.744141 192.764 4.48434 200.304 11.9537C207.85 19.4282 211.625 28.6656 211.625 39.6001C211.625 50.5347 207.85 59.7721 200.304 67.2466ZM229.912 73.5105L229.905 73.506C224.806 70.1305 221.17 65.5586 219.017 59.8153L218.72 59.0232L234.776 49.7152L235.223 50.7468C236.617 53.9673 238.506 56.321 240.862 57.8755C243.217 59.4297 246.111 60.2321 249.593 60.2321C252.819 60.2321 255.072 59.7424 256.489 58.8927C257.823 58.0917 258.473 56.9414 258.473 55.3041C258.473 53.5781 257.652 52.2219 255.768 51.189L255.751 51.1796L255.735 51.1696C253.786 50.0005 249.957 48.6085 244.129 47.0126C241.04 46.1701 238.318 45.2173 235.971 44.1505C233.611 43.0777 231.296 41.6871 229.025 39.9841L229.011 39.9736L228.997 39.9626C226.725 38.13 224.966 35.8561 223.724 33.1536L223.72 33.1434L223.715 33.1331C222.542 30.4209 221.969 27.3351 221.969 23.8961C221.969 16.9011 224.473 11.2379 229.502 7.01066L229.507 7.0061C234.55 2.82739 240.534 0.744141 247.409 0.744141C253.536 0.744141 258.991 2.20652 263.741 5.15632C268.495 8.03917 272.222 12.2461 274.93 17.7336L275.342 18.5688L259.557 27.8057L259.09 26.8212C257.825 24.1584 256.293 22.2294 254.524 20.9659L254.514 20.9591L254.505 20.9521C252.784 19.6615 250.45 18.9681 247.409 18.9681C245.05 18.9681 243.359 19.4932 242.21 20.413L242.205 20.417C241.1 21.2891 240.609 22.2943 240.609 23.4801C240.609 24.9188 241.251 26.2062 242.718 27.37C244.292 28.5625 247.659 29.9749 252.999 31.57L253.009 31.5728C255.925 32.4754 258.191 33.2073 259.802 33.7676C261.466 34.3466 263.525 35.3082 265.967 36.6333C268.515 37.9088 270.502 39.3245 271.863 40.9057C273.278 42.4005 274.473 44.3762 275.471 46.7941C276.575 49.2303 277.113 52.005 277.113 55.0961C277.113 62.3038 274.501 68.0787 269.252 72.3069L269.246 72.3122C264.035 76.4374 257.281 78.4561 249.073 78.4561C241.512 78.4561 235.108 76.83 229.919 73.5148L229.912 73.5105ZM274.553 47.1921C273.582 44.8348 272.438 42.9628 271.121 41.5761C269.873 40.1201 268.001 38.7681 265.505 37.5201C263.078 36.2028 261.068 35.2668 259.473 34.7121C257.878 34.1575 255.625 33.4295 252.713 32.5281C247.374 30.9335 243.838 29.4775 242.105 28.1601C240.441 26.8428 239.609 25.2828 239.609 23.4801C239.609 21.9548 240.268 20.6721 241.585 19.6321C242.972 18.5228 244.913 17.9681 247.409 17.9681C250.598 17.9681 253.164 18.6961 255.105 20.1521C256.831 21.3853 258.311 23.1666 259.544 25.4963C259.697 25.7864 259.847 26.085 259.993 26.3921L274.033 18.1761C271.398 12.8375 267.793 8.78148 263.217 6.00814C258.641 3.16547 253.372 1.74414 247.409 1.74414C240.753 1.74414 234.998 3.75481 230.145 7.77614C225.361 11.7975 222.969 17.1708 222.969 23.8961C222.969 27.2241 223.524 30.1708 224.633 32.7361C225.812 35.3015 227.476 37.4508 229.625 39.1841C231.844 40.8481 234.097 42.2001 236.385 43.2401C238.673 44.2801 241.342 45.2161 244.393 46.0481C250.217 47.6428 254.169 49.0641 256.249 50.3121C258.398 51.4908 259.473 53.1548 259.473 55.3041C259.473 59.2561 256.18 61.2321 249.593 61.2321C242.65 61.2321 237.694 58.1738 234.724 52.0573C234.58 51.7601 234.44 51.4557 234.305 51.1441L219.953 59.4641C222.033 65.0108 225.534 69.4135 230.457 72.6721C235.449 75.8615 241.654 77.4561 249.073 77.4561C257.116 77.4561 263.633 75.4801 268.625 71.5281C273.617 67.5068 276.113 62.0295 276.113 55.0961C276.113 52.1148 275.593 49.4801 274.553 47.1921ZM335.202 77.0001L331.562 65.5601H305.985L302.345 77.0001H282.017L307.449 2.20014H330.098L355.53 77.0001H335.202ZM305.253 64.5601H332.293L335.933 76.0001H354.133L329.381 3.20014H308.165L283.413 76.0001H301.613L305.253 64.5601ZM327.301 48.9601L318.773 22.2321L310.245 48.9601H327.301ZM311.614 47.9601H325.933L318.773 25.522L311.614 47.9601ZM410.221 58.9841V77.0001H365.581V2.20014H384.221V58.9841H410.221ZM383.221 59.9841V3.20014H366.581V76.0001H409.221V59.9841H383.221ZM469.55 58.9841V77.0001H421.79V2.20014H469.03V20.2161H440.43V30.2801H466.43V48.0881H440.43V58.9841H469.55ZM439.43 59.9841V47.0881H465.43V31.2801H439.43V19.2161H468.03V3.20014H422.79V76.0001H468.55V59.9841H439.43ZM172.769 77.4561C183.307 77.4561 192.251 73.8161 199.601 66.5361C206.95 59.2561 210.625 50.2775 210.625 39.6001C210.625 28.9228 206.95 19.9441 199.601 12.6641C192.251 5.38414 183.307 1.74414 172.769 1.74414C162.23 1.74414 153.286 5.38414 145.937 12.6641C138.587 19.9441 134.913 28.9228 134.913 39.6001C134.913 50.2775 138.587 59.2561 145.937 66.5361C153.286 73.8161 162.23 77.4561 172.769 77.4561Z" fill="#E0E1E5"/>
</svg>
