<svg width="520" height="79" viewBox="0 0 520 79" fill="none" xmlns="http://www.w3.org/2000/svg">
<path fill-rule="evenodd" clip-rule="evenodd" d="M0.240234 77.0001V2.20014H30.3602C40.6732 2.20014 49.3252 5.80353 56.2459 13.0078C63.2341 20.1403 66.7202 29.0281 66.7202 39.6001C66.7202 50.1739 63.2331 59.0954 56.246 66.2964C49.3239 73.4326 40.6717 77.0001 30.3602 77.0001H0.240234ZM55.5282 65.6001C62.3229 58.5975 65.7202 49.9308 65.7202 39.6001C65.7202 29.2695 62.3229 20.6375 55.5282 13.7041C48.8029 6.70147 40.4136 3.20014 30.3602 3.20014H1.24023V76.0001H30.3602C40.4136 76.0001 48.8029 72.5335 55.5282 65.6001ZM43.5759 53.7785C46.9689 50.255 48.7042 45.5638 48.7042 39.6001C48.7042 33.6358 46.9688 28.984 43.5824 25.5325L43.5758 25.5257L43.5692 25.5188C40.2453 21.9993 35.8754 20.2161 30.3602 20.2161H18.8802V58.9841H30.3602C35.8813 58.9841 40.2534 57.2313 43.5759 53.7785ZM17.8802 59.9841V19.2161H30.3602C36.1149 19.2161 40.7602 21.0881 44.2962 24.8321C47.9016 28.5068 49.7042 33.4295 49.7042 39.6001C49.7042 45.7708 47.9016 50.7281 44.2962 54.4721C40.7602 58.1468 36.1149 59.9841 30.3602 59.9841H17.8802ZM80.3162 2.20014H98.9562V77.0001H80.3162V2.20014ZM160.345 58.9841V77.0001H115.705V2.20014H134.345V58.9841H160.345ZM133.345 59.9841V3.20014H116.705V76.0001H159.345V59.9841H133.345ZM217.858 54.493L217.864 54.487C221.741 50.6756 223.701 45.7436 223.701 39.6001C223.701 33.4567 221.741 28.5247 217.864 24.7133L217.858 24.7073C214.037 20.8857 209.27 18.9681 203.485 18.9681C197.702 18.9681 192.898 20.8849 189.006 24.71C185.197 28.5199 183.269 33.4529 183.269 39.6001C183.269 45.7475 185.197 50.6806 189.006 54.4905C192.898 58.3154 197.702 60.2321 203.485 60.2321C209.27 60.2321 214.037 58.3146 217.858 54.493ZM188.301 55.2001C184.28 51.1788 182.269 45.9788 182.269 39.6001C182.269 33.2215 184.28 28.0215 188.301 24.0001C192.392 19.9788 197.453 17.9681 203.485 17.9681C209.517 17.9681 214.544 19.9788 218.565 24.0001C222.656 28.0215 224.701 33.2215 224.701 39.6001C224.701 45.9788 222.656 51.1788 218.565 55.2001C214.544 59.2215 209.517 61.2321 203.485 61.2321C197.453 61.2321 192.392 59.2215 188.301 55.2001ZM231.021 67.2466C223.481 74.7159 214.282 78.4561 203.485 78.4561C192.689 78.4561 183.49 74.7159 175.95 67.2466C168.404 59.7721 164.629 50.5347 164.629 39.6001C164.629 28.6656 168.404 19.4282 175.95 11.9537C183.49 4.48434 192.689 0.744141 203.485 0.744141C214.282 0.744141 223.481 4.48434 231.021 11.9537C238.567 19.4282 242.341 28.6656 242.341 39.6001C242.341 50.5347 238.567 59.7721 231.021 67.2466ZM260.628 73.5105L260.622 73.506C255.523 70.1305 251.887 65.5586 249.733 59.8153L249.436 59.0232L265.493 49.7152L265.939 50.7468C267.334 53.9673 269.223 56.321 271.578 57.8755C273.934 59.4297 276.827 60.2321 280.31 60.2321C283.536 60.2321 285.789 59.7424 287.205 58.8927C288.54 58.0917 289.19 56.9414 289.19 55.3041C289.19 53.5781 288.368 52.2219 286.485 51.189L286.468 51.1796L286.451 51.1696C284.503 50.0005 280.674 48.6085 274.846 47.0126C271.756 46.1701 269.035 45.2173 266.688 44.1505C264.328 43.0777 262.012 41.6871 259.742 39.9841L259.728 39.9736L259.714 39.9626C257.441 38.13 255.683 35.8561 254.441 33.1536L254.436 33.1434L254.432 33.1331C253.259 30.4209 252.686 27.3351 252.686 23.8961C252.686 16.9011 255.189 11.2379 260.218 7.01066L260.224 7.0061C265.267 2.82739 271.251 0.744141 278.126 0.744141C284.253 0.744141 289.707 2.20652 294.457 5.15632C299.212 8.03917 302.938 12.2461 305.646 17.7336L306.059 18.5688L290.274 27.8057L289.806 26.8212C288.542 24.1584 287.009 22.2294 285.24 20.9659L285.231 20.9591L285.222 20.9521C283.501 19.6615 281.166 18.9681 278.126 18.9681C275.766 18.9681 274.076 19.4932 272.926 20.413L272.921 20.417C271.817 21.2891 271.326 22.2943 271.326 23.4801C271.326 24.9188 271.968 26.2062 273.435 27.37C275.009 28.5625 278.376 29.9749 283.716 31.57L283.725 31.5728C286.641 32.4754 288.907 33.2073 290.518 33.7676C292.182 34.3466 294.242 35.3082 296.684 36.6333C299.232 37.9088 301.218 39.3245 302.58 40.9057C303.994 42.4005 305.19 44.3762 306.187 46.7941C307.291 49.2303 307.83 52.005 307.83 55.0961C307.83 62.3038 305.218 68.0787 299.969 72.3069L299.962 72.3122C294.751 76.4374 287.997 78.4561 279.79 78.4561C272.228 78.4561 265.824 76.83 260.635 73.5148L260.628 73.5105ZM305.27 47.1921C304.299 44.8348 303.155 42.9628 301.838 41.5761C300.59 40.1201 298.718 38.7681 296.222 37.5201C293.795 36.2028 291.784 35.2668 290.19 34.7121C288.595 34.1575 286.342 33.4295 283.43 32.5281C278.091 30.9335 274.555 29.4775 272.822 28.1601C271.158 26.8428 270.326 25.2828 270.326 23.4801C270.326 21.9548 270.984 20.6721 272.302 19.6321C273.688 18.5228 275.63 17.9681 278.126 17.9681C281.315 17.9681 283.88 18.6961 285.822 20.1521C287.548 21.3853 289.028 23.1666 290.26 25.4963C290.414 25.7864 290.564 26.085 290.71 26.3921L304.75 18.1761C302.115 12.8375 298.51 8.78148 293.934 6.00814C289.358 3.16547 284.088 1.74414 278.126 1.74414C271.47 1.74414 265.715 3.75481 260.862 7.77614C256.078 11.7975 253.686 17.1708 253.686 23.8961C253.686 27.2241 254.24 30.1708 255.35 32.7361C256.528 35.3015 258.192 37.4508 260.342 39.1841C262.56 40.8481 264.814 42.2001 267.102 43.2401C269.39 44.2801 272.059 45.2161 275.11 46.0481C280.934 47.6428 284.886 49.0641 286.966 50.3121C289.115 51.4908 290.19 53.1548 290.19 55.3041C290.19 59.2561 286.896 61.2321 280.31 61.2321C273.367 61.2321 268.41 58.1738 265.44 52.0572C265.296 51.7601 265.157 51.4557 265.022 51.1441L250.67 59.4641C252.75 65.0108 256.251 69.4135 261.174 72.6721C266.166 75.8615 272.371 77.4561 279.79 77.4561C287.832 77.4561 294.35 75.4801 299.342 71.5281C304.334 67.5068 306.83 62.0295 306.83 55.0961C306.83 52.1148 306.31 49.4801 305.27 47.1921ZM369.987 54.493L369.993 54.487C373.87 50.6756 375.83 45.7436 375.83 39.6001C375.83 33.4567 373.87 28.5247 369.993 24.7133L369.987 24.7073C366.165 20.8857 361.398 18.9681 355.614 18.9681C349.831 18.9681 345.027 20.8849 341.134 24.71C337.326 28.5199 335.398 33.4529 335.398 39.6001C335.398 45.7475 337.326 50.6806 341.134 54.4905C345.027 58.3154 349.831 60.2321 355.614 60.2321C361.398 60.2321 366.165 58.3146 369.987 54.493ZM340.43 24.0001C344.52 19.9788 349.582 17.9681 355.614 17.9681C361.646 17.9681 366.672 19.9788 370.694 24.0001C374.784 28.0215 376.83 33.2215 376.83 39.6001C376.83 45.9788 374.784 51.1788 370.694 55.2001C366.672 59.2215 361.646 61.2321 355.614 61.2321C349.582 61.2321 344.52 59.2215 340.43 55.2001C336.408 51.1788 334.398 45.9788 334.398 39.6001C334.398 33.2215 336.408 28.0215 340.43 24.0001ZM383.15 67.2466C375.609 74.7159 366.41 78.4561 355.614 78.4561C344.817 78.4561 335.618 74.7159 328.078 67.2466C320.532 59.7721 316.758 50.5347 316.758 39.6001C316.758 28.6656 320.532 19.4282 328.078 11.9537C335.618 4.48434 344.817 0.744141 355.614 0.744141C366.41 0.744141 375.609 4.48434 383.15 11.9537C390.695 19.4282 394.47 28.6656 394.47 39.6001C394.47 50.5347 390.695 59.7721 383.15 67.2466ZM454.279 20.2161H426.719V32.2561H453.759V50.2721H426.719V77.0001H408.079V2.20014H454.279V20.2161ZM425.719 49.2721H452.759V33.2561H425.719V19.2161H453.279V3.20014H409.079V76.0001H425.719V49.2721ZM519.23 2.20014V20.2161H500.51V77.0001H481.87V20.2161H463.15V2.20014H519.23ZM482.87 19.2161V76.0001H499.51V19.2161H518.23V3.20014H464.15V19.2161H482.87ZM81.3162 3.20014V76.0001H97.9562V3.20014H81.3162ZM203.485 77.4561C214.024 77.4561 222.968 73.8161 230.317 66.5361C237.667 59.2561 241.341 50.2775 241.341 39.6001C241.341 28.9228 237.667 19.9441 230.317 12.6641C222.968 5.38414 214.024 1.74414 203.485 1.74414C192.947 1.74414 184.003 5.38414 176.653 12.6641C169.304 19.9441 165.629 28.9228 165.629 39.6001C165.629 50.2775 169.304 59.2561 176.653 66.5361C184.003 73.8161 192.947 77.4561 203.485 77.4561ZM355.614 77.4561C366.152 77.4561 375.096 73.8161 382.446 66.5361C389.795 59.2561 393.47 50.2775 393.47 39.6001C393.47 28.9228 389.795 19.9441 382.446 12.6641C375.096 5.38414 366.152 1.74414 355.614 1.74414C345.075 1.74414 336.131 5.38414 328.782 12.6641C321.432 19.9441 317.758 28.9228 317.758 39.6001C317.758 50.2775 321.432 59.2561 328.782 66.5361C336.131 73.8161 345.075 77.4561 355.614 77.4561Z" fill="#E0E1E5"/>
</svg>
