<svg width="220" height="154" viewBox="0 0 220 154" fill="none" xmlns="http://www.w3.org/2000/svg">
    <path
        d="M118.022 3.21496C106.632 1.99548 95.1135 3.18131 84.2113 6.69571C73.309 10.2101 63.2663 15.9747 54.7331 23.6164C46.1999 31.2581 39.3666 40.6065 34.6753 51.0565C29.9841 61.5065 27.5396 72.8252 27.5 84.2798L109.312 84.5625L118.022 3.21496Z"
        fill="url(#paint0_linear_261_5400)"/>
    <g filter="url(#filter0_bi_261_5400)">
        <circle cx="111.13" cy="86.3797" r="65.45" fill="#C3B5E1" fill-opacity="0.3"/>
    </g>
    <path
        d="M89.3104 57.291C80.4807 63.9249 74.7695 74.4855 74.7695 86.3799C74.7695 106.462 91.049 122.741 111.131 122.741C131.212 122.741 147.492 106.462 147.492 86.3799C147.492 74.4855 141.781 63.9249 132.951 57.291"
        stroke="url(#paint1_linear_261_5400)" stroke-width="6" stroke-linecap="round"/>
    <path d="M111.131 46.3833L111.131 90.0166" stroke="url(#paint2_linear_261_5400)" stroke-width="6"
          stroke-linecap="round"/>
    <defs>
        <filter id="filter0_bi_261_5400" x="32.8997" y="8.14969" width="156.46" height="156.46"
                filterUnits="userSpaceOnUse" color-interpolation-filters="sRGB">
            <feFlood flood-opacity="0" result="BackgroundImageFix"/>
            <feGaussianBlur in="BackgroundImageFix" stdDeviation="6.39"/>
            <feComposite in2="SourceAlpha" operator="in" result="effect1_backgroundBlur_261_5400"/>
            <feBlend mode="normal" in="SourceGraphic" in2="effect1_backgroundBlur_261_5400" result="shape"/>
            <feColorMatrix in="SourceAlpha" type="matrix" values="0 0 0 0 0 0 0 0 0 0 0 0 0 0 0 0 0 0 127 0"
                           result="hardAlpha"/>
            <feOffset dx="-0.869565" dy="0.869565"/>
            <feGaussianBlur stdDeviation="0.652174"/>
            <feComposite in2="hardAlpha" operator="arithmetic" k2="-1" k3="1"/>
            <feColorMatrix type="matrix" values="0 0 0 0 1 0 0 0 0 1 0 0 0 0 1 0 0 0 0.8 0"/>
            <feBlend mode="normal" in2="shape" result="effect2_innerShadow_261_5400"/>
        </filter>
        <linearGradient id="paint0_linear_261_5400" x1="118.022" y1="43.6563" x2="27.5" y2="43.6563"
                        gradientUnits="userSpaceOnUse">
            <stop stop-color="#5FC8D9"/>
            <stop offset="1" stop-color="#507EBF"/>
        </linearGradient>
        <linearGradient id="paint1_linear_261_5400" x1="77.3362" y1="99.0676" x2="150.989" y2="91.2078"
                        gradientUnits="userSpaceOnUse">
            <stop stop-color="#6F95D8"/>
            <stop offset="1" stop-color="#9D5BDD"/>
        </linearGradient>
        <linearGradient id="paint2_linear_261_5400" x1="111.309" y1="42.6249" x2="110.129" y2="94.1604"
                        gradientUnits="userSpaceOnUse">
            <stop stop-color="#6F95D8"/>
            <stop offset="1" stop-color="#9D5BDD"/>
        </linearGradient>
    </defs>
</svg>
