<svg width="470" height="238" viewBox="0 0 470 238" fill="none" xmlns="http://www.w3.org/2000/svg">
    <path fill-rule="evenodd" clip-rule="evenodd"
          d="M130.369 67.3473L130.362 67.3405C123.027 59.8626 119.364 50.5931 119.364 39.6001C119.364 28.6072 123.027 19.3703 130.366 11.9605C137.777 4.47811 147.086 0.744141 158.22 0.744141C164.899 0.744141 171.096 2.30883 176.794 5.44163C182.489 8.50367 186.989 12.7149 190.273 18.0693L190.809 18.9432L174.692 28.286L174.196 27.4014C172.701 24.7354 170.56 22.6886 167.749 21.2504L167.741 21.2462L167.733 21.2419C164.909 19.7315 161.745 18.9681 158.22 18.9681C151.995 18.9681 147.104 20.8668 143.441 24.5938C139.842 28.3249 138.004 33.292 138.004 39.6001C138.004 45.9085 139.842 50.8757 143.441 54.6068C147.104 58.3336 151.995 60.2321 158.22 60.2321C161.745 60.2321 164.909 59.4688 167.733 57.9584L167.741 57.9539C170.633 56.4421 172.77 54.392 174.192 51.8062L174.685 50.91L190.8 60.2521L190.278 61.1226C187.063 66.4811 182.597 70.7284 176.902 73.8604L176.894 73.865C171.195 76.9282 164.964 78.4561 158.22 78.4561C147.089 78.4561 137.781 74.759 130.369 67.3473ZM142.724 23.8961C146.607 19.9441 151.772 17.9681 158.22 17.9681C161.895 17.9681 165.223 18.7655 168.204 20.3601C171.038 21.8099 173.245 23.8547 174.826 26.4946C174.909 26.6321 174.989 26.7713 175.068 26.9121L189.42 18.5922C189.245 18.307 189.067 18.0251 188.885 17.7466C185.748 12.9468 181.559 9.13797 176.316 6.32014C170.77 3.26947 164.738 1.74414 158.22 1.74414C147.335 1.74414 138.287 5.38414 131.076 12.6641C123.935 19.8748 120.364 28.8535 120.364 39.6001C120.364 50.3468 123.935 59.3601 131.076 66.6401C138.287 73.8508 147.335 77.4561 158.22 77.4561C164.807 77.4561 170.874 75.9655 176.42 72.9841C181.661 70.1017 185.819 66.2598 188.893 61.4584C189.072 61.1784 189.248 60.895 189.42 60.6084L175.068 52.2881C174.954 52.4951 174.836 52.6988 174.714 52.8991C173.197 55.3841 171.027 57.3645 168.204 58.8401C165.223 60.4348 161.895 61.2321 158.22 61.2321C151.772 61.2321 146.607 59.2561 142.724 55.3041C138.911 51.3521 137.004 46.1175 137.004 39.6001C137.004 33.0828 138.911 27.8481 142.724 23.8961ZM241.151 77.0001L227.423 53.0801H221.099V77.0001H202.459V2.20014H232.579C239.774 2.20014 245.923 4.73003 250.966 9.77303C256.009 14.816 258.539 20.9646 258.539 28.1601C258.539 32.7964 257.231 37.1102 254.633 41.0808C252.299 44.6815 249.252 47.5441 245.504 49.6616L261.354 77.0001H241.151ZM244.123 49.2721C244.42 49.1181 244.714 48.9596 245.003 48.7964C248.617 46.7564 251.548 44.0029 253.795 40.5361C256.291 36.7228 257.539 32.5975 257.539 28.1601C257.539 21.2268 255.112 15.3335 250.259 10.4801C245.405 5.62681 239.512 3.20014 232.579 3.20014H203.459V76.0001H220.099V52.0801H228.003L241.731 76.0001H259.619L244.123 49.2721ZM237.661 34.1456L237.668 34.1379C239.148 32.5343 239.899 30.5637 239.899 28.1601C239.899 25.7566 239.148 23.786 237.668 22.1824L237.661 22.1746L237.654 22.1667C236.238 20.566 234.564 19.8001 232.579 19.8001H221.099V36.5201H232.579C234.564 36.5201 236.238 35.7543 237.654 34.1536L237.661 34.1456ZM220.099 37.5201V18.8001H232.579C234.867 18.8001 236.808 19.7015 238.403 21.5041C240.067 23.3068 240.899 25.5255 240.899 28.1601C240.899 30.7948 240.067 33.0135 238.403 34.8161C236.808 36.6188 234.867 37.5201 232.579 37.5201H220.099ZM347.483 2.20014V77.0001H328.843V37.2346L311.581 65.5601H308.585L291.323 37.2346V77.0001H272.683V2.20014H290.884L310.083 33.626L329.282 2.20014H347.483ZM310.083 35.5441L290.323 3.20014H273.683V76.0001H290.323V33.6721L309.147 64.5601H311.019L329.843 33.6721V76.0001H346.483V3.20014H329.843L310.083 35.5441Z"
          fill="#E0E1E5"/>
    <path fill-rule="evenodd" clip-rule="evenodd"
          d="M12.0027 232.51L11.9959 232.506C6.89678 229.131 3.26131 224.559 1.10756 218.815L0.810547 218.023L16.8669 208.715L17.3136 209.747C18.708 212.967 20.5969 215.321 22.9527 216.875C25.308 218.43 28.2014 219.232 31.6839 219.232C34.9099 219.232 37.1631 218.742 38.5794 217.893C39.9143 217.092 40.5639 215.941 40.5639 214.304C40.5639 212.578 39.7427 211.222 37.8591 210.189L37.842 210.18L37.8254 210.17C35.8768 209 32.0481 207.608 26.2198 206.013C23.1305 205.17 20.4091 204.217 18.0621 203.151C15.7018 202.078 13.3866 200.687 11.1159 198.984L11.1018 198.974L11.0881 198.963C8.81577 197.13 7.05688 194.856 5.81521 192.154L5.8105 192.143L5.80603 192.133C4.6332 189.421 4.05989 186.335 4.05989 182.896C4.05989 175.901 6.56352 170.238 11.5924 166.011L11.5979 166.006C16.6412 161.827 22.625 159.744 29.4999 159.744C35.6265 159.744 41.0809 161.206 45.8309 164.156C50.5855 167.039 54.3124 171.246 57.0206 176.734L57.4328 177.569L41.6483 186.806L41.1806 185.821C39.9158 183.158 38.3836 181.229 36.6147 179.966L36.6052 179.959L36.5959 179.952C34.875 178.662 32.5407 177.968 29.4999 177.968C27.1405 177.968 25.4503 178.493 24.3006 179.413L24.2955 179.417C23.1909 180.289 22.6999 181.294 22.6999 182.48C22.6999 183.919 23.3423 185.206 24.8088 186.37C26.3829 187.562 29.7498 188.975 35.0901 190.57L35.0996 190.573C38.0154 191.475 40.2815 192.207 41.8924 192.768C43.5568 193.347 45.6162 194.308 48.0582 195.633C50.606 196.909 52.5928 198.325 53.9545 199.906C55.369 201.401 56.5643 203.377 57.5618 205.795C58.6657 208.231 59.2039 211.005 59.2039 214.096C59.2039 221.304 56.592 227.079 51.3432 231.307L51.3366 231.312C46.1258 235.437 39.3715 237.456 31.1639 237.456C23.6024 237.456 17.1984 235.83 12.0095 232.515L12.0027 232.51ZM56.6439 206.192C55.6732 203.835 54.5292 201.963 53.2119 200.576C51.9639 199.12 50.0919 197.768 47.5959 196.52C45.1692 195.203 43.1586 194.267 41.5639 193.712C39.9692 193.157 37.7159 192.429 34.8039 191.528C29.4652 189.933 25.9292 188.477 24.1959 187.16C22.5319 185.843 21.6999 184.283 21.6999 182.48C21.6999 180.955 22.3586 179.672 23.6759 178.632C25.0626 177.523 27.0039 176.968 29.4999 176.968C32.6892 176.968 35.2546 177.696 37.1959 179.152C38.9222 180.385 40.4019 182.167 41.6348 184.496C41.7883 184.786 41.938 185.085 42.0839 185.392L56.1239 177.176C53.4892 171.837 49.8839 167.781 45.3079 165.008C40.7319 162.165 35.4626 160.744 29.4999 160.744C22.8439 160.744 17.0892 162.755 12.2359 166.776C7.45189 170.797 5.05989 176.171 5.05989 182.896C5.05989 186.224 5.61455 189.171 6.72389 191.736C7.90255 194.301 9.56655 196.451 11.7159 198.184C13.9346 199.848 16.1879 201.2 18.4759 202.24C20.7639 203.28 23.4332 204.216 26.4839 205.048C32.3079 206.643 36.2599 208.064 38.3399 209.312C40.4892 210.491 41.5639 212.155 41.5639 214.304C41.5639 218.256 38.2706 220.232 31.6839 220.232C24.7412 220.232 19.7848 217.174 16.8147 211.057C16.6704 210.76 16.5308 210.456 16.3959 210.144L2.04389 218.464C4.12389 224.011 7.62522 228.413 12.5479 231.672C17.5399 234.861 23.7452 236.456 31.1639 236.456C39.2066 236.456 45.7239 234.48 50.7159 230.528C55.7079 226.507 58.2039 221.029 58.2039 214.096C58.2039 211.115 57.6839 208.48 56.6439 206.192ZM130.576 161.2L105.451 207.279V236H86.8114V207.279L61.6872 161.2H82.9215L96.1314 188.017L109.341 161.2H130.576ZM96.1314 190.28L82.2994 162.2H63.3714L87.8114 207.024V235H104.451V207.024L128.891 162.2H109.963L96.1314 190.28ZM143.514 232.51L143.507 232.506C138.408 229.131 134.773 224.559 132.619 218.815L132.322 218.023L148.378 208.715L148.825 209.747C150.219 212.967 152.108 215.321 154.464 216.875C156.819 218.43 159.713 219.232 163.195 219.232C166.421 219.232 168.674 218.742 170.091 217.893C171.426 217.092 172.075 215.941 172.075 214.304C172.075 212.578 171.254 211.222 169.37 210.189L169.353 210.18L169.337 210.17C167.388 209 163.559 207.608 157.731 206.013C154.642 205.17 151.92 204.217 149.573 203.151C147.213 202.078 144.898 200.687 142.627 198.984L142.613 198.974L142.599 198.963C140.327 197.13 138.568 194.856 137.326 192.154L137.322 192.143L137.317 192.133C136.144 189.421 135.571 186.335 135.571 182.896C135.571 175.901 138.075 170.238 143.104 166.011L143.109 166.006C148.152 161.827 154.136 159.744 161.011 159.744C167.137 159.744 172.592 161.206 177.342 164.155C182.096 167.038 185.824 171.246 188.532 176.734L188.944 177.569L173.16 186.806L172.692 185.821C171.427 183.158 169.895 181.229 168.126 179.966L168.116 179.959L168.107 179.952C166.386 178.662 164.052 177.968 161.011 177.968C158.652 177.968 156.962 178.493 155.812 179.413L155.807 179.417C154.702 180.289 154.211 181.294 154.211 182.48C154.211 183.919 154.854 185.206 156.32 186.37C157.894 187.562 161.261 188.975 166.601 190.57L166.611 190.573C169.527 191.475 171.793 192.207 173.404 192.768C175.068 193.347 177.127 194.308 179.569 195.633C182.117 196.909 184.104 198.325 185.466 199.906C186.88 201.401 188.076 203.377 189.073 205.795C190.177 208.231 190.715 211.005 190.715 214.096C190.715 221.304 188.103 227.079 182.854 231.307L182.848 231.312C177.637 235.437 170.883 237.456 162.675 237.456C155.114 237.456 148.71 235.83 143.521 232.515L143.514 232.51ZM188.155 206.192C187.184 203.835 186.04 201.963 184.723 200.576C183.475 199.12 181.603 197.768 179.107 196.52C176.68 195.203 174.67 194.267 173.075 193.712C171.48 193.157 169.227 192.429 166.315 191.528C160.976 189.933 157.44 188.477 155.707 187.16C154.043 185.843 153.211 184.283 153.211 182.48C153.211 180.955 153.87 179.672 155.187 178.632C156.574 177.523 158.515 176.968 161.011 176.968C164.2 176.968 166.766 177.696 168.707 179.152C170.433 180.385 171.913 182.167 173.146 184.496C173.3 184.786 173.449 185.085 173.595 185.392L187.635 177.176C185 171.837 181.395 167.781 176.819 165.008C172.243 162.165 166.974 160.744 161.011 160.744C154.355 160.744 148.6 162.755 143.747 166.776C138.963 170.797 136.571 176.171 136.571 182.896C136.571 186.224 137.126 189.171 138.235 191.736C139.414 194.301 141.078 196.451 143.227 198.184C145.446 199.848 147.699 201.2 149.987 202.24C152.275 203.28 154.944 204.216 157.995 205.048C163.819 206.643 167.771 208.064 169.851 209.312C172 210.491 173.075 212.155 173.075 214.304C173.075 218.256 169.782 220.232 163.195 220.232C156.252 220.232 151.296 217.174 148.326 211.057C148.182 210.76 148.042 210.456 147.907 210.144L133.555 218.464C135.635 224.011 139.136 228.413 144.059 231.672C149.051 234.861 155.256 236.456 162.675 236.456C170.718 236.456 177.235 234.48 182.227 230.528C187.219 226.507 189.715 221.029 189.715 214.096C189.715 211.115 189.195 208.48 188.155 206.192ZM251.51 161.2V179.216H232.79V236H214.15V179.216H195.43V161.2H251.51ZM215.15 178.216V235H231.79V178.216H250.51V162.2H196.43V178.216H215.15ZM310.794 217.984V236H263.034V161.2H310.275V179.216H281.674V189.28H307.674V207.088H281.674V217.984H310.794ZM280.674 218.984V206.088H306.674V190.28H280.674V178.216H309.275V162.2H264.034V235H309.794V218.984H280.674ZM399.223 161.2V236H380.583V196.235L363.321 224.56H360.325L343.063 196.235V236H324.423V161.2H342.624L361.823 192.626L381.022 161.2H399.223ZM361.823 194.544L342.063 162.2H325.423V235H342.063V192.672L360.887 223.56H362.759L381.583 192.672V235H398.223V162.2H381.583L361.823 194.544ZM422.279 232.51L422.272 232.506C417.173 229.131 413.537 224.559 411.383 218.815L411.086 218.023L427.143 208.715L427.589 209.747C428.984 212.967 430.873 215.321 433.229 216.875C435.584 218.43 438.477 219.232 441.96 219.232C445.186 219.232 447.439 218.742 448.855 217.893C450.19 217.092 450.84 215.941 450.84 214.304C450.84 212.578 450.019 211.222 448.135 210.189L448.118 210.18L448.101 210.17C446.153 209 442.324 207.608 436.496 206.013C433.406 205.17 430.685 204.217 428.338 203.151C425.978 202.078 423.662 200.687 421.392 198.984L421.378 198.974L421.364 198.963C419.092 197.13 417.333 194.856 416.091 192.154L416.086 192.143L416.082 192.133C414.909 189.421 414.336 186.335 414.336 182.896C414.336 175.901 416.839 170.238 421.868 166.011L421.874 166.006C426.917 161.827 432.901 159.744 439.776 159.744C445.903 159.744 451.358 161.207 456.108 164.156C460.862 167.039 464.588 171.246 467.297 176.734L467.709 177.569L451.924 186.806L451.457 185.821C450.192 183.158 448.659 181.229 446.891 179.966L446.881 179.959L446.872 179.952C445.151 178.662 442.817 177.968 439.776 177.968C437.416 177.968 435.726 178.493 434.577 179.413L434.571 179.417C433.467 180.289 432.976 181.294 432.976 182.48C432.976 183.919 433.618 185.206 435.085 186.37C436.659 187.562 440.026 188.975 445.366 190.57L445.376 190.573C448.291 191.475 450.557 192.207 452.168 192.768C453.833 193.347 455.892 194.308 458.334 195.633C460.882 196.909 462.869 198.325 464.23 199.906C465.645 201.4 466.84 203.376 467.837 205.794C468.942 208.23 469.48 211.005 469.48 214.096C469.48 221.304 466.868 227.079 461.619 231.307L461.613 231.312C456.402 235.437 449.647 237.456 441.44 237.456C433.878 237.456 427.474 235.83 422.285 232.515L422.279 232.51ZM466.92 206.192C465.949 203.835 464.805 201.963 463.488 200.576C462.24 199.12 460.368 197.768 457.872 196.52C455.445 195.203 453.434 194.267 451.84 193.712C450.245 193.157 447.992 192.429 445.08 191.528C439.741 189.933 436.205 188.477 434.472 187.16C432.808 185.843 431.976 184.283 431.976 182.48C431.976 180.955 432.634 179.672 433.952 178.632C435.339 177.523 437.28 176.968 439.776 176.968C442.965 176.968 445.53 177.696 447.472 179.152C449.198 180.385 450.678 182.167 451.911 184.496C452.064 184.786 452.214 185.085 452.36 185.392L466.4 177.176C463.765 171.837 460.16 167.781 455.584 165.008C451.008 162.165 445.738 160.744 439.776 160.744C433.12 160.744 427.365 162.755 422.512 166.776C417.728 170.797 415.336 176.171 415.336 182.896C415.336 186.224 415.89 189.171 417 191.736C418.178 194.301 419.842 196.451 421.992 198.184C424.21 199.848 426.464 201.2 428.752 202.24C431.04 203.28 433.709 204.216 436.76 205.048C442.584 206.643 446.536 208.064 448.616 209.312C450.765 210.491 451.84 212.155 451.84 214.304C451.84 218.256 448.546 220.232 441.96 220.232C435.017 220.232 430.061 217.174 427.091 211.057C426.946 210.76 426.807 210.456 426.672 210.144L412.32 218.464C414.4 224.011 417.901 228.413 422.824 231.672C427.816 234.861 434.021 236.456 441.44 236.456C449.482 236.456 456 234.48 460.992 230.528C465.984 226.507 468.48 221.029 468.48 214.096C468.48 211.115 467.96 208.48 466.92 206.192Z"
          fill="#E0E1E5"/>
</svg>
