<svg width="44" height="44" viewBox="0 0 44 44" fill="none" xmlns="http://www.w3.org/2000/svg">
<g clip-path="url(#clip0_391_22711)">
<path d="M9.16667 7.33325H16.5L20.1667 16.4999L15.5833 19.2499C17.5468 23.2311 20.7689 26.4532 24.75 28.4166L27.5 23.8333L36.6667 27.4999V34.8333C36.6667 35.8057 36.2804 36.7383 35.5927 37.426C34.9051 38.1136 33.9725 38.4999 33 38.4999C25.8487 38.0653 19.1036 35.0285 14.0375 29.9624C8.97142 24.8963 5.93459 18.1513 5.5 10.9999C5.5 10.0275 5.88631 9.09483 6.57394 8.40719C7.26157 7.71956 8.19421 7.33325 9.16667 7.33325Z" fill="url(#paint0_linear_391_22711)"/>
</g>
<defs>
<linearGradient id="paint0_linear_391_22711" x1="36.6667" y1="22.9166" x2="5.5" y2="22.9166" gradientUnits="userSpaceOnUse">
<stop stop-color="#53DCF2"/>
<stop offset="1" stop-color="#4785DC"/>
</linearGradient>
<clipPath id="clip0_391_22711">
<rect width="44" height="44" fill="white"/>
</clipPath>
</defs>
</svg>
