<svg width="44" height="44" viewBox="0 0 44 44" fill="none" xmlns="http://www.w3.org/2000/svg">
<g clip-path="url(#clip0_391_22648)">
<path d="M32.3718 30.5378L24.593 38.3166C23.9055 39.0035 22.9734 39.3893 22.0016 39.3893C21.0298 39.3893 20.0977 39.0035 19.4102 38.3166L11.6295 30.5378C9.5784 28.4866 8.18161 25.8732 7.61575 23.0282C7.0499 20.1832 7.34039 17.2342 8.4505 14.5543C9.5606 11.8744 11.4405 9.58378 13.8524 7.97221C16.2643 6.36065 19.0999 5.50049 22.0007 5.50049C24.9014 5.50049 27.737 6.36065 30.1489 7.97221C32.5608 9.58378 34.4407 11.8744 35.5508 14.5543C36.6609 17.2342 36.9514 20.1832 36.3856 23.0282C35.8197 25.8732 34.4229 28.4866 32.3718 30.5378Z" fill="url(#paint0_linear_391_22648)"/>
<path d="M22 25.6667C25.0376 25.6667 27.5 23.2043 27.5 20.1667C27.5 17.1292 25.0376 14.6667 22 14.6667C18.9624 14.6667 16.5 17.1292 16.5 20.1667C16.5 23.2043 18.9624 25.6667 22 25.6667Z" fill="white"/>
</g>
<defs>
<linearGradient id="paint0_linear_391_22648" x1="36.6673" y1="22.4449" x2="7.33398" y2="22.4449" gradientUnits="userSpaceOnUse">
<stop stop-color="#53DCF2"/>
<stop offset="1" stop-color="#4785DC"/>
</linearGradient>
<clipPath id="clip0_391_22648">
<rect width="44" height="44" fill="white"/>
</clipPath>
</defs>
</svg>
