<svg width="28" height="28" viewBox="0 0 28 28" fill="none" xmlns="http://www.w3.org/2000/svg">
<circle cx="14" cy="14" r="13" fill="white" stroke="#5389C3" stroke-width="2"/>
<g clip-path="url(#clip0_653_1465)">
<path fill-rule="evenodd" clip-rule="evenodd" d="M15.5 8.58594C15.5 7.75751 14.8284 7.08594 14 7.08594C13.1716 7.08594 12.5 7.75751 12.5 8.58594V12.5H8.58594C7.75751 12.5 7.08594 13.1716 7.08594 14C7.08594 14.8284 7.75751 15.5 8.58594 15.5H12.5V19.4141C12.5 20.2425 13.1716 20.9141 14 20.9141C14.8284 20.9141 15.5 20.2425 15.5 19.4141V15.5H19.4141C20.2425 15.5 20.9141 14.8284 20.9141 14C20.9141 13.1716 20.2425 12.5 19.4141 12.5H15.5V8.58594Z" fill="#5389C3"/>
</g>
<defs>
<clipPath id="clip0_653_1465">
<rect width="15.75" height="15.75" fill="white" transform="translate(6.125 6.125)"/>
</clipPath>
</defs>
</svg>
