<svg width="267" height="104" viewBox="0 0 267 104" fill="none" xmlns="http://www.w3.org/2000/svg">
    <path
        d="M0.900391 101V101.5H1.40039H42.5604C51.6273 101.5 59.2619 98.805 65.4301 93.396C71.6113 87.9755 74.7004 80.9288 74.7004 72.3C74.7004 62.7406 70.7861 55.3291 62.9814 50.1192C68.4602 45.1353 71.2004 38.7492 71.2004 31C71.2004 22.5582 68.158 15.6974 62.0696 10.4637C56.0878 5.14788 48.6395 2.50004 39.7604 2.50004H1.40039H0.900391V3.00004V101ZM45.5569 26.8634L45.5618 26.8685L45.5668 26.8736C47.0478 28.3546 47.8004 30.2748 47.8004 32.68C47.8004 35.0823 47.0493 37.054 45.5618 38.6315C44.0815 40.1092 42.1629 40.86 39.7604 40.86H24.3004V24.5H39.7604C42.1567 24.5 44.0738 25.293 45.5569 26.8634ZM48.9174 64.2439L48.9173 64.244L48.9268 64.2536C50.4965 65.8232 51.3004 67.9272 51.3004 70.62C51.3004 73.3096 50.4981 75.4651 48.9221 77.1312C47.353 78.6977 45.2505 79.5 42.5604 79.5H24.3004V61.74H42.5604C45.2451 61.74 47.346 62.5852 48.9174 64.2439ZM155.569 101.152L155.68 101.5H156.046H180.546H181.244L181.019 100.839L147.699 2.83909L147.584 2.50004H147.226H118.666H118.308L118.192 2.83909L84.8723 100.839L84.6476 101.5H85.3457H109.846H110.211L110.322 101.152L115.111 86.1H150.78L155.569 101.152ZM204.215 96.937L204.222 96.9414C211.04 101.298 219.493 103.46 229.551 103.46C240.46 103.46 249.352 100.779 256.182 95.3721L256.185 95.3694C263.033 89.8527 266.451 82.3305 266.451 72.86C266.451 68.7921 265.742 65.1757 264.31 62.0218C262.99 58.8182 261.425 56.2461 259.603 54.3252C257.866 52.3022 255.288 50.4503 251.902 48.7566C248.628 46.9795 245.897 45.7066 243.715 44.9478C241.561 44.1983 238.521 43.2163 234.599 42.0024L234.594 42.001C227.407 39.854 222.731 37.9159 220.478 36.2051C218.336 34.5084 217.311 32.5447 217.311 30.3C217.311 28.4165 218.114 26.8285 219.781 25.5125L219.784 25.5105C221.532 24.1119 224.019 23.38 227.311 23.38C231.53 23.38 234.868 24.3427 237.371 26.22L237.371 26.2202L237.381 26.2269C239.908 28.032 242.052 30.7565 243.8 34.4346L244.033 34.9268L244.504 34.6516L263.404 23.5916L263.806 23.3564L263.6 22.9388C260.016 15.6775 255.102 10.1418 248.852 6.35371C242.606 2.47376 235.42 0.540039 227.311 0.540039C218.242 0.540039 210.38 3.283 203.752 8.77502L203.749 8.7773C197.187 14.2936 193.911 21.6718 193.911 30.86C193.911 35.3955 194.667 39.4317 196.192 42.9585L196.192 42.9585L196.197 42.9688C197.815 46.4907 200.102 49.4463 203.057 51.8293L203.064 51.8348L203.071 51.84C206.084 54.0995 209.148 55.9388 212.264 57.3552C215.374 58.7687 218.993 60.0371 223.119 61.1624C230.961 63.3096 236.22 65.2082 238.954 66.8488L238.962 66.8538L238.971 66.8585C241.731 68.3723 243.051 70.4584 243.051 73.14C243.051 75.6307 242.03 77.4598 239.969 78.6963C237.867 79.9572 234.651 80.62 230.251 80.62C225.43 80.62 221.365 79.5075 218.032 77.3077C214.698 75.1078 212.059 71.797 210.13 67.3414L209.907 66.8256L209.42 67.1075L190.1 78.3075L189.735 78.5196L189.883 78.9156C192.72 86.4806 197.5 92.4919 204.215 96.937ZM122.15 64.1L132.946 30.2649L143.741 64.1H122.15Z"
        stroke="#E0E1E5"/>
</svg>
