<svg width="313" height="100" viewBox="0 0 313 100" fill="none" xmlns="http://www.w3.org/2000/svg">
<path fill-rule="evenodd" clip-rule="evenodd" d="M27.6574 100L0.0859375 0H25.7021L41.9119 65.6431L59.9972 0H79.7207L97.8061 65.6431L114.016 0H139.632L112.061 100H85.0576L69.859 44.9383L54.6603 100H27.6574ZM69.859 41.18L85.819 99H111.299L138.319 1H114.799L97.859 69.6L78.959 1H60.759L41.859 69.6L24.919 1H1.39896L28.419 99H53.899L69.859 41.18ZM219.126 76.44V100H155.526V0H218.426V23.56H179.926V37.8H214.926V61.08H179.926V76.44H219.126ZM178.926 77.44V60.08H213.926V38.8H178.926V22.56H217.426V1H156.526V99H218.126V77.44H178.926ZM238.164 100V0H277.524C286.509 0 294.079 2.68236 300.162 8.08724C306.366 13.4214 309.464 20.4231 309.464 29C309.464 36.6633 306.823 43.0401 301.544 48.0587C309.142 53.3429 312.964 60.7903 312.964 70.3C312.964 79.0641 309.819 86.2509 303.523 91.7719C297.254 97.2698 289.498 100 280.324 100H238.164ZM300.788 48.7521C300.505 48.5584 300.217 48.3677 299.924 48.18C300.186 47.9519 300.443 47.7207 300.693 47.4864C305.874 42.6406 308.464 36.4785 308.464 29C308.464 20.6933 305.477 13.9733 299.504 8.84C293.624 3.61333 286.297 1 277.524 1H239.164V99H280.324C289.284 99 296.797 96.34 302.864 91.02C308.93 85.7 311.964 78.7933 311.964 70.3C311.964 61.0382 308.239 53.8555 300.788 48.7521ZM282.967 25.217L282.957 25.2066C281.577 23.7459 279.796 23 277.524 23H262.564V38.36H277.524C279.808 38.36 281.592 37.6519 282.966 36.2834C284.355 34.8082 285.064 32.9647 285.064 30.68C285.064 28.3896 284.352 26.6025 282.977 25.2271L282.967 25.217ZM283.684 36.98C282.097 38.5667 280.044 39.36 277.524 39.36H261.564V22H277.524C280.044 22 282.097 22.84 283.684 24.52C285.27 26.1067 286.064 28.16 286.064 30.68C286.064 33.2 285.27 35.3 283.684 36.98ZM286.327 62.5976L286.318 62.5878C284.855 61.0436 282.893 60.24 280.324 60.24H262.564V77H280.324C282.904 77 284.869 76.2354 286.327 74.7821C287.799 73.2232 288.564 71.1988 288.564 68.62C288.564 66.0343 287.796 64.0664 286.337 62.6071L286.327 62.5976ZM280.324 78C283.124 78 285.364 77.16 287.044 75.48C288.724 73.7067 289.564 71.42 289.564 68.62C289.564 65.82 288.724 63.58 287.044 61.9C285.364 60.1267 283.124 59.24 280.324 59.24H261.564V78H280.324Z" fill="#E0E1E5"/>
</svg>
