<svg width="220" height="154" viewBox="0 0 220 154" fill="none" xmlns="http://www.w3.org/2000/svg">
<path d="M107.497 52.9077C108.529 52.1875 109.9 52.1875 110.932 52.9077L174.048 96.97C175.758 98.164 175.758 100.696 174.048 101.89L112.649 144.753C110.586 146.194 107.843 146.194 105.78 144.753L44.381 101.89C42.6707 100.696 42.6707 98.164 44.381 96.97L107.497 52.9077Z" fill="url(#paint0_linear_230_3238)"/>
<g filter="url(#filter0_bi_230_3238)">
<path d="M107.497 29.6921C108.529 28.972 109.9 28.972 110.932 29.6921L174.048 73.7545C175.758 74.9484 175.758 77.4802 174.048 78.6742L112.649 121.538C110.586 122.978 107.843 122.978 105.78 121.538L44.381 78.6742C42.6707 77.4802 42.6707 74.9484 44.381 73.7544L107.497 29.6921Z" fill="url(#paint1_linear_230_3238)"/>
</g>
<g filter="url(#filter1_bi_230_3238)">
<path d="M105.78 7.67529C107.843 6.23495 110.586 6.23495 112.649 7.67529L174.048 50.5388C175.758 51.7327 175.758 54.2645 174.048 55.4585L112.649 98.322C110.586 99.7623 107.843 99.7623 105.78 98.322L44.381 55.4585C42.6707 54.2645 42.6707 51.7327 44.381 50.5387L105.78 7.67529Z" fill="#C3B5E1" fill-opacity="0.4"/>
</g>
<path opacity="0.4" fill-rule="evenodd" clip-rule="evenodd" d="M126.629 77.6855C127.118 78.4023 126.934 79.38 126.217 79.8693L113.644 88.4507C110.973 90.274 107.457 90.274 104.786 88.4507L93.4005 80.6799C92.6837 80.1907 92.4992 79.2129 92.9885 78.4961C93.4778 77.7793 94.4555 77.5948 95.1723 78.0841L106.557 85.8548C108.16 86.9488 110.27 86.9488 111.873 85.8548L124.445 77.2734C125.162 76.7842 126.14 76.9686 126.629 77.6855Z" fill="white"/>
<path opacity="0.4" fill-rule="evenodd" clip-rule="evenodd" d="M126.629 124.828C127.118 125.545 126.934 126.523 126.217 127.012L113.644 135.593C110.973 137.417 107.457 137.417 104.786 135.593L93.4005 127.823C92.6837 127.333 92.4992 126.356 92.9885 125.639C93.4778 124.922 94.4555 124.738 95.1723 125.227L106.557 132.998C108.16 134.092 110.27 134.092 111.873 132.998L124.445 124.416C125.162 123.927 126.14 124.111 126.629 124.828Z" fill="white"/>
<defs>
<filter id="filter0_bi_230_3238" x="37.0986" y="23.152" width="144.232" height="105.466" filterUnits="userSpaceOnUse" color-interpolation-filters="sRGB">
<feFlood flood-opacity="0" result="BackgroundImageFix"/>
<feGaussianBlur in="BackgroundImageFix" stdDeviation="3"/>
<feComposite in2="SourceAlpha" operator="in" result="effect1_backgroundBlur_230_3238"/>
<feBlend mode="normal" in="SourceGraphic" in2="effect1_backgroundBlur_230_3238" result="shape"/>
<feColorMatrix in="SourceAlpha" type="matrix" values="0 0 0 0 0 0 0 0 0 0 0 0 0 0 0 0 0 0 127 0" result="hardAlpha"/>
<feOffset dx="-2" dy="2"/>
<feGaussianBlur stdDeviation="1.5"/>
<feComposite in2="hardAlpha" operator="arithmetic" k2="-1" k3="1"/>
<feColorMatrix type="matrix" values="0 0 0 0 1 0 0 0 0 1 0 0 0 0 1 0 0 0 0.8 0"/>
<feBlend mode="normal" in2="shape" result="effect2_innerShadow_230_3238"/>
</filter>
<filter id="filter1_bi_230_3238" x="36.0986" y="-0.404907" width="146.232" height="106.807" filterUnits="userSpaceOnUse" color-interpolation-filters="sRGB">
<feFlood flood-opacity="0" result="BackgroundImageFix"/>
<feGaussianBlur in="BackgroundImageFix" stdDeviation="3.5"/>
<feComposite in2="SourceAlpha" operator="in" result="effect1_backgroundBlur_230_3238"/>
<feBlend mode="normal" in="SourceGraphic" in2="effect1_backgroundBlur_230_3238" result="shape"/>
<feColorMatrix in="SourceAlpha" type="matrix" values="0 0 0 0 0 0 0 0 0 0 0 0 0 0 0 0 0 0 127 0" result="hardAlpha"/>
<feOffset dx="-2" dy="2"/>
<feGaussianBlur stdDeviation="1.5"/>
<feComposite in2="hardAlpha" operator="arithmetic" k2="-1" k3="1"/>
<feColorMatrix type="matrix" values="0 0 0 0 1 0 0 0 0 1 0 0 0 0 1 0 0 0 0.8 0"/>
<feBlend mode="normal" in2="shape" result="effect2_innerShadow_230_3238"/>
</filter>
<linearGradient id="paint0_linear_230_3238" x1="177.572" y1="99.4299" x2="40.8574" y2="99.4299" gradientUnits="userSpaceOnUse">
<stop stop-color="#5FC8D9"/>
<stop offset="1" stop-color="#6F9FE2"/>
</linearGradient>
<linearGradient id="paint1_linear_230_3238" x1="45.6826" y1="89.4138" x2="183.122" y2="70.5056" gradientUnits="userSpaceOnUse">
<stop stop-color="#6F95D8"/>
<stop offset="1" stop-color="#9D5BDD"/>
</linearGradient>
</defs>
</svg>
