<svg width="220" height="154" viewBox="0 0 220 154" fill="none" xmlns="http://www.w3.org/2000/svg">
    <path fill-rule="evenodd" clip-rule="evenodd"
          d="M69.5859 11.1429C69.5859 6.72467 73.1677 3.14294 77.5859 3.14294H194.714C199.132 3.14294 202.714 6.72467 202.714 11.1429V90.2345C202.714 94.6528 199.132 98.2345 194.714 98.2345H144.593L146.453 108.536H162.884C163.436 108.536 163.884 108.984 163.884 109.536V115.461C163.884 116.013 163.436 116.461 162.884 116.461H109.414C108.862 116.461 108.414 116.013 108.414 115.461V109.536C108.414 108.984 108.862 108.536 109.414 108.536H125.85L127.71 98.2345H77.5859C73.1677 98.2345 69.5859 94.6528 69.5859 90.2345V11.1429Z"
          fill="url(#paint0_linear_230_3202)"/>
    <g filter="url(#filter0_b_230_3202)">
        <path fill-rule="evenodd" clip-rule="evenodd"
              d="M17.2852 44.4249C17.2852 40.0067 20.8669 36.4249 25.2852 36.4249H142.413C146.832 36.4249 150.413 40.0066 150.413 44.4249V123.517C150.413 127.935 146.832 131.517 142.413 131.517H91.6412L93.3581 141.818H110.585C111.138 141.818 111.585 142.266 111.585 142.818V148.742C111.585 149.295 111.138 149.742 110.585 149.742H57.1152C56.563 149.742 56.1152 149.295 56.1152 148.742V142.818C56.1152 142.266 56.563 141.818 57.1152 141.818H74.3399L76.0568 131.517H25.2852C20.8669 131.517 17.2852 127.935 17.2852 123.517V44.4249Z"
              fill="#C3B5E1" fill-opacity="0.3"/>
    </g>
    <g filter="url(#filter1_bi_230_3202)">
        <rect x="17.2852" y="36.4249" width="133.128" height="95.0916" rx="8" fill="#B5CFE1" fill-opacity="0.1"/>
    </g>
    <defs>
        <filter id="filter0_b_230_3202" x="-2.71484" y="16.4249" width="173.128" height="153.317"
                filterUnits="userSpaceOnUse" color-interpolation-filters="sRGB">
            <feFlood flood-opacity="0" result="BackgroundImageFix"/>
            <feGaussianBlur in="BackgroundImageFix" stdDeviation="10"/>
            <feComposite in2="SourceAlpha" operator="in" result="effect1_backgroundBlur_230_3202"/>
            <feBlend mode="normal" in="SourceGraphic" in2="effect1_backgroundBlur_230_3202" result="shape"/>
        </filter>
        <filter id="filter1_bi_230_3202" x="6.28516" y="25.4249" width="155.128" height="117.092"
                filterUnits="userSpaceOnUse" color-interpolation-filters="sRGB">
            <feFlood flood-opacity="0" result="BackgroundImageFix"/>
            <feGaussianBlur in="BackgroundImageFix" stdDeviation="5.5"/>
            <feComposite in2="SourceAlpha" operator="in" result="effect1_backgroundBlur_230_3202"/>
            <feBlend mode="normal" in="SourceGraphic" in2="effect1_backgroundBlur_230_3202" result="shape"/>
            <feColorMatrix in="SourceAlpha" type="matrix" values="0 0 0 0 0 0 0 0 0 0 0 0 0 0 0 0 0 0 127 0"
                           result="hardAlpha"/>
            <feOffset dx="-2" dy="2"/>
            <feGaussianBlur stdDeviation="1.5"/>
            <feComposite in2="hardAlpha" operator="arithmetic" k2="-1" k3="1"/>
            <feColorMatrix type="matrix" values="0 0 0 0 1 0 0 0 0 1 0 0 0 0 1 0 0 0 0.8 0"/>
            <feBlend mode="normal" in2="shape" result="effect2_innerShadow_230_3202"/>
        </filter>
        <linearGradient id="paint0_linear_230_3202" x1="202.714" y1="59.8017" x2="69.5859" y2="59.8017"
                        gradientUnits="userSpaceOnUse">
            <stop stop-color="#5FC8D9"/>
            <stop offset="1" stop-color="#6F9FE2"/>
        </linearGradient>
    </defs>
</svg>
