<svg width="440" height="79" viewBox="0 0 440 79" fill="none" xmlns="http://www.w3.org/2000/svg">
    <path fill-rule="evenodd" clip-rule="evenodd"
          d="M11.5593 73.5102L11.5525 73.5058C6.45343 70.1303 2.81795 65.5584 0.664197 59.815L0.367188 59.023L16.4235 49.715L16.8702 50.7466C18.2647 53.9671 20.1535 56.3208 22.5093 57.8752C24.8646 59.4294 27.7581 60.2319 31.2405 60.2319C34.4665 60.2319 36.7197 59.7422 38.136 58.8924C39.4709 58.0915 40.1205 56.9411 40.1205 55.3039C40.1205 53.5779 39.2994 52.2217 37.4157 51.1887L37.3987 51.1794L37.382 51.1694C35.4334 50.0002 31.6047 48.6082 25.7764 47.0124C22.6871 46.1698 19.9657 45.2171 17.6187 44.1503C15.2585 43.0774 12.9432 41.6869 10.6725 39.9839L10.6585 39.9734L10.6448 39.9623C8.37241 38.1298 6.61352 35.8559 5.37185 33.1534L5.36714 33.1432L5.36267 33.1328C4.18984 30.4206 3.61653 27.3348 3.61653 23.8959C3.61653 16.9008 6.12016 11.2376 11.1491 7.01041L11.1545 7.00586C16.1978 2.82712 22.1817 0.743896 29.0565 0.743896C35.1831 0.743896 40.6376 2.20609 45.3875 5.15553C50.1421 8.03839 53.869 12.2456 56.5773 17.7333L56.9895 18.5686L41.2049 27.8055L40.7373 26.821C39.4724 24.1582 37.9402 22.2291 36.1713 20.9656L36.1618 20.9589L36.1525 20.9519C34.4317 19.6613 32.0974 18.9679 29.0565 18.9679C26.6972 18.9679 25.0069 19.493 23.8572 20.4128L23.8522 20.4168C22.7475 21.2889 22.2565 22.2941 22.2565 23.4799C22.2565 24.9185 22.899 26.206 24.3654 27.3697C25.9395 28.5622 29.3065 29.9746 34.6467 31.5697L34.6562 31.5726C37.572 32.4751 39.8381 33.2071 41.4491 33.7674C43.1134 34.3463 45.1729 35.308 47.6149 36.633C50.1627 37.9086 52.1494 39.3244 53.5111 40.9057C54.9256 42.4006 56.121 44.3765 57.1184 46.7946C58.2224 49.2305 58.7605 52.0051 58.7605 55.0959C58.7605 62.3036 56.1487 68.0784 50.8999 72.3067L50.8933 72.312C45.6824 76.4372 38.9281 78.4559 30.7205 78.4559C23.1591 78.4559 16.7551 76.8298 11.5661 73.5146L11.5593 73.5102ZM56.2005 47.1919C55.2299 44.8346 54.0859 42.9626 52.7685 41.5759C51.5205 40.1199 49.6485 38.7679 47.1525 37.5199C44.7259 36.2026 42.7152 35.2666 41.1205 34.7119C39.5259 34.1572 37.2725 33.4292 34.3605 32.5279C29.0219 30.9332 25.4859 29.4772 23.7525 28.1599C22.0885 26.8426 21.2565 25.2826 21.2565 23.4799C21.2565 21.9546 21.9152 20.6719 23.2325 19.6319C24.6192 18.5226 26.5605 17.9679 29.0565 17.9679C32.2459 17.9679 34.8112 18.6959 36.7525 20.1519C38.4789 21.385 39.9585 23.1664 41.1914 25.4961C41.3449 25.7862 41.4947 26.0848 41.6405 26.3919L55.6805 18.1759C53.0459 12.8372 49.4405 8.78123 44.8645 6.0079C40.2885 3.16523 35.0192 1.7439 29.0565 1.7439C22.4005 1.7439 16.6459 3.75456 11.7925 7.7759C7.00853 11.7972 4.61653 17.1706 4.61653 23.8959C4.61653 27.2239 5.17119 30.1706 6.28053 32.7359C7.45919 35.3012 9.12319 37.4506 11.2725 39.1839C13.4912 40.8479 15.7445 42.1999 18.0325 43.2399C20.3205 44.2799 22.9899 45.2159 26.0405 46.0479C31.8645 47.6426 35.8165 49.0639 37.8965 50.3119C40.0459 51.4906 41.1205 53.1546 41.1205 55.3039C41.1205 59.2559 37.8272 61.2319 31.2405 61.2319C24.2978 61.2319 19.3414 58.1736 16.3713 52.057C16.227 51.7598 16.0874 51.4555 15.9525 51.1439L1.60053 59.4639C3.68053 65.0106 7.18186 69.4132 12.1045 72.6719C17.0965 75.8612 23.3019 77.4559 30.7205 77.4559C38.7632 77.4559 45.2805 75.4799 50.2725 71.5279C55.2645 67.5066 57.7605 62.0292 57.7605 55.0959C57.7605 52.1146 57.2405 49.4799 56.2005 47.1919ZM118.569 58.9839V76.9999H70.8086V2.1999H118.049V20.2159H89.4487V30.2799H115.449V48.0879H89.4487V58.9839H118.569ZM88.4487 59.9839V47.0879H114.449V31.2799H88.4487V19.2159H117.049V3.1999H71.8086V75.9999H117.569V59.9839H88.4487ZM170.89 76.9999L157.162 53.0799H150.837V76.9999H132.197V2.1999H162.317C169.513 2.1999 175.661 4.72979 180.704 9.77279C185.747 14.8158 188.277 20.9644 188.277 28.1599C188.277 32.7961 186.97 37.11 184.372 41.0806C182.038 44.6813 178.991 47.5438 175.243 49.6614L191.093 76.9999H170.89ZM173.861 49.2719C174.159 49.1179 174.452 48.9593 174.741 48.7962C178.355 46.7561 181.286 44.0027 183.533 40.5359C186.029 36.7226 187.277 32.5972 187.277 28.1599C187.277 21.2266 184.85 15.3332 179.997 10.4799C175.144 5.62656 169.25 3.1999 162.317 3.1999H133.197V75.9999H149.837V52.0799H157.741L171.469 75.9999H189.357L173.861 49.2719ZM167.399 34.1454L167.406 34.1376C168.886 32.5341 169.637 30.5635 169.637 28.1599C169.637 25.7563 168.886 23.7857 167.406 22.1822L167.399 22.1744L167.392 22.1665C165.976 20.5657 164.302 19.7999 162.317 19.7999H150.837V36.5199H162.317C164.302 36.5199 165.976 35.7541 167.392 34.1533L167.399 34.1454ZM149.837 37.5199V18.7999H162.317C164.605 18.7999 166.546 19.7012 168.141 21.5039C169.805 23.3066 170.637 25.5252 170.637 28.1599C170.637 30.7946 169.805 33.0132 168.141 34.8159C166.546 36.6186 164.605 37.5199 162.317 37.5199H149.837ZM219.152 76.9999L194.788 2.1999H215.109L230.486 53.2901L245.863 2.1999H266.183L241.82 76.9999H219.152ZM230.486 56.7599L214.366 3.1999H196.166L219.878 75.9999H241.094L264.806 3.1999H246.606L230.486 56.7599ZM276.302 2.1999H294.942V76.9999H276.302V2.1999ZM378.099 61.4582C375.025 66.2595 370.867 70.1014 365.627 72.9839C360.08 75.9652 354.013 77.4559 347.427 77.4559C336.541 77.4559 327.493 73.8506 320.283 66.6399C313.141 59.3599 309.571 50.3466 309.571 39.5999C309.571 28.8532 313.141 19.8746 320.283 12.6639C327.493 5.3839 336.541 1.7439 347.427 1.7439C353.944 1.7439 359.976 3.26923 365.523 6.3199C370.765 9.13773 374.955 12.9466 378.091 17.7464C378.273 18.0249 378.452 18.3067 378.627 18.5919L364.275 26.9119C364.196 26.7711 364.115 26.632 364.033 26.4944C362.452 23.8545 360.244 21.8097 357.411 20.3599C354.429 18.7652 351.101 17.9679 347.427 17.9679C340.979 17.9679 335.813 19.9439 331.931 23.8959C328.117 27.8479 326.211 33.0826 326.211 39.5999C326.211 46.1172 328.117 51.3519 331.931 55.3039C335.813 59.2559 340.979 61.2319 347.427 61.2319C351.101 61.2319 354.429 60.4346 357.411 58.8399C360.234 57.3642 362.404 55.3839 363.92 52.8988C364.043 52.6985 364.161 52.4948 364.275 52.2879L378.627 60.6079C378.454 60.8946 378.279 61.178 378.099 61.4582ZM332.647 24.5934C329.049 28.3245 327.211 33.2917 327.211 39.5999C327.211 45.9083 329.049 50.8757 332.648 54.6068C336.311 58.3335 341.201 60.2319 347.427 60.2319C350.951 60.2319 354.115 59.4686 356.939 57.9581L356.947 57.9536C359.839 56.4419 361.976 54.3917 363.398 51.806L363.891 50.9098L380.006 60.2519L379.484 61.1224C376.269 66.4809 371.803 70.7281 366.108 73.8601L366.1 73.8648C360.401 76.9279 354.171 78.4559 347.427 78.4559C336.296 78.4559 326.987 74.7588 319.575 67.347L319.569 67.3402C312.233 59.8624 308.571 50.5928 308.571 39.5999C308.571 28.6069 312.233 19.37 319.572 11.9602C326.983 4.47783 336.293 0.743896 347.427 0.743896C354.106 0.743896 360.303 2.30866 366.001 5.44162C371.696 8.50364 376.195 12.7147 379.479 18.0691L380.015 18.9429L363.899 28.2857L363.402 27.4011C361.907 24.7352 359.766 22.6884 356.955 21.2501L356.947 21.246L356.939 21.2417C354.115 19.7312 350.951 18.9679 347.427 18.9679C341.201 18.9679 336.31 20.8665 332.647 24.5934ZM439.425 58.9839V76.9999H391.665V2.1999H438.905V20.2159H410.305V30.2799H436.305V48.0879H410.305V58.9839H439.425ZM409.305 59.9839V47.0879H435.305V31.2799H409.305V19.2159H437.905V3.1999H392.665V75.9999H438.425V59.9839H409.305ZM277.302 3.1999V75.9999H293.942V3.1999H277.302Z"
          fill="#E0E1E5"/>
</svg>
