<svg width="272" height="79" viewBox="0 0 272 79" fill="none" xmlns="http://www.w3.org/2000/svg">
    <path fill-rule="evenodd" clip-rule="evenodd"
          d="M53.7885 76.9999L50.1485 65.5599H24.571L20.931 76.9999H0.603516L26.0355 2.1999H48.684L74.116 76.9999H53.7885ZM23.8397 64.5599H50.8797L54.5197 75.9999H72.7197L47.9677 3.1999H26.7517L1.99974 75.9999H20.1997L23.8397 64.5599ZM45.8877 48.9599L37.3597 22.2319L28.8317 48.9599H45.8877ZM30.2005 47.9599H44.519L37.3597 25.5217L30.2005 47.9599ZM102.807 76.9999H84.1672V2.1999H112.727C120.122 2.1999 126.409 4.72329 131.525 9.76779C136.639 14.8097 139.207 20.9598 139.207 28.1599C139.207 35.36 136.639 41.5101 131.525 46.552C126.409 51.5965 120.122 54.1199 112.727 54.1199H102.807V76.9999ZM101.807 53.1199H112.727C119.869 53.1199 125.901 50.6932 130.823 45.8399C135.746 40.9866 138.207 35.0932 138.207 28.1599C138.207 21.2266 135.746 15.3332 130.823 10.4799C125.901 5.62656 119.869 3.1999 112.727 3.1999H85.1672V75.9999H101.807V53.1199ZM112.727 36.5199C115.028 36.5199 116.871 35.7249 118.336 34.1376C119.817 32.5341 120.567 30.5635 120.567 28.1599C120.567 25.7563 119.817 23.7857 118.336 22.1822C116.871 20.5949 115.028 19.7999 112.727 19.7999H102.807V36.5199H112.727ZM112.727 37.5199C115.293 37.5199 117.407 36.6186 119.071 34.8159C120.735 33.0132 121.567 30.7946 121.567 28.1599C121.567 25.5252 120.735 23.3066 119.071 21.5039C117.407 19.7012 115.293 18.7999 112.727 18.7999H101.807V37.5199H112.727ZM170.391 76.9999H151.751V2.1999H180.311C187.705 2.1999 193.992 4.72329 199.109 9.76779C204.223 14.8097 206.791 20.9598 206.791 28.1599C206.791 35.36 204.223 41.5101 199.109 46.552C193.992 51.5965 187.705 54.1199 180.311 54.1199H170.391V76.9999ZM169.391 53.1199H180.311C187.452 53.1199 193.484 50.6932 198.407 45.8399C203.33 40.9866 205.791 35.0932 205.791 28.1599C205.791 21.2266 203.33 15.3332 198.407 10.4799C193.484 5.62656 187.452 3.1999 180.311 3.1999H152.751V75.9999H169.391V53.1199ZM180.311 36.5199C182.612 36.5199 184.455 35.7249 185.92 34.1376C187.4 32.5341 188.151 30.5635 188.151 28.1599C188.151 25.7563 187.4 23.7857 185.92 22.1822C184.455 20.5949 182.612 19.7999 180.311 19.7999H170.391V36.5199H180.311ZM180.311 37.5199C182.876 37.5199 184.991 36.6186 186.655 34.8159C188.319 33.0132 189.151 30.7946 189.151 28.1599C189.151 25.5252 188.319 23.3066 186.655 21.5039C184.991 19.7012 182.876 18.7999 180.311 18.7999H169.391V37.5199H180.311ZM224.622 73.5102L224.616 73.5058C219.516 70.1303 215.881 65.5584 213.727 59.815L213.43 59.023L229.486 49.715L229.933 50.7466C231.328 53.9671 233.216 56.3208 235.572 57.8752C237.928 59.4294 240.821 60.2319 244.303 60.2319C247.529 60.2319 249.783 59.7422 251.199 58.8924C252.534 58.0915 253.184 56.9411 253.184 55.3039C253.184 53.5779 252.362 52.2217 250.479 51.1887L250.462 51.1794L250.445 51.1694C248.496 50.0002 244.668 48.6082 238.839 47.0124C235.75 46.1698 233.029 45.2171 230.682 44.1503C228.321 43.0774 226.006 41.6869 223.735 39.9839L223.721 39.9734L223.708 39.9623C221.435 38.1298 219.676 35.8559 218.435 33.1534L218.43 33.1432L218.426 33.1328C217.253 30.4206 216.679 27.3348 216.679 23.8959C216.679 16.9008 219.183 11.2376 224.212 7.01041L224.217 7.00586C229.261 2.82714 235.245 0.743896 242.119 0.743896C248.246 0.743896 253.701 2.20628 258.451 5.15608C263.206 8.03892 266.932 12.2459 269.64 17.7333L270.052 18.5686L254.268 27.8055L253.8 26.821C252.535 24.1582 251.003 22.2291 249.234 20.9656L249.225 20.9589L249.215 20.9519C247.495 19.6613 245.16 18.9679 242.119 18.9679C239.76 18.9679 238.07 19.493 236.92 20.4128L236.915 20.4168C235.81 21.2889 235.319 22.2941 235.319 23.4799C235.319 24.9185 235.962 26.206 237.428 27.3697C239.003 28.5622 242.37 29.9746 247.71 31.5697L247.719 31.5726C250.635 32.4751 252.901 33.2071 254.512 33.7674C256.176 34.3463 258.236 35.308 260.678 36.633C263.225 37.9085 265.212 39.3243 266.574 40.9055C267.988 42.4002 269.184 44.376 270.181 46.7939C271.285 49.23 271.823 52.0047 271.823 55.0959C271.823 62.3036 269.212 68.0784 263.963 72.3067L263.956 72.312C258.745 76.4372 251.991 78.4559 243.783 78.4559C236.222 78.4559 229.818 76.8298 224.629 73.5146L224.622 73.5102ZM269.263 47.1919C268.293 44.8346 267.149 42.9626 265.831 41.5759C264.583 40.1199 262.711 38.7679 260.215 37.5199C257.789 36.2026 255.778 35.2666 254.184 34.7119C252.589 34.1572 250.335 33.4292 247.423 32.5279C242.085 30.9332 238.549 29.4772 236.815 28.1599C235.151 26.8426 234.319 25.2826 234.319 23.4799C234.319 21.9546 234.978 20.6719 236.295 19.6319C237.682 18.5226 239.623 17.9679 242.119 17.9679C245.309 17.9679 247.874 18.6959 249.815 20.1519C251.542 21.385 253.021 23.1664 254.254 25.4961C254.408 25.7862 254.558 26.0848 254.703 26.3919L268.743 18.1759C266.109 12.8372 262.503 8.78123 257.927 6.0079C253.352 3.16523 248.082 1.7439 242.119 1.7439C235.463 1.7439 229.709 3.75456 224.855 7.7759C220.071 11.7972 217.679 17.1706 217.679 23.8959C217.679 27.2239 218.234 30.1706 219.343 32.7359C220.522 35.3012 222.186 37.4506 224.335 39.1839C226.554 40.8479 228.807 42.1999 231.095 43.2399C233.383 44.2799 236.053 45.2159 239.104 46.0479C244.927 47.6426 248.879 49.0639 250.959 50.3119C253.109 51.4906 254.184 53.1546 254.184 55.3039C254.184 59.2559 250.89 61.2319 244.303 61.2319C237.361 61.2319 232.404 58.1736 229.434 52.057C229.29 51.7599 229.15 51.4555 229.015 51.1439L214.663 59.4639C216.743 65.0106 220.245 69.4132 225.167 72.6719C230.16 75.8612 236.365 77.4559 243.783 77.4559C251.826 77.4559 258.343 75.4799 263.335 71.5279C268.327 67.5066 270.823 62.0292 270.823 55.0959C270.823 52.1146 270.303 49.4799 269.263 47.1919Z"
          fill="#E0E1E5"/>
</svg>
