<svg width="32" height="32" viewBox="0 0 32 32" fill="none" xmlns="http://www.w3.org/2000/svg">
<path d="M16 32C24.8365 32 32 24.8365 32 16C32 7.16346 24.8365 0 16 0C7.16346 0 0 7.16346 0 16C0 24.8365 7.16346 32 16 32Z" fill="white"/>
<path d="M6.85841 15.6496C6.85841 15.6496 14.784 12.2778 17.5327 11.0905C18.5864 10.6157 22.1598 9.09592 22.1598 9.09592C22.1598 9.09592 23.8091 8.43109 23.6716 10.0457C23.6258 10.7106 23.2593 13.0376 22.8928 15.5547C22.343 19.1165 21.7475 23.0107 21.7475 23.0107C21.7475 23.0107 21.6559 24.103 20.8771 24.293C20.0983 24.4829 18.8155 23.6281 18.5864 23.4381C18.4031 23.2957 15.1505 21.1586 13.9594 20.1138C13.6387 19.8288 13.2722 19.259 14.0051 18.5941C15.6544 17.0269 17.6243 15.0798 18.8155 13.845C19.3652 13.2751 19.915 11.9454 17.6243 13.56C14.3717 15.8871 11.1648 18.0717 11.1648 18.0717C11.1648 18.0717 10.4318 18.5466 9.05741 18.1191C7.68299 17.6918 6.07955 17.1219 6.07955 17.1219C6.07955 17.1219 4.98011 16.4095 6.85841 15.6496Z" fill="#29416F"/>
</svg>
