<svg width="32" height="32" viewBox="0 0 32 32" fill="none" xmlns="http://www.w3.org/2000/svg">
<path d="M8.04394 28.8851C8.04394 28.3496 8.04394 27.8141 8.04394 27.2786C8.04775 27.2567 8.04698 27.2343 8.04167 27.2127C8.03637 27.1911 8.02665 27.1709 8.01312 27.1532C7.99958 27.1354 7.98251 27.1207 7.96298 27.1097C7.94344 27.0988 7.92184 27.092 7.89953 27.0896C6.55888 26.7126 5.32147 26.0409 4.27953 25.1246C3.52035 24.4409 2.88826 23.6307 2.41201 22.7307C1.74073 21.4307 1.29399 20.0286 1.0903 18.5826C0.837931 16.7687 0.750283 14.936 0.82841 13.1067C0.845543 12.2538 0.8896 11.4106 0.987504 10.5577C1.14364 8.93695 1.55663 7.35066 2.2113 5.85712C3.0197 4.02074 4.48624 2.54565 6.32817 1.71625C7.5829 1.14785 8.9029 0.732883 10.259 0.480535C11.5889 0.23117 12.9354 0.0781174 14.2878 0.0225925C15.5068 -0.0200832 16.7272 -0.00229243 17.9445 0.075898C19.6867 0.148695 21.4131 0.434348 23.0844 0.926362C24.3237 1.27999 25.5025 1.81491 26.5821 2.51341C27.6339 3.22822 28.4846 4.1963 29.0541 5.32648C29.7237 6.6465 30.1788 8.06275 30.4028 9.52308C30.5483 10.3901 30.6439 11.2646 30.6891 12.1423C30.7528 13.2302 30.7454 14.323 30.7038 15.4061C30.6622 16.4891 30.5692 17.5407 30.4346 18.602C30.2644 20.1948 29.7698 21.737 28.9807 23.1354C27.9536 24.9043 26.3082 26.2401 24.3548 26.891C23.0191 27.354 21.6399 27.6836 20.2379 27.8747C19.2123 28.0152 18.1844 28.117 17.1515 28.1582C16.3609 28.1945 15.5703 28.1848 14.7797 28.1727C14.3318 28.1727 13.8864 28.1291 13.4409 28.0903C13.3972 28.0822 13.352 28.087 13.311 28.1043C13.2701 28.1215 13.2352 28.1504 13.2108 28.1873C12.3101 29.2582 11.3751 30.3001 10.4328 31.3371C10.2611 31.5263 10.0624 31.6896 9.84293 31.8217C9.69885 31.9153 9.53456 31.974 9.36334 31.9931C9.19211 32.0123 9.01873 31.9913 8.85722 31.9318C8.6957 31.8724 8.55056 31.7762 8.43352 31.651C8.31648 31.5258 8.23082 31.3751 8.18345 31.2111C8.09018 30.9197 8.04392 30.6155 8.04639 30.3098C8.04394 29.83 8.04394 29.3576 8.04394 28.8851ZM9.13312 30.9179L9.24816 30.8113L11.2919 28.5652C12.0784 27.701 12.8641 26.836 13.6489 25.9702C13.6875 25.9174 13.7396 25.8757 13.7998 25.8493C13.86 25.8229 13.9262 25.8128 13.9916 25.82C14.2584 25.8467 14.5252 25.8564 14.7944 25.8588C15.7245 25.8588 16.6546 25.8588 17.5847 25.7934C18.4291 25.7279 19.2711 25.6262 20.1082 25.4953C21.0094 25.34 21.9016 25.137 22.7809 24.8872C24.739 24.3662 26.2541 23.2517 27.2062 21.4465C27.7683 20.3367 28.1209 19.1346 28.2464 17.8993C28.3952 16.735 28.4843 15.564 28.5132 14.3908C28.5566 12.917 28.455 11.4426 28.2097 9.98829C28.0397 8.93464 27.7337 7.90698 27.2992 6.93049C26.7461 5.71901 25.9628 4.71589 24.7562 4.07138C22.9058 3.08281 20.9036 2.64183 18.8403 2.41649C18.2553 2.35349 17.6704 2.31957 17.0829 2.29777C15.8801 2.23638 14.6748 2.24285 13.4727 2.31715C12.6082 2.38066 11.7484 2.49556 10.8978 2.66121C9.647 2.88693 8.43694 3.29521 7.30721 3.8727C6.65226 4.2003 6.05807 4.63532 5.54983 5.1593C4.72613 6.07067 4.12193 7.15509 3.78266 8.33097C3.38019 9.70045 3.16049 11.1162 3.12916 12.5421C3.0504 13.968 3.06839 15.3976 3.183 16.8211C3.25431 17.6682 3.39759 18.5079 3.61133 19.3313C3.92934 20.6143 4.54627 21.8059 5.41277 22.8107C6.34824 23.8358 7.55732 24.5783 8.9006 24.9526C9.06948 25.0035 9.14536 25.0616 9.14536 25.2506C9.13067 25.9484 9.14536 26.6462 9.14536 27.3441L9.13312 30.9179Z" fill="white"/>
<path d="M7.42268 9.27628C7.40554 8.74565 7.69681 8.36039 8.04926 8.01391C8.51411 7.57309 9.02626 7.18391 9.57657 6.8533C9.8275 6.7001 10.1259 6.64173 10.4168 6.68892C10.7078 6.7361 10.9717 6.88568 11.1602 7.11014C11.826 7.80299 12.422 8.5585 12.9396 9.36593C13.1959 9.72913 13.3894 10.132 13.5123 10.558C13.5614 10.7243 13.5646 10.9005 13.5216 11.0684C13.4785 11.2363 13.3908 11.3897 13.2675 11.5127C12.9852 11.7871 12.6842 12.0421 12.3668 12.2759C12.2069 12.4021 12.088 12.5721 12.0249 12.7646C11.9618 12.9572 11.9573 13.1639 12.0119 13.359C12.2079 14.2751 12.6522 15.121 13.2969 15.8062C14.0804 16.753 15.0898 17.4917 16.234 17.9554C16.5152 18.0985 16.8373 18.1421 17.147 18.0789C17.3166 18.0331 17.4673 17.9357 17.5778 17.8003C17.7491 17.5847 17.9351 17.3763 18.0893 17.1461C18.2893 16.859 18.5947 16.6605 18.9404 16.5931C19.286 16.5257 19.6446 16.5945 19.9397 16.7851C20.7694 17.2616 21.5527 17.8132 22.2796 18.4327C22.4509 18.5781 22.6296 18.7186 22.801 18.8664C23.0037 19.0195 23.1501 19.2341 23.2177 19.4775C23.2854 19.7208 23.2705 19.9794 23.1754 20.2136C23.0242 20.6074 22.8038 20.9716 22.5244 21.2894C22.1771 21.7671 21.7348 22.1695 21.2247 22.4718C20.9808 22.6136 20.7068 22.6968 20.4246 22.7149C20.1424 22.733 19.8598 22.6854 19.5995 22.576C17.6192 21.7867 15.7689 20.7096 14.1095 19.3801C12.4865 18.0574 11.0681 16.5064 9.89965 14.7764C8.91643 13.3443 8.13421 11.7866 7.57443 10.1461C7.51482 9.94771 7.4658 9.74632 7.42757 9.54281C7.41669 9.45437 7.41505 9.36505 7.42268 9.27628Z" fill="white"/>
<path d="M15.8719 6.69804C17.5287 6.72836 19.1222 7.33337 20.3746 8.40757C21.6271 9.48178 22.4589 10.957 22.7252 12.5762C22.8323 13.1649 22.8897 13.7614 22.8965 14.3595C22.8965 14.5 22.8598 14.6018 22.708 14.6163C22.5563 14.6309 22.5171 14.5024 22.5171 14.374C22.5398 13.1642 22.289 11.9646 21.7828 10.8631C21.3566 9.95807 20.7252 9.16256 19.9377 8.5385C19.1502 7.91443 18.2279 7.47864 17.2425 7.26502C16.7215 7.14561 16.1888 7.08385 15.654 7.08087C15.602 7.08176 15.55 7.07523 15.4998 7.06149C15.4571 7.04956 15.4207 7.02167 15.3983 6.9837C15.376 6.94574 15.3694 6.90065 15.3799 6.85796C15.3802 6.8377 15.3846 6.81771 15.3928 6.79915C15.401 6.78059 15.4128 6.76383 15.4277 6.74985C15.4425 6.73586 15.4599 6.72494 15.4791 6.71771C15.4982 6.71048 15.5185 6.70709 15.539 6.70773C15.6491 6.6932 15.7617 6.69804 15.8719 6.69804Z" fill="white"/>
<path d="M20.5924 13.2692C20.5842 12.596 20.4167 11.9342 20.1035 11.3367C19.7902 10.7391 19.3398 10.2226 18.7885 9.82854C18.1451 9.38109 17.397 9.1034 16.615 9.02169C16.4829 9.00473 16.3507 8.99746 16.2161 8.98292C16.0815 8.96838 16.0007 8.91265 16.0129 8.77697C16.0252 8.64128 16.1108 8.59282 16.2577 8.60251C18.4263 8.73335 20.2718 9.94726 20.8396 12.2079C20.9435 12.6438 20.9952 13.0903 20.9938 13.5381C20.9938 13.5793 20.9938 13.6205 20.9938 13.6593C20.9938 13.7804 20.9155 13.8604 20.7956 13.8579C20.769 13.8571 20.7428 13.8508 20.7187 13.8396C20.6947 13.8284 20.6731 13.8124 20.6555 13.7927C20.6379 13.773 20.6245 13.7499 20.6162 13.7249C20.6078 13.6998 20.6047 13.6734 20.6071 13.6471C20.5875 13.5333 20.5924 13.417 20.5924 13.2692Z" fill="white"/>
<path d="M16.7976 10.5698C17.9872 10.6497 18.8169 11.2264 19.0445 12.4791C19.0721 12.6395 19.0918 12.8013 19.1033 12.9637C19.1033 13.0945 19.0739 13.206 18.9295 13.206C18.7851 13.206 18.7361 13.109 18.7312 12.9637C18.7299 12.4835 18.5804 12.0152 18.3029 11.6213C18.0112 11.2646 17.5925 11.0322 17.133 10.972C17.0302 10.953 16.9264 10.94 16.8221 10.9332C16.6508 10.9332 16.5553 10.8484 16.5774 10.7176C16.5994 10.5867 16.7022 10.5625 16.7976 10.5698Z" fill="white"/>
</svg>
