<svg width="40" height="40" viewBox="0 0 40 40" fill="none" xmlns="http://www.w3.org/2000/svg">
<path fill-rule="evenodd" clip-rule="evenodd" d="M28.6404 13.8788C29.2031 14.5006 29.4018 15.9079 29.4018 15.9079C29.4018 15.9079 29.6004 17.577 29.6004 19.2461V20.7843C29.6004 22.4206 29.4018 24.0897 29.4018 24.0897C29.4018 24.0897 29.2032 25.497 28.6404 26.1188C27.9478 26.8658 27.1654 26.932 26.7772 26.9648C26.7572 26.9665 26.7382 26.9681 26.7204 26.9697C24.039 27.1988 20.0004 27.1988 20.0004 27.1988C20.0004 27.1988 15.0018 27.1661 13.479 27.0025C13.3981 26.9841 13.2985 26.9702 13.1852 26.9545C12.6959 26.8865 11.9517 26.7832 11.3604 26.1189C10.7977 25.4971 10.599 24.0898 10.599 24.0898C10.599 24.0898 10.4004 22.4534 10.4004 20.7843V19.2461C10.4004 17.577 10.599 15.9079 10.599 15.9079C10.599 15.9079 10.7645 14.5007 11.3604 13.8788C12.053 13.1319 12.8354 13.0657 13.2236 13.0328C13.2436 13.0311 13.2625 13.0295 13.2804 13.0279C15.9618 12.8316 20.0004 12.7988 20.0004 12.7988C20.0004 12.7988 24.039 12.8316 26.7204 13.0279C26.748 13.0304 26.7784 13.0327 26.8111 13.0352C27.2096 13.0654 27.9674 13.1228 28.6404 13.8788ZM17.6816 23.7991V16.6973L23.9713 20.33L17.6816 23.7991Z" fill="white"/>
</svg>
